<svg xmlns="http://www.w3.org/2000/svg" xmlns:xlink="http://www.w3.org/1999/xlink" viewBox="0 0 321.85 812"><defs><style>.cls-1{fill:none;}.cls-2{isolation:isolate;}.cls-3{fill:#fff;}.cls-4{fill:#3f849d;}.cls-5{fill:#bc4242;}.cls-6{fill:#518bb9;}.cls-7{fill:#7fa3b9;}.cls-8{opacity:0.92;}.cls-9{clip-path:url(#clip-path);}.cls-10,.cls-12,.cls-13,.cls-16,.cls-17,.cls-20,.cls-21,.cls-22,.cls-25,.cls-26,.cls-27,.cls-30,.cls-31,.cls-32,.cls-34,.cls-35,.cls-37,.cls-38,.cls-39,.cls-42,.cls-43,.cls-44,.cls-47,.cls-48,.cls-49,.cls-52,.cls-53,.cls-54,.cls-57,.cls-58,.cls-59,.cls-62,.cls-63,.cls-64{mix-blend-mode:multiply;opacity:0.5;}.cls-10{fill:url(#linear-gradient);}.cls-11{fill:#bc4343;}.cls-12{fill:url(#linear-gradient-2);}.cls-13{fill:url(#linear-gradient-3);}.cls-14{fill:#04181e;}.cls-15{fill:url(#linear-gradient-4);}.cls-16{fill:url(#linear-gradient-5);}.cls-17{fill:url(#linear-gradient-6);}.cls-18{fill:url(#linear-gradient-7);}.cls-19{clip-path:url(#clip-path-2);}.cls-20{fill:url(#linear-gradient-8);}.cls-21{fill:url(#linear-gradient-9);}.cls-22{fill:url(#linear-gradient-10);}.cls-23{fill:url(#linear-gradient-11);}.cls-24{clip-path:url(#clip-path-3);}.cls-25{fill:url(#linear-gradient-12);}.cls-26{fill:url(#linear-gradient-13);}.cls-27{fill:url(#linear-gradient-14);}.cls-28{fill:url(#linear-gradient-15);}.cls-29{clip-path:url(#clip-path-4);}.cls-30{fill:url(#linear-gradient-16);}.cls-31{fill:url(#linear-gradient-17);}.cls-32{fill:url(#linear-gradient-18);}.cls-33{fill:url(#linear-gradient-19);}.cls-34{fill:url(#linear-gradient-20);}.cls-35{fill:url(#linear-gradient-21);}.cls-36{clip-path:url(#clip-path-5);}.cls-37{fill:url(#linear-gradient-22);}.cls-38{fill:url(#linear-gradient-23);}.cls-39{fill:url(#linear-gradient-24);}.cls-40{fill:url(#linear-gradient-25);}.cls-41{clip-path:url(#clip-path-6);}.cls-42{fill:url(#linear-gradient-26);}.cls-43{fill:url(#linear-gradient-27);}.cls-44{fill:url(#linear-gradient-28);}.cls-45{fill:url(#linear-gradient-29);}.cls-46{clip-path:url(#clip-path-7);}.cls-47{fill:url(#linear-gradient-30);}.cls-48{fill:url(#linear-gradient-31);}.cls-49{fill:url(#linear-gradient-32);}.cls-50{fill:url(#linear-gradient-33);}.cls-51{clip-path:url(#clip-path-8);}.cls-52{fill:url(#linear-gradient-34);}.cls-53{fill:url(#linear-gradient-35);}.cls-54{fill:url(#linear-gradient-36);}.cls-55{fill:url(#linear-gradient-37);}.cls-56{clip-path:url(#clip-path-9);}.cls-57{fill:url(#linear-gradient-38);}.cls-58{fill:url(#linear-gradient-39);}.cls-59{fill:url(#linear-gradient-40);}.cls-60{fill:url(#linear-gradient-41);}.cls-61{clip-path:url(#clip-path-10);}.cls-62{fill:url(#linear-gradient-42);}.cls-63{fill:url(#linear-gradient-43);}.cls-64{fill:url(#linear-gradient-44);}.cls-65{fill:url(#linear-gradient-45);}</style><clipPath id="clip-path" transform="translate(0.97)"><line class="cls-1" x1="-1.02" y1="70.98" x2="-0.43" y2="72.92"/></clipPath><linearGradient id="linear-gradient" x1="5284.41" y1="234645.42" x2="5286.52" y2="234646.93" gradientTransform="matrix(0, -0.12, 0, 0, -780.82, 687.08)" gradientUnits="userSpaceOnUse"><stop offset="0.37" stop-color="#04181e"/><stop offset="0.38" stop-color="#0a1d23"/><stop offset="0.4" stop-color="#38474c"/><stop offset="0.43" stop-color="#626f72"/><stop offset="0.46" stop-color="#889194"/><stop offset="0.49" stop-color="#a8afb1"/><stop offset="0.53" stop-color="#c4c8ca"/><stop offset="0.57" stop-color="#dadddd"/><stop offset="0.62" stop-color="#ebeced"/><stop offset="0.68" stop-color="#f6f7f7"/><stop offset="0.77" stop-color="#fdfdfd"/><stop offset="1" stop-color="#fff"/></linearGradient><linearGradient id="linear-gradient-2" x1="-241432.32" y1="556.32" x2="-241430.67" y2="553.59" gradientTransform="translate(-803.44 138.58) rotate(180) scale(0 0.12)" xlink:href="#linear-gradient"/><linearGradient id="linear-gradient-3" x1="-241437.85" y1="551.73" x2="-241437.57" y2="551.26" gradientTransform="translate(-803.44 138.58) rotate(180) scale(0 0.12)" xlink:href="#linear-gradient"/><linearGradient id="linear-gradient-4" x1="5286.32" y1="-231188.76" x2="5286.32" y2="-231188.77" gradientTransform="matrix(0, -0.12, 0, 0, -769.31, 687.08)" gradientUnits="userSpaceOnUse"><stop offset="0" stop-color="#04181e"/><stop offset="0.06" stop-color="#0c1f24"/><stop offset="0.21" stop-color="#172b2f"/><stop offset="0.42" stop-color="#1e3134"/><stop offset="1" stop-color="#203336"/></linearGradient><linearGradient id="linear-gradient-5" x1="4615.32" y1="-6202.68" x2="4616.87" y2="-6201.56" gradientTransform="translate(-6161.89 -4499.46) rotate(90)" xlink:href="#linear-gradient"/><linearGradient id="linear-gradient-6" x1="-589.34" y1="-117.98" x2="-589.13" y2="-118.32" gradientTransform="translate(628.97 235.57)" xlink:href="#linear-gradient"/><linearGradient id="linear-gradient-7" x1="4616.73" y1="9659.82" x2="4616.73" y2="9659.82" gradientTransform="matrix(0, 1, 1, 0, -9620.41, -4499.46)" xlink:href="#linear-gradient-4"/><clipPath id="clip-path-2" transform="translate(0.97)"><line class="cls-1" x1="-1.48" y1="258.88" x2="-0.87" y2="260.84"/></clipPath><linearGradient id="linear-gradient-8" x1="3661.97" y1="234511.65" x2="3664.11" y2="234513.18" xlink:href="#linear-gradient"/><linearGradient id="linear-gradient-9" x1="-241298.51" y1="-1066.03" x2="-241296.83" y2="-1068.79" gradientTransform="translate(-803.44 138.58) rotate(180) scale(0 0.12)" xlink:href="#linear-gradient"/><linearGradient id="linear-gradient-10" x1="-241304.11" y1="-1070.68" x2="-241303.82" y2="-1071.16" gradientTransform="translate(-803.44 138.58) rotate(180) scale(0 0.12)" xlink:href="#linear-gradient"/><linearGradient id="linear-gradient-11" x1="3663.91" y1="-231055.02" x2="3663.91" y2="-231055.03" xlink:href="#linear-gradient-4"/><clipPath id="clip-path-3" transform="translate(0.97)"><line class="cls-1" x1="-0.78" y1="427.66" x2="-0.19" y2="429.6"/></clipPath><linearGradient id="linear-gradient-12" x1="2205.36" y1="234718.08" x2="2207.47" y2="234719.59" xlink:href="#linear-gradient"/><linearGradient id="linear-gradient-13" x1="-241504.99" y1="-2522.73" x2="-241503.34" y2="-2525.46" gradientTransform="translate(-803.44 138.58) rotate(180) scale(0 0.12)" xlink:href="#linear-gradient"/><linearGradient id="linear-gradient-14" x1="-241510.52" y1="-2527.32" x2="-241510.24" y2="-2527.79" gradientTransform="translate(-803.44 138.58) rotate(180) scale(0 0.12)" xlink:href="#linear-gradient"/><linearGradient id="linear-gradient-15" x1="2207.27" y1="-231261.43" x2="2207.27" y2="-231261.44" xlink:href="#linear-gradient-4"/><clipPath id="clip-path-4" transform="translate(0.97)"><line class="cls-1" x1="-0.81" y1="585.73" x2="-0.17" y2="587.84"/></clipPath><linearGradient id="linear-gradient-16" x1="837.99" y1="234723.17" x2="840.27" y2="234724.81" xlink:href="#linear-gradient"/><linearGradient id="linear-gradient-17" x1="-241509.76" y1="-3889.53" x2="-241507.96" y2="-3892.48" gradientTransform="translate(-803.44 138.58) rotate(180) scale(0 0.12)" xlink:href="#linear-gradient"/><linearGradient id="linear-gradient-18" x1="-241515.74" y1="-3894.5" x2="-241515.43" y2="-3895.01" gradientTransform="translate(-803.44 138.58) rotate(180) scale(0 0.12)" xlink:href="#linear-gradient"/><linearGradient id="linear-gradient-19" x1="840.06" y1="-231266.68" x2="840.06" y2="-231266.68" xlink:href="#linear-gradient-4"/><linearGradient id="linear-gradient-20" x1="5133.76" y1="-6206.25" x2="5135.44" y2="-6205.04" gradientTransform="translate(-6161.89 -4499.46) rotate(90)" xlink:href="#linear-gradient"/><linearGradient id="linear-gradient-21" x1="-585.87" y1="400.61" x2="-585.64" y2="400.23" gradientTransform="translate(628.97 235.57)" xlink:href="#linear-gradient"/><clipPath id="clip-path-5" transform="translate(0.97)"><line class="cls-1" x1="-1.3" y1="789.08" x2="-0.65" y2="791.21"/></clipPath><linearGradient id="linear-gradient-22" x1="-917.9" y1="234578.4" x2="-915.59" y2="234580.06" xlink:href="#linear-gradient"/><linearGradient id="linear-gradient-23" x1="-241364.93" y1="-5645.33" x2="-241363.12" y2="-5648.32" gradientTransform="translate(-803.44 138.58) rotate(180) scale(0 0.12)" xlink:href="#linear-gradient"/><linearGradient id="linear-gradient-24" x1="-241370.99" y1="-5650.36" x2="-241370.68" y2="-5650.88" gradientTransform="translate(-803.44 138.58) rotate(180) scale(0 0.12)" xlink:href="#linear-gradient"/><linearGradient id="linear-gradient-25" x1="-915.81" y1="-231121.93" x2="-915.81" y2="-231121.94" xlink:href="#linear-gradient-4"/><clipPath id="clip-path-6" transform="translate(0.97)"><line class="cls-1" x1="320.92" y1="741.02" x2="320.33" y2="739.08"/></clipPath><linearGradient id="linear-gradient-26" x1="6347.94" y1="143984.3" x2="6350.05" y2="143985.81" gradientTransform="matrix(0, 0.12, 0, 0, 800.77, 1.72)" xlink:href="#linear-gradient"/><linearGradient id="linear-gradient-27" x1="-150771.21" y1="1619.85" x2="-150769.55" y2="1617.12" gradientTransform="translate(823.38 550.22) scale(0 0.12)" xlink:href="#linear-gradient"/><linearGradient id="linear-gradient-28" x1="-150776.73" y1="1615.26" x2="-150776.45" y2="1614.79" gradientTransform="translate(823.38 550.22) scale(0 0.12)" xlink:href="#linear-gradient"/><linearGradient id="linear-gradient-29" x1="6349.85" y1="-140527.65" x2="6349.85" y2="-140527.65" gradientTransform="matrix(0, 0.12, 0, 0, 789.25, 1.72)" xlink:href="#linear-gradient-4"/><clipPath id="clip-path-7" transform="translate(0.97)"><line class="cls-1" x1="321.37" y1="553.12" x2="320.77" y2="551.16"/></clipPath><linearGradient id="linear-gradient-30" x1="4725.5" y1="143850.53" x2="4727.64" y2="143852.06" gradientTransform="matrix(0, 0.12, 0, 0, 800.77, 1.72)" xlink:href="#linear-gradient"/><linearGradient id="linear-gradient-31" x1="-150637.39" y1="-2.5" x2="-150635.71" y2="-5.26" gradientTransform="translate(823.38 550.22) scale(0 0.12)" xlink:href="#linear-gradient"/><linearGradient id="linear-gradient-32" x1="-150642.99" y1="-7.15" x2="-150642.7" y2="-7.63" gradientTransform="translate(823.38 550.22) scale(0 0.12)" xlink:href="#linear-gradient"/><linearGradient id="linear-gradient-33" x1="4727.44" y1="-140393.91" x2="4727.44" y2="-140393.91" gradientTransform="matrix(0, 0.12, 0, 0, 789.25, 1.72)" xlink:href="#linear-gradient-4"/><clipPath id="clip-path-8" transform="translate(0.97)"><line class="cls-1" x1="320.68" y1="384.34" x2="320.08" y2="382.4"/></clipPath><linearGradient id="linear-gradient-34" x1="3268.89" y1="144056.97" x2="3271" y2="144058.48" gradientTransform="matrix(0, 0.12, 0, 0, 800.77, 1.72)" xlink:href="#linear-gradient"/><linearGradient id="linear-gradient-35" x1="-150843.87" y1="-1459.2" x2="-150842.22" y2="-1461.93" gradientTransform="translate(823.38 550.22) scale(0 0.12)" xlink:href="#linear-gradient"/><linearGradient id="linear-gradient-36" x1="-150849.4" y1="-1463.79" x2="-150849.12" y2="-1464.26" gradientTransform="translate(823.38 550.22) scale(0 0.12)" xlink:href="#linear-gradient"/><linearGradient id="linear-gradient-37" x1="3270.8" y1="-140600.31" x2="3270.8" y2="-140600.32" gradientTransform="matrix(0, 0.12, 0, 0, 789.25, 1.72)" xlink:href="#linear-gradient-4"/><clipPath id="clip-path-9" transform="translate(0.97)"><line class="cls-1" x1="320.71" y1="226.27" x2="320.07" y2="224.16"/></clipPath><linearGradient id="linear-gradient-38" x1="1901.52" y1="144062.05" x2="1903.8" y2="144063.69" gradientTransform="matrix(0, 0.12, 0, 0, 800.77, 1.72)" xlink:href="#linear-gradient"/><linearGradient id="linear-gradient-39" x1="-150848.64" y1="-2826" x2="-150846.85" y2="-2828.95" gradientTransform="translate(823.38 550.22) scale(0 0.12)" xlink:href="#linear-gradient"/><linearGradient id="linear-gradient-40" x1="-150854.62" y1="-2830.97" x2="-150854.31" y2="-2831.48" gradientTransform="translate(823.38 550.22) scale(0 0.12)" xlink:href="#linear-gradient"/><linearGradient id="linear-gradient-41" x1="1903.59" y1="-140605.56" x2="1903.59" y2="-140605.56" gradientTransform="matrix(0, 0.12, 0, 0, 789.25, 1.72)" xlink:href="#linear-gradient-4"/><clipPath id="clip-path-10" transform="translate(0.97)"><line class="cls-1" x1="321.2" y1="22.92" x2="320.55" y2="20.79"/></clipPath><linearGradient id="linear-gradient-42" x1="145.63" y1="143917.29" x2="147.94" y2="143918.94" gradientTransform="matrix(0, 0.12, 0, 0, 800.77, 1.72)" xlink:href="#linear-gradient"/><linearGradient id="linear-gradient-43" x1="-150703.81" y1="-4581.8" x2="-150702" y2="-4584.79" gradientTransform="translate(823.38 550.22) scale(0 0.12)" xlink:href="#linear-gradient"/><linearGradient id="linear-gradient-44" x1="-150709.87" y1="-4586.83" x2="-150709.56" y2="-4587.35" gradientTransform="translate(823.38 550.22) scale(0 0.12)" xlink:href="#linear-gradient"/><linearGradient id="linear-gradient-45" x1="147.72" y1="-140460.82" x2="147.72" y2="-140460.82" gradientTransform="matrix(0, 0.12, 0, 0, 789.25, 1.72)" xlink:href="#linear-gradient-4"/></defs><g class="cls-2"><g id="Calque_1" data-name="Calque 1"><rect class="cls-3" x="0.96" y="0.38" width="16.46" height="811.62"/><polygon class="cls-4" points="1.22 36.28 2.71 35.41 9.32 31.56 1.22 27.99 1.22 36.28"/><path class="cls-5" d="M11.41,36.39" transform="translate(0.97)"/><polygon class="cls-6" points="9.32 31.56 1.22 36.2 1.22 36.2 9.63 40.26 9.63 40.26 9.32 31.56 9.32 31.56"/><polygon class="cls-7" points="11.28 50.33 2.42 45.6 2.42 55.05 11.28 50.33"/><g class="cls-8"><g class="cls-9"><polygon class="cls-1" points="0.54 74.56 0.52 74.17 0.52 74.17 0.52 74.17 0.54 74.56"/><polygon class="cls-1" points="0.55 74.71 0.54 74.81 0.55 74.71 0.55 74.71"/><line class="cls-10" x1="0.55" y1="74.71" x2="0.54" y2="74.81"/><polygon class="cls-11" points="0.54 74.53 0.55 74.68 0.55 73.89 0.52 74.13 0.54 74.53"/><polyline class="cls-12" points="0.55 74.71 0.55 74.71 0.55 74.71 0.55 74.71 0.55 74.71 0.55 74.71 0.54 74.56 0.52 74.17 0.52 74.17 0.49 74.71"/><polyline class="cls-13" points="0.54 74.81 0.55 74.71 0.55 74.71"/><line class="cls-3" x1="0.49" y1="74.71" x2="0.49" y2="74.71"/><polygon class="cls-5" points="0.46 74.66 0.46 74.66 0.45 74.85 0.46 75.04 0.46 74.66"/><polygon class="cls-14" points="0.55 73.62 0.55 73.62 0.55 73.62 0.55 73.62"/><polygon class="cls-14" points="0.52 74.17 0.52 74.17 0.52 74.17 0.52 74.17"/><polygon class="cls-14" points="0.49 74.71 0.49 74.71 0.49 74.71 0.49 74.71"/><polyline class="cls-15" points="0.55 74.71 0.55 74.71 0.55 74.71"/><polyline class="cls-4" points="0.52 74.17 0.51 74.27 0.49 74.71"/><line class="cls-6" x1="0.55" y1="74.72" x2="0.54" y2="74.82"/><path class="cls-6" d="M-.5,74.76" transform="translate(0.97)"/></g></g><polygon class="cls-4" points="1 67 2.63 66.13 9.86 62.27 1 57.55 1 67"/><polygon class="cls-6" points="9.72 70.98 1 75.58 1 75.58 9.86 80.61 9.86 80.61 9.72 70.98 9.72 70.98"/><polygon class="cls-7" points="9.9 89.88 1.04 85.16 0.95 94.74 9.9 89.88"/><polyline class="cls-1" points="40.61 116.63 39.41 117.27 39.41 117.27 40.61 116.63"/><line class="cls-16" x1="39.41" y1="117.27" x2="40.61" y2="116.63"/><polyline class="cls-17" points="40.61 116.63 39.41 117.27 39.41 117.27"/><polyline class="cls-18" points="39.41 117.27 39.41 117.27 39.41 117.27"/><polygon class="cls-4" points="10.11 99.84 10.11 90.95 1.29 96.53 10.11 99.84"/><polygon class="cls-5" points="0.95 104.77 0.95 104.77 10.1 109.34 10.11 109.29 10.11 109.29 10.11 99.84 10.11 99.84 0.95 104.77"/><polygon class="cls-7" points="9.14 19.72 5.85 17.97 5.85 20.47 9.14 19.72"/><polygon class="cls-7" points="10.11 118.12 1.11 113.36 1 122.54 10.11 118.12"/><polyline class="cls-6" points="10.21 127.56 10.47 127.56 1 122.54 1 122.54 1.11 131.48 10.47 127.56"/><polygon class="cls-5" points="1.11 131.48 1.11 131.48 10.2 136.96 10.21 136.9 10.21 136.9 10.21 127.46 10.21 127.46 1.11 131.48"/><polygon class="cls-7" points="15.28 146.61 11.99 144.86 11.99 148.37 15.28 146.61"/><polyline class="cls-4" points="1.18 137.91 1.18 147.35 2.81 146.49 10.04 142.63 1.18 137.91"/><polyline class="cls-5" points="2.13 155.31 2.13 158.59 2.13 158.59 5.21 156.95"/><polygon class="cls-6" points="10.16 144.86 1.3 149.59 1.3 149.59 10.16 154.31 10.16 154.31 10.16 144.86 10.16 144.86"/><polyline class="cls-7" points="1.3 169.03 10.16 164.31 1.3 159.59 1.3 169.03"/><polyline class="cls-6" points="16.05 169.03 11.22 166.46 11.22 171.61"/><polygon class="cls-5" points="0.85 57.72 0.85 57.72 9.72 62.45 9.72 62.44 9.72 62.45 9.72 53 9.72 53 0.85 57.72"/><polygon class="cls-4" points="1.11 113.36 1.11 113.36 10.11 118.08 10.11 118.08 10.11 118.08 10.11 108.63 10.11 108.63 1.11 113.36"/><polygon class="cls-5" points="9.63 40.26 1.22 36.17 1.22 45.83 9.63 40.26"/><polygon class="cls-7" points="10.17 240.72 1.19 235.93 1.19 245.5 10.17 240.72"/><polygon class="cls-4" points="9.59 238.11 9.59 238.11 9.64 232.56 5 235.61 9.59 238.11"/><g class="cls-8"><g class="cls-19"><polygon class="cls-1" points="0.09 262.5 0.07 262.1 0.07 262.1 0.07 262.1 0.09 262.5"/><polygon class="cls-1" points="0.1 262.65 0.1 262.76 0.1 262.65 0.1 262.65"/><line class="cls-20" x1="0.1" y1="262.66" x2="0.1" y2="262.76"/><polygon class="cls-11" points="0.09 262.47 0.1 262.62 0.1 261.82 0.07 262.07 0.09 262.47"/><polyline class="cls-21" points="0.1 262.65 0.1 262.65 0.1 262.65 0.1 262.65 0.1 262.65 0.1 262.65 0.09 262.5 0.07 262.1 0.07 262.1 0.04 262.65"/><polyline class="cls-22" points="0.1 262.76 0.1 262.65 0.1 262.65"/><line class="cls-3" x1="0.04" y1="262.66" x2="0.04" y2="262.66"/><polygon class="cls-5" points="0.01 262.6 0.01 262.6 0 262.79 0.01 262.98 0.01 262.6"/><polygon class="cls-14" points="0.1 261.55 0.1 261.55 0.1 261.55 0.1 261.55"/><polygon class="cls-14" points="0.07 262.1 0.07 262.1 0.07 262.1 0.07 262.1"/><polygon class="cls-14" points="0.04 262.65 0.04 262.65 0.04 262.65 0.04 262.65"/><polyline class="cls-23" points="0.1 262.65 0.1 262.65 0.1 262.65"/><polyline class="cls-4" points="0.07 262.1 0.07 262.2 0.04 262.65"/><line class="cls-6" x1="0.1" y1="262.66" x2="0.1" y2="262.76"/><path class="cls-6" d="M-.94,262.71" transform="translate(0.97)"/></g></g><polygon class="cls-4" points="1.19 261.31 2.84 260.44 10.17 256.53 1.19 251.75 1.19 261.31"/><polygon class="cls-4" points="18.07 271.66 9.1 266.88 9.1 276.44 18.07 271.66"/><polygon class="cls-6" points="10.17 256.53 1.19 261.31 1.19 261.31 10.17 266.1 10.17 266.1 10.17 256.53 10.17 256.53"/><polygon class="cls-7" points="10.26 277.74 1.28 272.96 1.19 282.67 10.26 277.74"/><polygon class="cls-5" points="12.55 316.25 12.55 316.25 17.45 313.64 12.55 311.03 12.55 316.25"/><polygon class="cls-4" points="10.89 287.43 10.26 277.74 1.11 282.8 10.89 287.43"/><polyline class="cls-6" points="10.97 287.56 10.97 287.56 1.45 282.93 1.19 282.93 1.19 291.93 10.97 287.56"/><polygon class="cls-5" points="1.19 291.93 1.48 292.5 10.74 297.13 10.75 297.08 10.75 297.08 10.75 287.52 10.75 287.51 1.19 291.93"/><polygon class="cls-7" points="15.94 285.66 12.61 283.88 12.61 287.43 15.94 285.66"/><polygon class="cls-7" points="10.26 306.76 1.28 301.98 1.19 311.69 10.26 306.76"/><polygon class="cls-4" points="10.62 316.51 10.26 306.76 1.19 311.69 10.62 316.51"/><polyline class="cls-6" points="10.84 316.64 10.62 316.51 1.19 311.69 1.19 311.69 1.24 320.68 10.62 316.51"/><polygon class="cls-5" points="1.24 320.68 1.24 320.68 11.03 326.13 11.04 326.07 11.04 326.07 10.62 316.51 10.62 316.51 1.24 320.68"/><polygon class="cls-7" points="14.85 339.08 11.52 337.31 11.52 340.85 14.85 339.08"/><polyline class="cls-4" points="1.24 325.9 1.24 335.46 2.89 334.58 10.22 330.68 1.24 325.9"/><polyline class="cls-5" points="1.54 344.28 1.54 347.6 1.54 347.6 4.66 345.94"/><polygon class="cls-6" points="10.22 334.3 1.24 339.08 1.24 339.08 10.22 343.86 10.22 343.86 10.22 334.3 10.22 334.3"/><polyline class="cls-7" points="1.24 358.16 10.22 353.38 1.24 348.6 1.24 358.16"/><polyline class="cls-6" points="13.86 358.29 8.96 355.68 8.96 360.9"/><polygon class="cls-5" points="1.19 245.5 1.19 245.5 10.17 250.28 10.17 250.28 10.17 250.28 10.17 240.72 10.17 240.72 1.19 245.5"/><polygon class="cls-4" points="1.24 302.04 1.24 302.04 10.22 306.82 10.22 306.82 10.22 306.82 10.74 297.13 10.74 297.13 1.24 302.04"/><polygon class="cls-6" points="10.17 231.15 1.19 224.65 1.19 234.5 10.17 231.15"/><polyline class="cls-6" points="10.67 468.55 11.04 469.6 2.9 466.04 1.15 465.09 1.33 473.5 11.07 469.91"/><polygon class="cls-7" points="9.74 488.39 1.15 483.77 1.33 493.47 9.74 488.39"/><polygon class="cls-4" points="10.94 497.97 9.74 488.39 1.28 493.39 10.94 497.97"/><polyline class="cls-6" points="10.99 498.04 11.24 498.04 1.59 493.47 1.33 493.47 1.33 502.36 11.24 498.04"/><polygon class="cls-4" points="1.15 483.84 1.15 483.84 9.93 488.57 9.93 488.57 9.93 488.57 9.93 479.12 9.93 479.12 1.15 483.84"/><polygon class="cls-5" points="1.28 512.04 4.01 510.67 11.24 506.81 1.38 502.09 1.28 512.04"/><polygon class="cls-5" points="9.09 23.36 1.22 18.33 1.22 27.99 9.09 23.36"/><polygon class="cls-5" points="9.86 80.61 1 75.58 1 85.24 9.86 80.61"/><polyline class="cls-6" points="7.46 69.75 2.62 67.17 2.62 72.32"/><polyline class="cls-5" points="2.24 98.3 2.24 101.58 2.24 101.58 5.32 99.94"/><line class="cls-7" x1="7.78" y1="91.7" x2="4.49" y2="89.95"/><polyline class="cls-7" points="9.86 30.94 13.15 29.18 9.86 27.43"/><polyline class="cls-6" points="12.89 45.31 8.05 42.74 8.05 47.89"/><polyline class="cls-5" points="9.76 37.58 11.42 40.41 11.42 40.41 13.25 37.44"/><polyline class="cls-6" points="15.34 15.96 10.96 18.08 14.3 20.71"/><polyline class="cls-5" points="10.64 6.4 12.3 9.23 12.3 9.23 14.13 6.26"/><polyline class="cls-7" points="12.04 58.84 15.33 57.09 12.04 55.34"/><polyline class="cls-5" points="8.73 65.7 10.38 68.54 10.38 68.54 12.21 65.56"/><polyline class="cls-6" points="8.5 82.5 3.78 85.28 8.18 87.97"/><polyline class="cls-7" points="13.27 79.15 15.03 75.08 10.67 75.89"/><polyline class="cls-4" points="14.4 90.74 17.15 84.91 10.78 85.88"/><polyline class="cls-5" points="10.67 95.81 12.33 98.64 12.33 98.64 14.16 95.67"/><polyline class="cls-6" points="14.37 108.63 16.88 102.84 10.67 103.99"/><polyline class="cls-5" points="5.64 121.22 8.09 125.09 8.09 125.09 10.49 120.86"/><polyline class="cls-7" points="12.27 116.69 13.28 114.35 10.78 114.81"/><polyline class="cls-6" points="10.92 130.9 17 132.59 15.02 126.6"/><polyline class="cls-5" points="1.24 210.08 3.68 213.94 3.68 213.94 6.09 209.72"/><polyline class="cls-5" points="11.21 161.01 13.65 164.88 13.65 164.88 16.06 160.65"/><polygon class="cls-6" points="10.16 164.31 1.3 169.03 1.3 169.03 10.16 173.76 10.17 173.76 10.17 164.31 10.16 164.31"/><polygon class="cls-7" points="10.09 183.16 1.22 178.43 1.14 188.02 10.09 183.16"/><polygon class="cls-4" points="10.77 192.6 10.07 183.16 1.14 188.02 10.77 192.6"/><polygon class="cls-5" points="1.3 196.91 2.01 197.42 10.58 201.29 10.58 201.29 10.55 201.05 10.57 192.5 10.57 192.5 1.3 196.91"/><polygon class="cls-4" points="1.19 205.47 1.19 205.47 10.58 210.73 10.58 210.73 10.58 210.73 10.58 201.29 10.58 201.29 1.19 205.47"/><polygon class="cls-5" points="10.16 173.76 1.3 168.93 1.3 178.58 10.16 173.76"/><polyline class="cls-5" points="2.83 190.85 2.83 194.14 2.83 194.14 5.91 192.5"/><line class="cls-7" x1="7.78" y1="184.35" x2="4.49" y2="182.6"/><polyline class="cls-6" points="9.21 175.15 4.49 177.94 8.89 180.63"/><polygon class="cls-7" points="10.17 219.87 1.19 215.09 1.19 224.65 10.17 219.87"/><polygon class="cls-6" points="9.41 218.37 9.41 218.37 14.31 215.76 9.41 213.15 9.41 218.37"/><polygon class="cls-4" points="1.19 224.65 1.19 224.65 10.17 231.15 10.17 231.15 10.17 231.15 10.17 219.87 10.17 219.87 1.19 224.65"/><polygon class="cls-5" points="10.71 210.56 1.19 205.47 1.19 215.24 10.71 210.56"/><polygon class="cls-5" points="12.24 263.92 12.24 263.92 17.14 261.31 12.24 258.7 12.24 263.92"/><polyline class="cls-6" points="15.41 183.42 10.57 180.84 10.57 185.99"/><polyline class="cls-7" points="12.65 193.29 17.2 190.86 12.65 188.44"/><polyline class="cls-5" points="11.86 201.43 13.52 204.26 13.52 204.26 15.35 201.29"/><polyline class="cls-7" points="13.59 213.87 15.35 209.79 10.99 210.6"/><polygon class="cls-5" points="14.33 229.36 14.33 229.36 16.54 223.4 10.37 224.89 14.33 229.36"/><polygon class="cls-4" points="1.3 394.11 2.92 393.24 10.16 389.39 1.3 384.67 1.3 394.11"/><path class="cls-5" d="M11.65,393.07" transform="translate(0.97)"/><polygon class="cls-6" points="10.16 389.39 1.3 394.11 1.3 394.11 10.16 398.83 10.16 398.83 10.16 389.39 10.16 389.39"/><polygon class="cls-7" points="10.16 409.98 1.3 405.25 1.3 414.7 10.16 409.98"/><g class="cls-8"><g class="cls-24"><polygon class="cls-1" points="0.78 431.24 0.76 430.85 0.76 430.85 0.76 430.85 0.78 431.24"/><polygon class="cls-1" points="0.79 431.39 0.78 431.49 0.79 431.39 0.79 431.39"/><line class="cls-25" x1="0.79" y1="431.39" x2="0.78" y2="431.49"/><polygon class="cls-11" points="0.78 431.21 0.79 431.36 0.79 430.57 0.76 430.81 0.78 431.21"/><polyline class="cls-26" points="0.79 431.39 0.79 431.39 0.79 431.39 0.79 431.39 0.79 431.39 0.79 431.39 0.78 431.24 0.76 430.85 0.76 430.85 0.73 431.39"/><polyline class="cls-27" points="0.78 431.49 0.79 431.39 0.79 431.39"/><line class="cls-3" x1="0.73" y1="431.39" x2="0.73" y2="431.39"/><polygon class="cls-5" points="0.7 431.34 0.7 431.34 0.69 431.53 0.7 431.72 0.7 431.34"/><polygon class="cls-14" points="0.79 430.3 0.79 430.3 0.79 430.3 0.79 430.3"/><polygon class="cls-14" points="0.76 430.85 0.76 430.85 0.76 430.85 0.76 430.85"/><polygon class="cls-14" points="0.73 431.39 0.73 431.39 0.73 431.39 0.73 431.39"/><polyline class="cls-28" points="0.79 431.39 0.79 431.39 0.79 431.39"/><polyline class="cls-4" points="0.76 430.85 0.75 430.95 0.73 431.39"/><line class="cls-6" x1="0.79" y1="431.4" x2="0.78" y2="431.5"/><path class="cls-6" d="M-.26,431.44" transform="translate(0.97)"/></g></g><polygon class="cls-4" points="1.3 424.15 2.92 423.28 10.16 419.42 1.3 414.7 1.3 424.15"/><polygon class="cls-6" points="9.97 428.08 1.11 432.81 1.11 432.81 10.16 437.84 10.16 437.84 9.97 428.08 9.97 428.08"/><polygon class="cls-7" points="10.11 447.18 1.25 442.46 1.16 452.05 10.11 447.18"/><polygon class="cls-4" points="9.63 456.62 9.93 447.18 0.97 452.05 9.63 456.62"/><polygon class="cls-5" points="1.15 465.09 1.92 465.6 11.06 470.17 11.07 470.12 11.07 470.12 11.07 460.67 11.07 460.67 1.15 465.09"/><polygon class="cls-7" points="14.2 380.34 10.91 378.59 10.91 381.09 14.2 380.34"/><polygon class="cls-5" points="1.3 414.7 1.3 414.7 10.16 419.42 10.16 419.42 10.16 419.42 10.16 409.98 10.16 409.98 1.3 414.7"/><polygon class="cls-5" points="10.16 400.63 1.3 395.6 1.3 405.25 10.16 400.63"/><polygon class="cls-5" points="10.16 380.04 1.3 375.01 1.3 384.67 10.16 380.04"/><polygon class="cls-5" points="10.16 437.84 1.3 432.81 1.3 442.46 10.16 437.84"/><polyline class="cls-6" points="8.8 426.42 3.96 423.85 3.96 429"/><polyline class="cls-5" points="2.42 455.73 2.42 459.01 2.42 459.01 5.5 457.37"/><line class="cls-7" x1="8.02" y1="448.38" x2="4.74" y2="446.63"/><polyline class="cls-7" points="8.57 387.12 11.86 385.36 8.57 383.61"/><polyline class="cls-6" points="12.87 405.25 8.03 402.68 8.03 407.83"/><polyline class="cls-5" points="12.63 392.25 14.28 395.09 14.28 395.09 16.11 392.12"/><polyline class="cls-6" points="15.58 370.84 11.21 372.96 14.54 375.59"/><polyline class="cls-5" points="10.88 363.08 12.54 365.91 12.54 365.91 14.37 362.94"/><polyline class="cls-7" points="11.75 414.7 15.04 412.95 11.75 411.2"/><polyline class="cls-5" points="12.63 419.18 14.28 422.01 14.28 422.01 16.11 419.04"/><polyline class="cls-6" points="9.46 439.93 4.74 442.71 9.13 445.4"/><polyline class="cls-7" points="14.62 434.3 16.39 430.23 12.02 431.03"/><polyline class="cls-4" points="13.83 446.63 16.58 440.8 10.21 441.77"/><polyline class="cls-5" points="11.87 450.7 12.53 453.53 12.53 453.53 15.36 450.56"/><polyline class="cls-6" points="13.82 462.49 15.17 458.77 11.24 459.25"/><polyline class="cls-6" points="14.72 305.1 16.35 299.95 10.97 300.48"/><polyline class="cls-5" points="9.52 326.91 11.73 330.68 11.73 330.68 13.98 326.84"/><polygon class="cls-7" points="14.28 320.35 12.08 319.18 12.08 321.53 14.28 320.35"/><polyline class="cls-6" points="10.94 246.75 17.02 248.44 15.03 242.45"/><polyline class="cls-4" points="12.76 352.22 15.51 346.39 9.14 347.36"/><polyline class="cls-7" points="8.82 478.76 9.57 472.93 3.19 473.9"/><polyline class="cls-5" points="12.22 467.86 13.88 470.69 13.88 470.69 15.71 467.72"/><polyline class="cls-6" points="16.38 479.12 11.54 476.54 11.54 481.7"/><polyline class="cls-5" points="6.54 500.62 10.58 505.82 10.58 505.82 12.94 500.36"/><polyline class="cls-7" points="15.31 485.8 14.97 482.54 12.45 484.64"/><polyline class="cls-6" points="12.49 491.52 15.85 489.73 12.49 487.94"/><polyline class="cls-5" points="14.97 499.36 16.81 495.73 16.81 495.73 12.49 495.82"/><polyline class="cls-6" points="16.82 508.14 12.1 510.93 16.49 513.61"/><polygon class="cls-4" points="1.31 553.29 3.08 552.35 10.91 548.17 1.31 543.06 1.31 553.29"/><path class="cls-5" d="M12.64,548.3" transform="translate(0.97)"/><polygon class="cls-6" points="10.91 548.17 1.31 553.29 1.31 553.29 10.91 558.4 10.91 558.4 10.91 548.17 10.91 548.17"/><polygon class="cls-7" points="10.91 568.62 1.31 563.51 1.31 573.73 10.91 568.62"/><g class="cls-8"><g class="cls-29"><polygon class="cls-1" points="0.8 589.61 0.78 589.18 0.78 589.18 0.78 589.18 0.8 589.61"/><polygon class="cls-1" points="0.81 589.77 0.8 589.88 0.81 589.77 0.81 589.77"/><line class="cls-30" x1="0.81" y1="589.77" x2="0.8" y2="589.88"/><polygon class="cls-11" points="0.8 589.57 0.81 589.74 0.81 588.88 0.77 589.14 0.8 589.57"/><polyline class="cls-31" points="0.81 589.77 0.81 589.77 0.81 589.77 0.81 589.77 0.81 589.77 0.81 589.77 0.8 589.61 0.78 589.18 0.78 589.18 0.74 589.77"/><polyline class="cls-32" points="0.8 589.88 0.81 589.77 0.81 589.77"/><line class="cls-3" x1="0.74" y1="589.77" x2="0.74" y2="589.77"/><polygon class="cls-5" points="0.71 589.71 0.71 589.71 0.7 589.92 0.71 590.12 0.71 589.71"/><polygon class="cls-14" points="0.81 588.59 0.81 588.59 0.81 588.59 0.81 588.59"/><polygon class="cls-14" points="0.78 589.18 0.78 589.18 0.78 589.18 0.78 589.18"/><polygon class="cls-14" points="0.74 589.77 0.74 589.77 0.74 589.77 0.74 589.77"/><polyline class="cls-33" points="0.81 589.77 0.81 589.77 0.81 589.77"/><polyline class="cls-4" points="0.78 589.18 0.77 589.29 0.74 589.77"/><line class="cls-6" x1="0.81" y1="589.78" x2="0.8" y2="589.89"/><path class="cls-6" d="M-.24,589.83" transform="translate(0.97)"/></g></g><polygon class="cls-4" points="1.31 583.96 3.08 583.02 10.91 578.85 1.31 573.73 1.31 583.96"/><polygon class="cls-6" points="10.91 585.97 1.31 591.08 1.31 591.08 10.91 596.52 10.91 596.52 10.91 585.97 10.91 585.97"/><polygon class="cls-7" points="10.78 606.64 1.19 601.52 1.09 611.9 10.78 606.64"/><polyline class="cls-1" points="44.17 635.13 42.86 635.83 42.86 635.83 44.17 635.13"/><line class="cls-34" x1="42.86" y1="635.83" x2="44.17" y2="635.13"/><polyline class="cls-35" points="44.17 635.13 42.86 635.83 42.86 635.83"/><polygon class="cls-4" points="11.56 616.93 10.8 606.71 1.11 611.98 11.56 616.93"/><polygon class="cls-5" points="1.09 621.92 1.09 621.92 11.46 627.19 11.48 627.13 11.48 627.13 11.48 616.91 11.48 616.91 1.09 621.92"/><polygon class="cls-7" points="13.87 533.57 10.32 531.67 10.32 534.38 13.87 533.57"/><polygon class="cls-7" points="11.48 637.41 1.22 632.3 1.11 642.68 11.48 637.41"/><polyline class="cls-6" points="11.96 647.41 12.25 647.41 1.4 642.46 1.11 642.46 1.11 652.08 12.25 647.41"/><polygon class="cls-5" points="0.93 652.05 1.75 652.6 11.65 657.55 11.66 657.49 11.67 657.49 12.25 647.41 12.25 647.41 0.93 652.05"/><polygon class="cls-7" points="16.39 661.29 12.83 659.4 12.83 663.19 16.39 661.29"/><polyline class="cls-4" points="1.11 657.55 1.11 667.77 2.87 666.83 10.7 662.66 1.11 657.55"/><polyline class="cls-5" points="2.79 671.17 2.79 673.24 2.79 673.24 4.47 672.2"/><polygon class="cls-6" points="10.7 662.66 1.11 667.77 1.11 667.77 10.7 672.88 10.7 672.88 10.7 662.66 10.7 662.66"/><polyline class="cls-7" points="1.17 687.75 10.69 683.16 1.17 677.53 1.17 687.75"/><polyline class="cls-6" points="16.69 694.28 11.45 691.49 11.45 697.07"/><polygon class="cls-5" points="1.31 573.73 1.31 573.74 10.9 578.85 10.9 578.85 10.91 578.85 10.91 568.62 10.9 568.62 1.31 573.73"/><polygon class="cls-4" points="1.11 632.48 1.11 632.48 11.48 637.41 11.49 637.41 11.49 637.41 11.49 627.19 11.49 627.19 1.11 632.48"/><polygon class="cls-5" points="10.91 558.4 1.31 553.4 1.31 563.84 10.91 558.4"/><polygon class="cls-7" points="10.64 769.43 0.92 764.25 0.92 774.6 10.64 769.43"/><polygon class="cls-4" points="9.87 766.91 9.87 766.91 9.92 760.9 4.9 764.21 9.87 766.91"/><g class="cls-8"><g class="cls-36"><polygon class="cls-1" points="0.32 793 0.29 792.57 0.29 792.57 0.29 792.57 0.32 793"/><polygon class="cls-1" points="0.33 793.17 0.32 793.28 0.33 793.17 0.33 793.17"/><line class="cls-37" x1="0.32" y1="793.17" x2="0.32" y2="793.28"/><polygon class="cls-11" points="0.32 792.97 0.32 793.13 0.32 792.27 0.29 792.54 0.32 792.97"/><polyline class="cls-38" points="0.33 793.17 0.33 793.17 0.33 793.17 0.33 793.17 0.33 793.17 0.33 793.17 0.32 793 0.29 792.57 0.29 792.57 0.26 793.17"/><polyline class="cls-39" points="0.32 793.28 0.33 793.17 0.33 793.17"/><line class="cls-3" x1="0.26" y1="793.17" x2="0.26" y2="793.17"/><polygon class="cls-5" points="0.23 793.11 0.23 793.11 0.21 793.32 0.23 793.53 0.23 793.11"/><polygon class="cls-14" points="0.33 791.97 0.33 791.97 0.33 791.97 0.33 791.97"/><polygon class="cls-14" points="0.29 792.57 0.29 792.57 0.29 792.57 0.29 792.57"/><polygon class="cls-14" points="0.26 793.17 0.26 793.17 0.26 793.17 0.26 793.17"/><polyline class="cls-40" points="0.33 793.17 0.33 793.17 0.33 793.17"/><polyline class="cls-4" points="0.29 792.57 0.29 792.68 0.26 793.17"/><line class="cls-6" x1="0.32" y1="793.18" x2="0.32" y2="793.29"/><path class="cls-6" d="M-.73,793.23" transform="translate(0.97)"/></g></g><polygon class="cls-4" points="0.92 792.1 2.71 791.15 10.64 786.92 0.92 781.75 0.92 792.1"/><polygon class="cls-4" points="10.69 800.6 0.97 795.42 0.97 805.77 10.69 800.6"/><polygon class="cls-6" points="10.64 786.92 0.92 792.1 0.92 792.1 10.64 797.28 10.64 797.28 10.64 786.92 10.64 786.92"/><polygon class="cls-5" points="10.92 812 0.87 805.3 0.97 812 10.92 812"/><polygon class="cls-5" points="0.92 774.6 0.92 774.61 10.64 779.78 10.64 779.78 10.64 779.78 10.64 769.43 10.64 769.43 0.92 774.6"/><polygon class="cls-6" points="10.49 759.3 0.94 752.3 0.98 764.25 10.49 759.3"/><polygon class="cls-5" points="10.91 537.87 1.31 532.42 1.31 542.87 10.91 537.87"/><polygon class="cls-5" points="10.91 596.52 1.31 591.08 1.31 601.52 10.91 596.52"/><polyline class="cls-6" points="9.07 585.22 5.09 583.09 5.09 587.36"/><polyline class="cls-5" points="2.64 614.65 2.64 618.2 2.64 618.2 5.97 616.42"/><line class="cls-7" x1="8.64" y1="608.16" x2="5.08" y2="606.26"/><polyline class="cls-7" points="10.89 542.39 14.45 540.5 10.89 538.6"/><polyline class="cls-6" points="13.88 563.2 8.64 560.41 8.64 565.99"/><polyline class="cls-5" points="12.69 544.48 14.48 547.54 14.48 547.54 16.46 544.33"/><polyline class="cls-6" points="16.46 524.13 11.73 526.43 15.34 529.27"/><polyline class="cls-5" points="11.73 515.84 13.52 518.9 13.52 518.9 15.5 515.69"/><polyline class="cls-7" points="12.1 571.61 15.66 569.71 12.1 567.82"/><polyline class="cls-5" points="11.54 580.02 13.34 583.09 13.34 583.09 15.32 579.87"/><polyline class="cls-6" points="9.41 598.79 4.3 601.8 9.06 604.71"/><polyline class="cls-7" points="14.33 595.28 16.24 590.87 11.52 591.75"/><polyline class="cls-4" points="15.06 606.26 16.16 601.35 11.14 601"/><polyline class="cls-5" points="11.99 610.99 13.78 614.06 13.78 614.06 15.76 610.84"/><polyline class="cls-6" points="14.72 624.1 15.79 621.7 13.2 622.2"/><polyline class="cls-5" points="8.95 639.77 11.59 643.95 11.59 643.96 14.19 639.38"/><polyline class="cls-7" points="13.49 635.2 14.59 632.67 11.88 633.17"/><polyline class="cls-6" points="13.82 650.41 16.03 650.8 15.53 648.61"/><polyline class="cls-5" points="1.56 736.27 4.2 740.45 4.2 740.45 6.8 735.88"/><polyline class="cls-5" points="12.09 678.77 14.13 682 14.13 682 16.46 678.27"/><polygon class="cls-6" points="10.7 682.64 1.11 687.75 1.11 687.75 10.7 692.86 10.7 692.86 10.7 682.64 10.7 682.64"/><polygon class="cls-7" points="10.91 707.41 1.32 702.29 1.22 712.67 10.91 707.41"/><polygon class="cls-4" points="11.67 717.63 10.91 707.42 1.22 712.68 11.67 717.63"/><polygon class="cls-5" points="1.08 722.02 1.91 722.57 11.16 726.76 11.16 726.76 11.16 726.76 11.67 717.63 11.67 717.63 1.08 722.02"/><polygon class="cls-4" points="0.92 731.69 0.4 731.87 11.16 736.98 11.16 736.98 11.16 736.98 11.16 726.76 11.16 726.75 0.92 731.69"/><polygon class="cls-5" points="10.76 697.29 1.17 691.85 1.17 702.3 10.76 697.29"/><polyline class="cls-5" points="1.61 715.57 1.61 719.13 1.61 719.13 4.95 717.35"/><line class="cls-7" x1="8.64" y1="708.43" x2="5.08" y2="706.54"/><polyline class="cls-6" points="9.41 698.47 4.3 701.49 9.06 704.39"/><polygon class="cls-7" points="10.64 746.92 0.92 741.75 0.92 752.1 10.64 746.92"/><polygon class="cls-6" points="7.75 745.25 7.75 745.25 13.05 742.42 7.75 739.6 7.75 745.25"/><polygon class="cls-4" points="0.92 752.1 0.94 752.3 10.28 759.3 10.29 759.3 10.28 759.3 10.29 746.87 10.29 746.87 0.92 752.1"/><polygon class="cls-5" points="11.22 737.2 0.92 731.69 0.92 742.27 11.22 737.2"/><polygon class="cls-5" points="10.54 785.21 10.54 785.21 13.56 783.35 10.54 781.5 10.54 785.21"/><polyline class="cls-4" points="17.33 707.18 12.09 704.39 12.09 709.97"/><polyline class="cls-7" points="12.88 718.84 16.54 717.24 12.88 715.64"/><polyline class="cls-5" points="12.68 726.38 14.47 729.45 14.47 729.45 16.45 726.23"/><polyline class="cls-7" points="14.45 741.98 16.35 737.57 11.63 738.45"/><polygon class="cls-5" points="14.84 758.28 14.84 758.28 15.54 755.25 12.45 755.59 14.84 758.28"/><polyline class="cls-6" points="12.05 775.96 15.88 777.01 14.64 773.24"/><polygon class="cls-4" points="1.22 18.68 2.71 17.81 9.32 13.96 1.22 9.23 1.22 18.68"/><polygon class="cls-6" points="9.32 4.51 0.97 9.23 1.46 9.34 9.32 13.96 9.32 13.96 9.32 4.51 9.32 4.51"/><polygon class="cls-5" points="9.41 4.87 0.97 0 0.97 9.34 9.41 4.87"/><polygon class="cls-4" points="11.99 157.72 7.15 154.97 7.15 160.24 11.99 157.72"/><polyline class="cls-4" points="1.24 358.29 1.24 367.85 2.89 366.98 10.22 363.07 1.24 358.29"/><polygon class="cls-6" points="10.22 367.85 1.24 372.64 1.24 372.64 10.22 377.42 10.22 377.42 10.22 367.86 10.22 367.85"/><polygon class="cls-7" points="10.91 517.09 1.31 511.98 1.31 522.2 10.91 517.09"/><polygon class="cls-4" points="1.31 532.42 3.08 531.48 10.91 527.31 1.31 522.2 1.31 532.42"/><polygon class="cls-5" points="1.31 522.23 1.31 522.23 10.9 527.34 10.9 527.34 10.91 527.34 10.91 517.12 10.9 517.12 1.31 522.23"/><polygon class="cls-5" points="1.22 677.45 1.22 677.45 10.69 683.16 10.7 683.11 10.7 683.11 10.7 672.88 10.7 672.88 1.22 677.45"/><rect class="cls-3" x="303.45" width="16.46" height="811.62" transform="translate(624.34 811.62) rotate(180)"/><polygon class="cls-4" points="320.62 775.72 319.13 776.59 312.52 780.44 320.62 784.01 320.62 775.72"/><path class="cls-5" d="M308.49,775.61" transform="translate(0.97)"/><polygon class="cls-6" points="312.52 780.44 320.63 775.8 320.63 775.8 312.21 771.74 312.21 771.75 312.52 780.44 312.52 780.44"/><polygon class="cls-7" points="310.57 761.67 319.43 766.4 319.43 756.95 310.57 761.67"/><g class="cls-8"><g class="cls-41"><polygon class="cls-1" points="321.31 737.44 321.33 737.83 321.33 737.83 321.33 737.83 321.31 737.44"/><polygon class="cls-1" points="321.3 737.29 321.31 737.18 321.3 737.29 321.3 737.29"/><line class="cls-42" x1="321.3" y1="737.29" x2="321.31" y2="737.19"/><polygon class="cls-11" points="321.31 737.47 321.3 737.32 321.3 738.11 321.33 737.87 321.31 737.47"/><polyline class="cls-43" points="321.3 737.29 321.3 737.29 321.3 737.29 321.3 737.29 321.3 737.29 321.3 737.29 321.31 737.44 321.33 737.83 321.33 737.83 321.36 737.29"/><polyline class="cls-44" points="321.31 737.18 321.3 737.29 321.3 737.29"/><line class="cls-3" x1="321.36" y1="737.29" x2="321.36" y2="737.29"/><polygon class="cls-5" points="321.39 737.34 321.39 737.34 321.4 737.15 321.39 736.96 321.39 737.34"/><polygon class="cls-14" points="321.3 738.38 321.3 738.38 321.3 738.38 321.3 738.38"/><polygon class="cls-14" points="321.33 737.83 321.33 737.83 321.33 737.83 321.33 737.83"/><polygon class="cls-14" points="321.36 737.29 321.36 737.29 321.36 737.29 321.36 737.29"/><polyline class="cls-45" points="321.3 737.29 321.3 737.29 321.3 737.29"/><polyline class="cls-4" points="321.33 737.83 321.33 737.73 321.36 737.29"/><line class="cls-6" x1="321.3" y1="737.28" x2="321.31" y2="737.18"/><path class="cls-6" d="M320.4,737.24" transform="translate(0.97)"/></g></g><polygon class="cls-4" points="320.85 745 319.22 745.87 311.99 749.73 320.85 754.45 320.85 745"/><polygon class="cls-6" points="312.13 741.02 320.85 736.42 320.85 736.42 311.99 731.39 311.99 731.39 312.13 741.02 312.13 741.02"/><polygon class="cls-7" points="311.94 722.12 320.81 726.85 320.89 717.26 311.94 722.12"/><polygon class="cls-4" points="311.73 712.16 311.73 721.05 320.56 715.47 311.73 712.16"/><polygon class="cls-5" points="320.89 707.23 320.89 707.23 311.75 702.66 311.74 702.71 311.73 702.71 311.73 712.16 311.74 712.16 320.89 707.23"/><polygon class="cls-7" points="312.71 792.28 316 794.03 316 791.53 312.71 792.28"/><polygon class="cls-7" points="311.73 693.88 320.74 698.64 320.85 689.46 311.73 693.88"/><polyline class="cls-6" points="311.64 684.44 311.38 684.44 320.85 689.46 320.85 689.46 320.74 680.52 311.38 684.44"/><polygon class="cls-5" points="320.74 680.52 320.74 680.52 311.64 675.04 311.63 675.1 311.63 675.1 311.63 684.54 311.63 684.54 320.74 680.52"/><polygon class="cls-7" points="306.57 665.39 309.86 667.14 309.86 663.63 306.57 665.39"/><polyline class="cls-4" points="320.67 674.09 320.67 664.65 319.04 665.51 311.8 669.37 320.67 674.09"/><polyline class="cls-5" points="319.72 656.69 319.72 653.41 319.72 653.41 316.64 655.05"/><polygon class="cls-6" points="311.68 667.14 320.55 662.41 320.55 662.41 311.68 657.69 311.68 657.69 311.68 667.14 311.68 667.14"/><polyline class="cls-7" points="320.55 642.97 311.68 647.69 320.55 652.41 320.55 642.97"/><polyline class="cls-6" points="305.79 642.97 310.63 645.54 310.63 640.39"/><polygon class="cls-5" points="320.99 754.28 320.99 754.28 312.13 749.55 312.13 749.56 312.13 749.55 312.13 759 312.13 759 320.99 754.28"/><polygon class="cls-4" points="320.74 698.64 320.74 698.64 311.74 693.92 311.74 693.92 311.73 693.92 311.73 703.37 311.74 703.37 320.74 698.64"/><polygon class="cls-5" points="312.21 771.75 320.62 775.83 320.62 766.17 312.21 771.75"/><polygon class="cls-7" points="311.67 571.28 320.65 576.07 320.65 566.5 311.67 571.28"/><polygon class="cls-4" points="312.26 573.89 312.26 573.89 312.21 579.44 316.84 576.39 312.26 573.89"/><g class="cls-8"><g class="cls-46"><polygon class="cls-1" points="321.75 549.5 321.77 549.9 321.77 549.9 321.77 549.9 321.75 549.5"/><polygon class="cls-1" points="321.75 549.35 321.75 549.24 321.75 549.35 321.75 549.35"/><line class="cls-47" x1="321.75" y1="549.34" x2="321.75" y2="549.24"/><polygon class="cls-11" points="321.75 549.53 321.75 549.38 321.75 550.18 321.78 549.93 321.75 549.53"/><polyline class="cls-48" points="321.75 549.35 321.75 549.35 321.75 549.35 321.75 549.35 321.75 549.35 321.75 549.35 321.75 549.5 321.77 549.9 321.77 549.9 321.81 549.35"/><polyline class="cls-49" points="321.75 549.24 321.75 549.35 321.75 549.35"/><line class="cls-3" x1="321.81" y1="549.34" x2="321.81" y2="549.34"/><polygon class="cls-5" points="321.84 549.4 321.84 549.4 321.85 549.21 321.84 549.02 321.84 549.4"/><polygon class="cls-14" points="321.75 550.45 321.75 550.45 321.75 550.45 321.75 550.45"/><polygon class="cls-14" points="321.77 549.9 321.77 549.9 321.77 549.9 321.77 549.9"/><polygon class="cls-14" points="321.81 549.35 321.81 549.35 321.81 549.35 321.81 549.35"/><polyline class="cls-50" points="321.75 549.35 321.75 549.35 321.75 549.35"/><polyline class="cls-4" points="321.77 549.9 321.78 549.8 321.81 549.35"/><line class="cls-6" x1="321.75" y1="549.34" x2="321.75" y2="549.24"/><path class="cls-6" d="M320.84,549.29" transform="translate(0.97)"/></g></g><polygon class="cls-4" points="320.65 550.69 319 551.56 311.67 555.47 320.65 560.25 320.65 550.69"/><polygon class="cls-4" points="303.77 540.34 312.75 545.12 312.75 535.56 303.77 540.34"/><polygon class="cls-6" points="311.67 555.47 320.65 550.69 320.65 550.68 311.67 545.9 311.67 545.9 311.67 555.47 311.67 555.47"/><polygon class="cls-7" points="311.58 534.26 320.56 539.04 320.65 529.33 311.58 534.26"/><polygon class="cls-5" points="309.29 495.75 309.29 495.75 304.39 498.36 309.29 500.97 309.29 495.75"/><polygon class="cls-4" points="310.96 524.57 311.58 534.26 320.74 529.2 310.96 524.57"/><polyline class="cls-6" points="310.87 524.44 310.87 524.44 320.4 529.07 320.65 529.07 320.65 520.07 310.87 524.44"/><polygon class="cls-5" points="320.65 520.07 320.37 519.5 311.11 514.87 311.1 514.92 311.09 514.92 311.09 524.48 311.1 524.49 320.65 520.07"/><polygon class="cls-7" points="305.91 526.34 309.24 528.12 309.24 524.57 305.91 526.34"/><polygon class="cls-7" points="311.58 505.24 320.56 510.02 320.65 500.31 311.58 505.24"/><polygon class="cls-4" points="311.23 495.49 311.58 505.24 320.65 500.31 311.23 495.49"/><polyline class="cls-6" points="311 495.36 311.23 495.49 320.65 500.31 320.65 500.31 320.61 491.32 311.23 495.49"/><polygon class="cls-5" points="320.61 491.32 320.61 491.32 310.82 485.87 310.81 485.93 310.8 485.93 311.23 495.49 311.23 495.49 320.61 491.32"/><polygon class="cls-7" points="307 472.92 310.33 474.69 310.33 471.15 307 472.92"/><polyline class="cls-4" points="320.61 486.1 320.61 476.54 318.96 477.42 311.63 481.32 320.61 486.1"/><polyline class="cls-5" points="320.3 467.72 320.3 464.4 320.3 464.4 317.18 466.06"/><polygon class="cls-6" points="311.63 477.7 320.61 472.92 320.61 472.92 311.63 468.14 311.63 468.14 311.63 477.7 311.63 477.7"/><polyline class="cls-7" points="320.61 453.84 311.63 458.62 320.61 463.4 320.61 453.84"/><polyline class="cls-6" points="307.99 453.71 312.89 456.32 312.89 451.1"/><polygon class="cls-5" points="320.65 566.5 320.65 566.5 311.68 561.72 311.68 561.72 311.67 561.72 311.67 571.28 311.68 571.28 320.65 566.5"/><polygon class="cls-4" points="320.61 509.96 320.61 509.96 311.63 505.18 311.63 505.18 311.63 505.18 311.11 514.87 311.11 514.87 320.61 509.96"/><polygon class="cls-6" points="311.68 580.85 320.65 587.35 320.65 577.5 311.68 580.85"/><polyline class="cls-6" points="311.17 343.45 310.81 342.4 318.95 345.96 320.69 346.91 320.51 338.5 310.78 342.09"/><polygon class="cls-7" points="312.11 323.61 320.69 328.23 320.51 318.53 312.11 323.61"/><polygon class="cls-4" points="310.91 314.03 312.11 323.61 320.56 318.61 310.91 314.03"/><polyline class="cls-6" points="310.86 313.96 310.61 313.96 320.26 318.53 320.51 318.53 320.51 309.64 310.61 313.96"/><polygon class="cls-4" points="320.69 328.16 320.69 328.16 311.92 323.43 311.91 323.43 311.91 323.43 311.91 332.88 311.91 332.88 320.69 328.16"/><polygon class="cls-5" points="320.56 299.96 317.84 301.33 310.61 305.19 320.47 309.91 320.56 299.96"/><polygon class="cls-5" points="312.76 788.64 320.62 793.67 320.62 784.01 312.76 788.64"/><polygon class="cls-5" points="311.99 731.39 320.85 736.42 320.85 726.76 311.99 731.39"/><polyline class="cls-6" points="314.39 742.25 319.23 744.83 319.23 739.68"/><polyline class="cls-5" points="319.61 713.7 319.61 710.42 319.61 710.42 316.53 712.06"/><line class="cls-7" x1="314.07" y1="720.3" x2="317.35" y2="722.05"/><polyline class="cls-7" points="311.98 781.06 308.69 782.82 311.98 784.57"/><polyline class="cls-6" points="308.96 766.69 313.8 769.26 313.8 764.11"/><polyline class="cls-5" points="312.08 774.42 310.43 771.59 310.43 771.59 308.6 774.56"/><polyline class="cls-6" points="306.51 796.04 310.88 793.92 307.55 791.29"/><polyline class="cls-5" points="311.21 805.6 309.55 802.77 309.55 802.77 307.72 805.74"/><polyline class="cls-7" points="309.8 753.16 306.51 754.91 309.8 756.66"/><polyline class="cls-5" points="313.12 746.3 311.46 743.46 311.46 743.46 309.63 746.43"/><polyline class="cls-6" points="313.35 729.5 318.07 726.72 313.67 724.03"/><polyline class="cls-7" points="308.58 732.85 306.81 736.92 311.18 736.12"/><polyline class="cls-4" points="307.45 721.26 304.7 727.09 311.07 726.12"/><polyline class="cls-5" points="311.18 716.19 309.52 713.36 309.52 713.36 307.69 716.33"/><polyline class="cls-6" points="307.48 703.37 304.97 709.16 311.18 708.01"/><polyline class="cls-5" points="316.2 690.78 313.76 686.91 313.76 686.91 311.36 691.14"/><polyline class="cls-7" points="309.58 695.31 308.56 697.65 311.07 697.18"/><polyline class="cls-6" points="310.92 681.1 304.85 679.41 306.83 685.4"/><polyline class="cls-5" points="320.61 601.92 318.17 598.06 318.16 598.06 315.76 602.28"/><polyline class="cls-5" points="310.64 650.99 308.19 647.12 308.19 647.12 305.79 651.35"/><polygon class="cls-6" points="311.68 647.69 320.55 642.97 320.55 642.97 311.68 638.24 311.68 638.24 311.68 647.69 311.68 647.69"/><polygon class="cls-7" points="311.76 628.84 320.63 633.57 320.71 623.98 311.76 628.84"/><polygon class="cls-4" points="311.07 619.4 311.77 628.84 320.71 623.98 311.07 619.4"/><polygon class="cls-5" points="320.55 615.09 319.83 614.58 311.27 610.71 311.27 610.71 311.3 610.95 311.27 619.5 311.27 619.5 320.55 615.09"/><polygon class="cls-4" points="320.65 606.53 320.65 606.53 311.27 601.27 311.27 601.27 311.27 601.27 311.27 610.71 311.27 610.71 320.65 606.53"/><polygon class="cls-5" points="311.68 638.24 320.55 643.07 320.55 633.42 311.68 638.24"/><polyline class="cls-5" points="319.02 621.14 319.02 617.86 319.02 617.86 315.94 619.5"/><line class="cls-7" x1="314.07" y1="627.65" x2="317.35" y2="629.4"/><polyline class="cls-6" points="312.63 636.85 317.35 634.06 312.95 631.38"/><polygon class="cls-7" points="311.67 592.13 320.65 596.91 320.65 587.35 311.67 592.13"/><polygon class="cls-6" points="312.44 593.63 312.44 593.63 307.54 596.24 312.44 598.85 312.44 593.63"/><polygon class="cls-4" points="320.65 587.35 320.65 587.35 311.68 580.85 311.68 580.85 311.68 580.85 311.67 592.13 311.67 592.13 320.65 587.35"/><polygon class="cls-5" points="311.13 601.44 320.65 606.53 320.65 596.76 311.13 601.44"/><polygon class="cls-5" points="309.61 548.08 309.61 548.08 304.71 550.69 309.61 553.29 309.61 548.08"/><polyline class="cls-6" points="306.44 628.58 311.27 631.16 311.27 626.01"/><polyline class="cls-7" points="309.2 618.71 304.65 621.14 309.2 623.56"/><polyline class="cls-5" points="309.99 610.58 308.33 607.74 308.33 607.74 306.5 610.71"/><polyline class="cls-7" points="308.26 598.13 306.5 602.21 310.86 601.4"/><polygon class="cls-5" points="307.52 582.64 307.52 582.64 305.3 588.6 311.48 587.11 307.52 582.64"/><polygon class="cls-4" points="320.55 417.89 318.92 418.76 311.69 422.61 320.55 427.33 320.55 417.89"/><path class="cls-5" d="M308.25,418.93" transform="translate(0.97)"/><polygon class="cls-6" points="311.69 422.61 320.55 417.89 320.55 417.89 311.69 413.17 311.69 413.17 311.69 422.61 311.69 422.61"/><polygon class="cls-7" points="311.69 402.02 320.55 406.75 320.55 397.3 311.69 402.02"/><g class="cls-8"><g class="cls-51"><polygon class="cls-1" points="321.07 380.76 321.09 381.15 321.09 381.15 321.09 381.15 321.07 380.76"/><polygon class="cls-1" points="321.06 380.61 321.06 380.51 321.06 380.61 321.06 380.61"/><line class="cls-52" x1="321.06" y1="380.61" x2="321.06" y2="380.51"/><polygon class="cls-11" points="321.07 380.79 321.06 380.64 321.06 381.43 321.09 381.19 321.07 380.79"/><polyline class="cls-53" points="321.06 380.61 321.06 380.61 321.06 380.61 321.06 380.61 321.06 380.61 321.06 380.61 321.07 380.76 321.09 381.15 321.09 381.15 321.12 380.61"/><polyline class="cls-54" points="321.06 380.51 321.06 380.61 321.06 380.61"/><line class="cls-3" x1="321.12" y1="380.61" x2="321.12" y2="380.61"/><polygon class="cls-5" points="321.15 380.66 321.15 380.66 321.16 380.47 321.15 380.28 321.15 380.66"/><polygon class="cls-14" points="321.06 381.7 321.06 381.7 321.06 381.7 321.06 381.7"/><polygon class="cls-14" points="321.09 381.15 321.09 381.15 321.09 381.15 321.09 381.15"/><polygon class="cls-14" points="321.12 380.61 321.12 380.61 321.12 380.61 321.12 380.61"/><polyline class="cls-55" points="321.06 380.61 321.06 380.61 321.06 380.61"/><polyline class="cls-4" points="321.09 381.15 321.09 381.05 321.12 380.61"/><line class="cls-6" x1="321.06" y1="380.6" x2="321.06" y2="380.5"/><path class="cls-6" d="M320.16,380.56" transform="translate(0.97)"/></g></g><polygon class="cls-4" points="320.55 387.85 318.92 388.72 311.69 392.58 320.55 397.3 320.55 387.85"/><polygon class="cls-6" points="311.87 383.92 320.74 379.19 320.74 379.19 311.69 374.16 311.69 374.16 311.87 383.92 311.87 383.92"/><polygon class="cls-7" points="311.74 364.82 320.6 369.54 320.69 359.95 311.74 364.82"/><polygon class="cls-4" points="312.22 355.38 311.92 364.82 320.87 359.95 312.22 355.38"/><polygon class="cls-5" points="320.69 346.91 319.93 346.4 310.79 341.83 310.78 341.88 310.77 341.88 310.77 351.33 310.78 351.33 320.69 346.91"/><polygon class="cls-7" points="307.65 431.66 310.94 433.41 310.94 430.91 307.65 431.66"/><polygon class="cls-5" points="320.55 397.3 320.55 397.3 311.69 392.58 311.69 392.58 311.69 392.58 311.69 402.02 311.69 402.02 320.55 397.3"/><polygon class="cls-5" points="311.69 411.37 320.55 416.4 320.55 406.75 311.69 411.37"/><polygon class="cls-5" points="311.69 431.96 320.55 436.99 320.55 427.33 311.69 431.96"/><polygon class="cls-5" points="311.69 374.16 320.55 379.19 320.55 369.54 311.69 374.16"/><polyline class="cls-6" points="313.05 385.58 317.89 388.15 317.89 383"/><polyline class="cls-5" points="319.43 356.27 319.43 352.99 319.43 352.99 316.35 354.63"/><line class="cls-7" x1="313.82" y1="363.62" x2="317.11" y2="365.37"/><polyline class="cls-7" points="313.27 424.88 309.99 426.64 313.27 428.39"/><polyline class="cls-6" points="308.98 406.75 313.82 409.32 313.82 404.17"/><polyline class="cls-5" points="309.22 419.75 307.56 416.91 307.56 416.91 305.74 419.88"/><polyline class="cls-6" points="306.27 441.16 310.64 439.04 307.3 436.41"/><polyline class="cls-5" points="310.97 448.92 309.31 446.09 309.31 446.09 307.48 449.06"/><polyline class="cls-7" points="310.1 397.3 306.81 399.05 310.1 400.8"/><polyline class="cls-5" points="309.22 392.82 307.56 389.99 307.56 389.99 305.74 392.96"/><polyline class="cls-6" points="312.39 372.07 317.11 369.29 312.71 366.6"/><polyline class="cls-7" points="307.22 377.7 305.46 381.77 309.82 380.97"/><polyline class="cls-4" points="308.02 365.37 305.27 371.2 311.64 370.23"/><polyline class="cls-5" points="309.98 361.3 309.32 358.47 309.32 358.47 306.49 361.44"/><polyline class="cls-6" points="308.02 349.51 306.68 353.23 310.6 352.75"/><polyline class="cls-6" points="307.12 506.9 305.5 512.05 310.87 511.52"/><polyline class="cls-5" points="312.32 485.09 310.12 481.32 310.12 481.32 307.87 485.16"/><polygon class="cls-7" points="307.56 491.65 309.77 492.82 309.77 490.47 307.56 491.65"/><polyline class="cls-6" points="310.91 565.25 304.83 563.56 306.82 569.55"/><polyline class="cls-4" points="309.08 459.78 306.33 465.61 312.7 464.64"/><polyline class="cls-7" points="313.03 333.24 312.28 339.07 318.65 338.1"/><polyline class="cls-5" points="309.63 344.14 307.97 341.31 307.97 341.31 306.14 344.28"/><polyline class="cls-6" points="305.47 332.88 310.3 335.46 310.3 330.3"/><polyline class="cls-5" points="315.31 311.38 311.27 306.18 311.27 306.18 308.9 311.64"/><polyline class="cls-7" points="306.54 326.2 306.88 329.46 309.4 327.36"/><polyline class="cls-6" points="309.36 320.48 306 322.27 309.36 324.06"/><polyline class="cls-5" points="306.87 312.64 305.04 316.27 305.04 316.27 309.36 316.18"/><polyline class="cls-6" points="305.03 303.86 309.75 301.07 305.35 298.39"/><polygon class="cls-4" points="320.53 258.71 318.77 259.65 310.94 263.82 320.53 268.94 320.53 258.71"/><path class="cls-5" d="M307.26,263.7" transform="translate(0.97)"/><polygon class="cls-6" points="310.94 263.83 320.54 258.71 320.54 258.71 310.94 253.6 310.94 253.6 310.94 263.82 310.94 263.83"/><polygon class="cls-7" points="310.94 243.38 320.54 248.49 320.54 238.27 310.94 243.38"/><g class="cls-8"><g class="cls-56"><polygon class="cls-1" points="321.05 222.39 321.07 222.82 321.07 222.82 321.07 222.82 321.05 222.39"/><polygon class="cls-1" points="321.04 222.23 321.05 222.12 321.04 222.23 321.04 222.23"/><line class="cls-57" x1="321.04" y1="222.23" x2="321.05" y2="222.12"/><polygon class="cls-11" points="321.05 222.43 321.04 222.26 321.04 223.12 321.07 222.86 321.05 222.43"/><polyline class="cls-58" points="321.04 222.23 321.04 222.23 321.04 222.23 321.04 222.23 321.04 222.23 321.04 222.23 321.05 222.39 321.07 222.82 321.07 222.82 321.1 222.23"/><polyline class="cls-59" points="321.05 222.12 321.04 222.23 321.04 222.23"/><line class="cls-3" x1="321.1" y1="222.23" x2="321.1" y2="222.23"/><polygon class="cls-5" points="321.14 222.29 321.14 222.29 321.15 222.08 321.14 221.88 321.14 222.29"/><polygon class="cls-14" points="321.04 223.41 321.04 223.41 321.04 223.41 321.04 223.41"/><polygon class="cls-14" points="321.07 222.82 321.07 222.82 321.07 222.82 321.07 222.82"/><polygon class="cls-14" points="321.1 222.23 321.1 222.23 321.1 222.23 321.1 222.23"/><polyline class="cls-60" points="321.04 222.23 321.04 222.23 321.04 222.23"/><polyline class="cls-4" points="321.07 222.82 321.08 222.71 321.1 222.23"/><line class="cls-6" x1="321.04" y1="222.22" x2="321.05" y2="222.11"/><path class="cls-6" d="M320.14,222.17" transform="translate(0.97)"/></g></g><polygon class="cls-4" points="320.53 228.04 318.77 228.98 310.94 233.15 320.53 238.27 320.53 228.04"/><polygon class="cls-6" points="310.94 226.03 320.54 220.92 320.54 220.92 310.94 215.48 310.94 215.48 310.94 226.03 310.94 226.03"/><polygon class="cls-7" points="311.07 205.36 320.66 210.47 320.76 200.1 311.07 205.36"/><polygon class="cls-4" points="310.29 195.07 311.05 205.29 320.74 200.02 310.29 195.07"/><polygon class="cls-5" points="320.76 190.08 320.76 190.08 310.38 184.81 310.37 184.87 310.37 184.87 310.37 195.09 310.37 195.09 320.76 190.08"/><polygon class="cls-7" points="307.97 278.43 311.53 280.33 311.53 277.62 307.97 278.43"/><polygon class="cls-7" points="310.36 174.59 320.63 179.7 320.74 169.32 310.36 174.59"/><polyline class="cls-6" points="309.88 164.59 309.6 164.59 320.45 169.54 320.74 169.54 320.74 159.92 309.6 164.59"/><polygon class="cls-5" points="320.92 159.95 320.09 159.4 310.19 154.45 310.18 154.51 310.18 154.51 309.6 164.59 309.6 164.59 320.92 159.95"/><polygon class="cls-7" points="305.45 150.71 309.01 152.6 309.01 148.81 305.45 150.71"/><polyline class="cls-4" points="320.74 154.45 320.74 144.23 318.98 145.17 311.14 149.34 320.74 154.45"/><polyline class="cls-5" points="319.06 140.83 319.06 138.76 319.06 138.76 317.37 139.8"/><polygon class="cls-6" points="311.14 149.34 320.74 144.23 320.74 144.23 311.14 139.12 311.14 139.12 311.14 149.34 311.14 149.34"/><polyline class="cls-7" points="320.68 124.25 311.16 128.84 320.68 134.47 320.68 124.25"/><polyline class="cls-6" points="305.16 117.72 310.39 120.51 310.39 114.93"/><polygon class="cls-5" points="320.54 238.27 320.54 238.26 310.94 233.15 310.94 233.16 310.94 233.15 310.94 243.38 310.94 243.38 320.54 238.27"/><polygon class="cls-4" points="320.74 179.52 320.74 179.52 310.36 174.59 310.36 174.59 310.36 174.59 310.36 184.81 310.36 184.81 320.74 179.52"/><polygon class="cls-5" points="310.94 253.6 320.54 258.6 320.54 248.16 310.94 253.6"/><polygon class="cls-7" points="311.21 42.57 320.93 47.75 320.93 37.4 311.21 42.57"/><polygon class="cls-4" points="311.98 45.09 311.98 45.09 311.93 51.1 316.94 47.79 311.98 45.09"/><g class="cls-8"><g class="cls-61"><polygon class="cls-1" points="321.53 19 321.56 19.43 321.56 19.43 321.56 19.43 321.53 19"/><polygon class="cls-1" points="321.52 18.83 321.53 18.72 321.52 18.83 321.52 18.83"/><line class="cls-62" x1="321.52" y1="18.83" x2="321.53" y2="18.72"/><polygon class="cls-11" points="321.53 19.03 321.52 18.86 321.52 19.73 321.56 19.46 321.53 19.03"/><polyline class="cls-63" points="321.52 18.83 321.52 18.83 321.52 18.83 321.52 18.83 321.52 18.83 321.52 18.83 321.53 19 321.56 19.43 321.56 19.43 321.59 18.83"/><polyline class="cls-64" points="321.53 18.72 321.52 18.83 321.52 18.83"/><line class="cls-3" x1="321.59" y1="18.83" x2="321.59" y2="18.83"/><polygon class="cls-5" points="321.62 18.89 321.62 18.89 321.63 18.68 321.62 18.47 321.62 18.89"/><polygon class="cls-14" points="321.52 20.03 321.52 20.03 321.52 20.03 321.52 20.03"/><polygon class="cls-14" points="321.56 19.43 321.56 19.43 321.56 19.43 321.56 19.43"/><polygon class="cls-14" points="321.59 18.83 321.59 18.83 321.59 18.83 321.59 18.83"/><polyline class="cls-65" points="321.52 18.83 321.52 18.83 321.52 18.83"/><polyline class="cls-4" points="321.56 19.43 321.56 19.32 321.59 18.83"/><line class="cls-6" x1="321.52" y1="18.82" x2="321.53" y2="18.71"/><path class="cls-6" d="M320.63,18.77" transform="translate(0.97)"/></g></g><polygon class="cls-4" points="320.93 19.9 319.14 20.85 311.21 25.08 320.93 30.25 320.93 19.9"/><polygon class="cls-4" points="311.15 11.4 320.87 16.58 320.87 6.22 311.15 11.4"/><polygon class="cls-6" points="311.21 25.08 320.93 19.9 320.93 19.9 311.21 14.72 311.21 14.72 311.21 25.08 311.21 25.08"/><polygon class="cls-5" points="310.92 0 320.98 6.7 320.87 0 310.92 0"/><polygon class="cls-5" points="320.93 37.4 320.93 37.4 311.21 32.22 311.21 32.22 311.21 32.22 311.21 42.57 311.21 42.57 320.93 37.4"/><polygon class="cls-6" points="311.36 52.7 320.91 59.7 320.86 47.75 311.36 52.7"/><polygon class="cls-5" points="310.94 274.13 320.54 279.58 320.54 269.13 310.94 274.13"/><polygon class="cls-5" points="310.94 215.48 320.54 220.92 320.54 210.47 310.94 215.48"/><polyline class="cls-6" points="312.77 226.78 316.75 228.91 316.75 224.64"/><polyline class="cls-5" points="319.21 197.35 319.21 193.8 319.21 193.8 315.88 195.57"/><line class="cls-7" x1="313.21" y1="203.84" x2="316.77" y2="205.74"/><polyline class="cls-7" points="310.96 269.61 307.4 271.5 310.96 273.4"/><polyline class="cls-6" points="307.97 248.8 313.2 251.59 313.2 246.01"/><polyline class="cls-5" points="309.16 267.52 307.37 264.45 307.37 264.45 305.38 267.67"/><polyline class="cls-6" points="305.38 287.87 310.12 285.57 306.51 282.73"/><polyline class="cls-5" points="310.12 296.16 308.32 293.1 308.32 293.1 306.34 296.31"/><polyline class="cls-7" points="309.75 240.39 306.19 242.29 309.75 244.18"/><polyline class="cls-5" points="310.3 231.98 308.51 228.91 308.51 228.91 306.53 232.13"/><polyline class="cls-6" points="312.44 213.21 317.54 210.2 312.78 207.29"/><polyline class="cls-7" points="307.52 216.72 305.61 221.13 310.33 220.25"/><polyline class="cls-4" points="306.79 205.74 305.69 210.65 310.71 211"/><polyline class="cls-5" points="309.86 201.01 308.06 197.94 308.06 197.94 306.08 201.16"/><polyline class="cls-6" points="307.13 187.9 306.06 190.3 308.64 189.8"/><polyline class="cls-5" points="312.9 172.23 310.26 168.05 310.26 168.04 307.65 172.62"/><polyline class="cls-7" points="308.35 176.8 307.26 179.33 309.97 178.83"/><polyline class="cls-6" points="308.03 161.59 305.82 161.2 306.32 163.39"/><polyline class="cls-5" points="320.29 75.73 317.65 71.55 317.65 71.55 315.04 76.12"/><polyline class="cls-5" points="309.75 133.23 307.71 130 307.71 130 305.39 133.73"/><polygon class="cls-6" points="311.14 129.36 320.74 124.25 320.74 124.25 311.14 119.14 311.14 119.14 311.14 129.36 311.14 129.36"/><polygon class="cls-7" points="310.94 104.59 320.53 109.7 320.62 99.33 310.94 104.59"/><polygon class="cls-4" points="310.18 94.37 310.94 104.58 320.62 99.32 310.18 94.37"/><polygon class="cls-5" points="320.77 89.98 319.94 89.43 310.69 85.24 310.69 85.24 310.69 85.24 310.18 94.37 310.18 94.37 320.77 89.98"/><polygon class="cls-4" points="320.93 80.31 321.44 80.13 310.69 75.02 310.69 75.02 310.69 75.02 310.69 85.24 310.69 85.25 320.93 80.31"/><polygon class="cls-5" points="311.09 114.71 320.68 120.15 320.68 109.7 311.09 114.71"/><polyline class="cls-5" points="320.24 96.43 320.24 92.87 320.24 92.87 316.9 94.65"/><line class="cls-7" x1="313.21" y1="103.57" x2="316.77" y2="105.46"/><polyline class="cls-6" points="312.44 113.53 317.55 110.51 312.78 107.61"/><polygon class="cls-7" points="311.21 65.08 320.93 70.25 320.93 59.9 311.21 65.08"/><polygon class="cls-6" points="314.1 66.75 314.1 66.75 308.8 69.58 314.1 72.4 314.1 66.75"/><polygon class="cls-4" points="320.93 59.9 320.91 59.7 311.56 52.7 311.56 52.7 311.56 52.7 311.56 65.13 311.56 65.13 320.93 59.9"/><polygon class="cls-5" points="310.63 74.8 320.93 80.31 320.93 69.73 310.63 74.8"/><polygon class="cls-5" points="311.3 26.79 311.3 26.79 308.29 28.65 311.3 30.5 311.3 26.79"/><polyline class="cls-4" points="304.52 104.82 309.75 107.61 309.75 102.03"/><polyline class="cls-7" points="308.97 93.16 305.3 94.76 308.97 96.36"/><polyline class="cls-5" points="309.17 85.62 307.38 82.55 307.38 82.55 305.4 85.77"/><polyline class="cls-7" points="307.4 70.02 305.5 74.43 310.21 73.56"/><polygon class="cls-5" points="307.01 53.72 307.01 53.72 306.31 56.75 309.4 56.41 307.01 53.72"/><polyline class="cls-6" points="309.8 36.04 305.97 34.99 307.2 38.76"/><polygon class="cls-4" points="320.62 793.32 319.13 794.19 312.52 798.04 320.62 802.77 320.62 793.32"/><polygon class="cls-6" points="312.52 807.49 320.87 802.77 320.39 802.66 312.52 798.04 312.52 798.04 312.52 807.49 312.52 807.49"/><polygon class="cls-5" points="312.44 807.13 320.87 812 320.87 802.66 312.44 807.13"/><polygon class="cls-4" points="309.86 654.28 314.7 657.03 314.7 651.76 309.86 654.28"/><polyline class="cls-4" points="320.61 453.71 320.61 444.15 318.96 445.02 311.63 448.93 320.61 453.71"/><polygon class="cls-6" points="311.63 444.15 320.61 439.36 320.61 439.36 311.63 434.58 311.63 434.58 311.63 444.14 311.63 444.15"/><polygon class="cls-7" points="310.94 294.91 320.54 300.02 320.54 289.8 310.94 294.91"/><polygon class="cls-4" points="320.53 279.58 318.77 280.52 310.94 284.69 320.53 289.8 320.53 279.58"/><polygon class="cls-5" points="320.54 289.77 320.54 289.77 310.94 284.66 310.94 284.66 310.94 284.66 310.94 294.88 310.94 294.88 320.54 289.77"/><polygon class="cls-5" points="320.62 134.55 320.62 134.55 311.16 128.84 311.14 128.9 311.14 128.89 311.14 139.12 311.14 139.12 320.62 134.55"/></g></g></svg>