<svg xmlns="http://www.w3.org/2000/svg" xmlns:xlink="http://www.w3.org/1999/xlink" viewBox="0 0 1985.57 273.77"><defs><style>.cls-1{fill:none;}.cls-2{isolation:isolate;}.cls-3{fill:#fff;}.cls-26,.cls-4{fill:#7ba3bb;}.cls-5{opacity:0.92;}.cls-6{clip-path:url(#clip-path);}.cls-7{fill:#bb4242;}.cls-12,.cls-22,.cls-32,.cls-33,.cls-34,.cls-41,.cls-8,.cls-9{mix-blend-mode:multiply;}.cls-22,.cls-32,.cls-33,.cls-41,.cls-8,.cls-9{opacity:0.5;}.cls-8{fill:url(#linear-gradient);}.cls-9{fill:url(#linear-gradient-2);}.cls-10{fill:#7fa3b9;}.cls-11{fill:#528bb9;}.cls-12,.cls-34{opacity:0.3;}.cls-12{fill:url(#linear-gradient-3);}.cls-13{fill:#3e849d;}.cls-14{fill:#1f3235;}.cls-15{fill:#005d7f;}.cls-16{fill:url(#linear-gradient-4);}.cls-17{fill:url(#linear-gradient-5);}.cls-18{fill:url(#linear-gradient-6);}.cls-19{fill:url(#linear-gradient-7);}.cls-20{fill:url(#linear-gradient-9);}.cls-21{fill:url(#linear-gradient-10);}.cls-22{fill:url(#linear-gradient-11);}.cls-23{fill:#00181e;}.cls-24{fill:url(#linear-gradient-12);}.cls-25{fill:url(#linear-gradient-13);}.cls-26{font-size:51px;font-family:Nuvel-Regular, Nuvel;}.cls-27{letter-spacing:-0.11em;}.cls-28{letter-spacing:-0.02em;}.cls-29{letter-spacing:-0.02em;}.cls-30{font-family:MyriadPro-Regular, Myriad Pro;}.cls-31{clip-path:url(#clip-path-2);}.cls-32{fill:url(#linear-gradient-14);}.cls-33{fill:url(#linear-gradient-15);}.cls-34{fill:url(#linear-gradient-16);}.cls-35{fill:url(#linear-gradient-17);}.cls-36{fill:url(#linear-gradient-18);}.cls-37{fill:url(#linear-gradient-19);}.cls-38{fill:url(#linear-gradient-20);}.cls-39{fill:url(#linear-gradient-22);}.cls-40{fill:url(#linear-gradient-23);}.cls-41{fill:url(#linear-gradient-24);}.cls-42{fill:url(#linear-gradient-25);}.cls-43{fill:url(#linear-gradient-26);}</style><clipPath id="clip-path" transform="translate(35.29 42)"><rect class="cls-1" y="0.3" width="209" height="134.9"/></clipPath><linearGradient id="linear-gradient" x1="5192.59" y1="-5259.8" x2="5237.74" y2="-5227.45" gradientTransform="translate(-5193.57 -5123.46) rotate(90)" gradientUnits="userSpaceOnUse"><stop offset="0.37" stop-color="#00181e"/><stop offset="0.38" stop-color="#092026"/><stop offset="0.4" stop-color="#374a4f"/><stop offset="0.43" stop-color="#627175"/><stop offset="0.46" stop-color="#889396"/><stop offset="0.5" stop-color="#a8b1b3"/><stop offset="0.53" stop-color="#c4c9cb"/><stop offset="0.57" stop-color="#daddde"/><stop offset="0.62" stop-color="#ebeced"/><stop offset="0.68" stop-color="#f6f7f7"/><stop offset="0.77" stop-color="#fdfdfd"/><stop offset="1" stop-color="#fff"/></linearGradient><linearGradient id="linear-gradient-2" x1="-548.65" y1="-212.73" x2="-530.53" y2="-245.34" gradientTransform="translate(663.28 277.57)" xlink:href="#linear-gradient"/><linearGradient id="linear-gradient-3" x1="5152.1" y1="-5408.18" x2="5178.85" y2="-5381.44" gradientTransform="translate(-5193.57 -5123.46) rotate(90)" gradientUnits="userSpaceOnUse"><stop offset="0.4" stop-color="#fff"/><stop offset="0.56" stop-color="#fdfdfd"/><stop offset="0.64" stop-color="#f5f5f5"/><stop offset="0.71" stop-color="#e7e7e7"/><stop offset="0.77" stop-color="#d4d4d4"/><stop offset="0.82" stop-color="#bbb"/><stop offset="0.87" stop-color="#9d9d9c"/><stop offset="0.91" stop-color="#787877"/><stop offset="0.95" stop-color="#4e4e4d"/><stop offset="0.99" stop-color="#20201e"/><stop offset="1" stop-color="#161614"/></linearGradient><linearGradient id="linear-gradient-4" x1="5133.51" y1="8933.47" x2="5160.25" y2="8960.22" gradientTransform="matrix(0, 1, 1, 0, -8920.1, -5123.46)" gradientUnits="userSpaceOnUse"><stop offset="0" stop-color="#00181e"/><stop offset="0.14" stop-color="#00181e"/><stop offset="1" stop-color="#00181e"/></linearGradient><linearGradient id="linear-gradient-5" x1="5146.88" y1="8989.9" x2="5146.88" y2="8989.06" xlink:href="#linear-gradient-4"/><linearGradient id="linear-gradient-6" x1="5137.59" y1="8989.89" x2="5137.59" y2="8920.11" xlink:href="#linear-gradient-4"/><linearGradient id="linear-gradient-7" x1="5128.29" y1="8955" x2="5128.29" y2="8955" xlink:href="#linear-gradient-4"/><linearGradient id="linear-gradient-9" x1="5127.98" y1="8954.69" x2="5128.6" y2="8955.31" xlink:href="#linear-gradient-4"/><linearGradient id="linear-gradient-10" x1="5128.29" y1="8955.63" x2="5128.29" y2="8954.37" xlink:href="#linear-gradient-4"/><linearGradient id="linear-gradient-11" x1="-642.27" y1="-156.01" x2="-630.03" y2="-176.18" gradientTransform="translate(663.28 277.57)" xlink:href="#linear-gradient"/><linearGradient id="linear-gradient-12" x1="5184.06" y1="8955" x2="5184.06" y2="8920.1" gradientTransform="matrix(0, 1, 1, 0, -8920.1, -5123.46)" gradientUnits="userSpaceOnUse"><stop offset="0" stop-color="#00181e"/><stop offset="0.08" stop-color="#0b2126"/><stop offset="0.23" stop-color="#162b2f"/><stop offset="0.43" stop-color="#1d3034"/><stop offset="1" stop-color="#1f3235"/></linearGradient><linearGradient id="linear-gradient-13" x1="5221.26" y1="8955" x2="5221.26" y2="8920.1" xlink:href="#linear-gradient-12"/><clipPath id="clip-path-2" transform="translate(35.29 42)"><rect class="cls-1" x="1737.22" y="74" width="182.29" height="123" transform="translate(3656.72 271) rotate(-180)"/></clipPath><linearGradient id="linear-gradient-14" x1="6288.1" y1="-5973.94" x2="6328.25" y2="-5945.18" gradientTransform="translate(7901.71 6501.92) rotate(-90)" xlink:href="#linear-gradient"/><linearGradient id="linear-gradient-15" x1="159.25" y1="881.93" x2="175.43" y2="852.82" gradientTransform="translate(2044.86 1100.9) rotate(180)" xlink:href="#linear-gradient"/><linearGradient id="linear-gradient-16" x1="6250.82" y1="-6103.87" x2="6274.51" y2="-6080.18" gradientTransform="translate(7901.71 6501.92) rotate(-90)" xlink:href="#linear-gradient-3"/><linearGradient id="linear-gradient-17" x1="6233.86" y1="9654.51" x2="6257.56" y2="9678.21" gradientTransform="matrix(0, -1, -1, 0, 11628.24, 6501.92)" xlink:href="#linear-gradient-4"/><linearGradient id="linear-gradient-18" x1="6245.71" y1="9703.54" x2="6245.71" y2="9702.81" gradientTransform="matrix(0, -1, -1, 0, 11628.24, 6501.92)" xlink:href="#linear-gradient-4"/><linearGradient id="linear-gradient-19" x1="6237.24" y1="9703.54" x2="6237.24" y2="9642.67" gradientTransform="matrix(0, -1, -1, 0, 11628.24, 6501.92)" xlink:href="#linear-gradient-4"/><linearGradient id="linear-gradient-20" x1="6228.76" y1="9673.1" x2="6228.76" y2="9673.1" gradientTransform="matrix(0, -1, -1, 0, 11628.24, 6501.92)" xlink:href="#linear-gradient-4"/><linearGradient id="linear-gradient-22" x1="6228.49" y1="9672.83" x2="6229.03" y2="9673.38" gradientTransform="matrix(0, -1, -1, 0, 11628.24, 6501.92)" xlink:href="#linear-gradient-4"/><linearGradient id="linear-gradient-23" x1="6228.76" y1="9673.65" x2="6228.76" y2="9672.56" gradientTransform="matrix(0, -1, -1, 0, 11628.24, 6501.92)" xlink:href="#linear-gradient-4"/><linearGradient id="linear-gradient-24" x1="77.03" y1="933.07" x2="87.93" y2="915.11" gradientTransform="translate(2044.86 1100.9) rotate(180)" xlink:href="#linear-gradient"/><linearGradient id="linear-gradient-25" x1="6279.61" y1="9673.1" x2="6279.61" y2="9642.67" gradientTransform="matrix(0, -1, -1, 0, 11628.24, 6501.92)" xlink:href="#linear-gradient-12"/><linearGradient id="linear-gradient-26" x1="6313.53" y1="9673.1" x2="6313.53" y2="9642.67" gradientTransform="matrix(0, -1, -1, 0, 11628.24, 6501.92)" xlink:href="#linear-gradient-12"/></defs><g class="cls-2"><g id="Calque_1" data-name="Calque 1"><rect class="cls-3" x="35.29" y="42.11" width="1920" height="102.59"/><rect class="cls-4" x="35.29" y="144.89" width="1920" height="93.91"/><g class="cls-5"><g class="cls-6"><polygon class="cls-1" points="104.7 42.01 104.7 4.83 104.69 4.83 104.69 4.83 104.7 4.83 104.7 42.01 104.69 42.02 69.8 60.61 69.8 60.61 104.69 42.02 104.7 42.01"/><polygon class="cls-1" points="139.59 23.42 139.59 23.42 174.49 4.83 174.49 4.83 174.49 42.02 174.49 42.02 174.49 42.02 174.49 79.2 174.49 79.2 174.49 79.2 174.49 42.02 174.49 42.02 174.49 42.02 174.49 4.83 174.49 4.83 139.59 23.42"/><polygon class="cls-1" points="69.8 23.42 104.69 4.83 104.69 4.83 69.8 23.42"/><polygon class="cls-1" points="44.65 121.58 69.8 134.98 69.8 134.98 69.8 134.98 44.65 121.58"/><polygon class="cls-1" points="0 97.79 0 97.79 0 97.79 0 97.79"/><polygon class="cls-1" points="34.9 116.39 41.31 112.97 34.9 116.39 34.9 116.39"/><polygon class="cls-7" points="69.8 60.61 34.9 79.2 34.9 79.2 69.8 97.8 69.8 97.8 69.8 97.8 69.8 97.8 69.8 60.61 69.8 60.61"/><polygon class="cls-8" points="34.9 116.39 41.31 112.97 69.8 97.8 34.9 79.21 34.9 116.39"/><polygon class="cls-9" points="139.59 23.42 139.59 23.42 104.7 42.01 104.7 42.02 139.59 60.61 139.59 60.61 139.59 60.61 139.59 23.42 139.59 23.42"/><polygon class="cls-10" points="104.7 79.2 139.59 60.61 104.7 42.02 104.7 79.2"/><polygon class="cls-11" points="104.69 42.02 69.8 60.61 69.8 60.61 104.69 79.2 104.7 79.2 104.7 42.02 104.69 42.02"/><polygon class="cls-11" points="174.51 41.79 139.61 60.38 139.61 60.39 174.51 78.98 174.51 78.98 174.51 41.8 174.51 41.79"/><polygon class="cls-10" points="209.39 60.61 174.49 42.02 174.49 79.2 209.39 60.61"/><polygon class="cls-12" points="174.49 42.02 174.49 42.02 209.39 60.61 209.39 60.61 209.39 23.42 209.39 23.42 174.49 42.02"/><polygon class="cls-13" points="244.28 42.02 209.39 23.42 209.39 60.61 244.28 42.02"/><polygon class="cls-11" points="69.8 60.61 69.8 23.43 69.8 23.43 69.8 23.42 69.8 23.42 69.8 23.42 34.9 42.01 34.9 42.02 69.8 60.61 69.8 60.61 69.8 60.61"/><polygon class="cls-10" points="104.7 42.01 104.7 4.83 104.69 4.83 69.8 23.42 69.8 23.43 69.8 23.43 69.8 60.61 104.69 42.02 104.7 42.01"/><polygon class="cls-14" points="104.7 42.01 139.59 23.42 104.7 4.83 104.7 42.01"/><polygon class="cls-15" points="35.29 4.16 35.29 41.35 70.18 22.75 35.29 4.16"/><polygon class="cls-16" points="34.9 4.83 34.9 4.83 34.9 4.83 34.9 4.83 34.9 4.83 0 23.42 0 23.43 34.9 42.02 34.9 42.01 34.9 4.83 34.9 4.83"/><rect class="cls-14" x="69.8" y="23.42"/><rect class="cls-17" x="69.8" y="23.42"/><rect class="cls-15" x="52.35" y="-5.64" height="39.54"/><rect class="cls-18" x="52.35" y="-5.64" height="39.54"/><rect class="cls-19" x="34.9" y="4.83"/><rect class="cls-19" x="34.9" y="4.83"/><rect class="cls-20" x="34.9" y="4.83"/><rect class="cls-21" x="34.9" y="4.83"/><polygon class="cls-13" points="174.49 4.83 174.49 4.83 139.59 23.42 139.59 23.42 139.59 23.42 139.59 23.42 139.59 23.42 139.59 60.61 174.49 42.02 174.49 42.02 174.49 4.83"/><polygon class="cls-15" points="209.39 23.42 174.49 4.83 174.49 42.02 209.39 23.42"/><polygon class="cls-15" points="174.49 79.2 174.49 79.2 209.39 97.8 209.39 97.8 209.39 60.61 209.39 60.61 174.49 79.2"/><polygon class="cls-7" points="45.03 122.74 35.29 117.55 35.67 144.32 70.18 136.14 45.03 122.74"/><polygon class="cls-22" points="69.8 134.98 69.8 134.98 104.69 116.39 69.8 97.8 69.8 97.8 69.8 97.8 69.8 97.8 69.8 97.8 69.8 97.8 69.8 97.8 41.31 112.97 34.9 116.39 34.9 116.39 34.9 79.2 34.9 79.2 69.8 60.61 34.9 42.02 34.9 42.01 34.9 42.02 0 23.43 0 60.61 0 60.61 0 60.61 0 60.61 34.9 79.2 0.01 97.79 34.9 116.39 34.89 116.39 34.9 116.39 34.9 116.39 34.9 116.39 34.9 116.39 44.65 121.58 69.8 134.98"/><polygon class="cls-3" points="69.8 97.8 69.8 97.8 104.69 116.39 104.7 116.39 104.7 79.2 104.69 79.2 69.8 97.8"/><polygon class="cls-23" points="0 97.8 0 97.8 0 97.8 0 97.8"/><polygon class="cls-23" points="104.7 42.02 104.7 42.01 104.69 42.02 104.7 42.02"/><polygon class="cls-23" points="69.8 60.61 69.8 60.61 69.8 60.61 69.8 60.61"/><polygon class="cls-23" points="0 23.42 0 23.43 0 23.42 0 23.42"/><polygon class="cls-23" points="34.9 4.83 34.9 4.83 34.9 4.83 34.9 4.83 34.9 4.83 34.9 4.83"/><polygon class="cls-23" points="209.39 23.42 209.39 23.42 209.39 23.42 209.39 23.42"/><polygon class="cls-7" points="141.68 118.33 141.68 118.33 153.8 111.87 141.68 105.41 141.68 118.33"/><polygon class="cls-11" points="213.34 98.2 213.34 98.2 232.38 88.06 213.34 77.91 213.34 98.2"/><rect class="cls-23" x="69.8" y="23.42"/><polygon class="cls-23" points="209.39 97.8 209.39 97.8 209.39 97.8 209.39 97.8"/><polygon class="cls-23" points="174.49 42.02 174.49 42.02 174.49 42.02 174.49 42.02"/><polygon class="cls-23" points="34.9 153.58 34.9 153.58 34.9 153.57 34.9 153.58"/><polygon class="cls-23" points="244.29 42.02 244.28 42.02 244.29 42.02 244.29 42.02"/><polygon class="cls-23" points="69.8 134.99 69.8 134.98 69.8 134.98 69.8 134.99"/><polygon class="cls-23" points="209.39 60.61 209.39 60.61 209.39 60.61 209.39 60.61"/><polygon class="cls-23" points="104.7 116.39 104.7 116.39 104.69 116.39 104.7 116.39"/><polygon class="cls-7" points="139.59 97.8 139.59 60.61 139.59 60.61 139.59 60.61 139.59 60.61 139.59 60.61 139.59 60.61 104.7 79.2 104.69 79.2 104.7 79.2 139.59 97.8 139.59 97.8 139.59 97.8 139.59 97.8 139.59 97.8"/><polygon class="cls-23" points="174.49 79.2 174.49 79.2 174.49 79.2 174.49 79.2 174.49 79.2 174.49 79.2"/><polygon class="cls-3" points="174.49 79.19 139.6 60.6 139.6 60.6 139.6 60.61 139.6 97.79 174.49 79.19"/><path class="cls-1" d="M104.31,55.8Z" transform="translate(35.29 42)"/><polygon class="cls-24" points="0 60.6 0 60.61 34.89 79.19 34.9 79.19 34.9 79.19 34.9 42.01 34.9 42.01 0 60.6"/><polygon class="cls-25" points="0 97.8 0 97.8 34.89 116.39 34.9 116.39 34.9 116.39 34.9 79.21 34.9 79.21 0 97.8"/><polygon class="cls-7" points="174.49 79.21 174.49 79.21 209.38 97.8 209.38 97.8 209.39 97.8 209.39 60.62 209.38 60.62 174.49 79.21"/><polygon class="cls-13" points="69.8 134.98 76.21 131.56 104.69 116.39 69.8 97.79 69.8 134.98"/><polygon class="cls-13" points="69.86 97.55 76.27 94.13 104.75 78.96 69.86 60.37 69.86 97.55"/><polygon class="cls-11" points="35.29 116.24 41.7 112.82 70.18 97.65 35.29 79.05 35.29 116.24"/><polygon class="cls-11" points="139.95 103.52 119 92.36 119 92.36 119 92.36 119 114.68 139.95 103.52"/></g></g><text class="cls-26" transform="translate(886.95 124.21)">CHE<tspan class="cls-27" x="94.65" y="0">R</tspan><tspan x="121.48" y="0">CHE, T</tspan><tspan class="cls-27" x="276.31" y="0">R</tspan><tspan x="303.14" y="0">OUVE ET INSC</tspan><tspan class="cls-28" x="631.22" y="0">R</tspan><tspan x="662.89" y="0">IS-</tspan><tspan class="cls-29" x="730.11" y="0">t</tspan><tspan x="757.65" y="0">OI </tspan><tspan class="cls-30" x="824.15" y="0">!</tspan></text><g class="cls-5"><g class="cls-31"><polygon class="cls-1" points="1894.26 239.26 1894.26 273.16 1894.26 273.16 1894.26 273.16 1894.26 273.16 1894.26 239.26 1894.26 239.26 1924.69 222.31 1924.69 222.31 1894.26 239.26 1894.26 239.26"/><polygon class="cls-1" points="1863.82 256.21 1863.82 256.21 1833.38 273.16 1833.38 273.16 1833.38 239.26 1833.38 239.26 1833.38 239.25 1833.38 205.35 1833.38 205.35 1833.38 205.35 1833.38 239.25 1833.38 239.26 1833.38 239.26 1833.38 273.16 1833.38 273.16 1863.82 256.21"/><polygon class="cls-1" points="1924.69 256.21 1894.26 273.16 1894.26 273.16 1924.69 256.21"/><polygon class="cls-1" points="1946.63 166.71 1924.7 154.49 1924.69 154.49 1924.7 154.49 1946.63 166.71"/><polygon class="cls-1" points="1985.57 188.4 1985.57 188.4 1985.57 188.4 1985.57 188.4"/><polygon class="cls-1" points="1955.13 171.45 1949.54 174.56 1955.13 171.45 1955.13 171.45"/><polygon class="cls-7" points="1924.7 222.3 1955.13 205.35 1955.13 205.35 1924.7 188.4 1924.7 188.4 1924.7 188.4 1924.69 188.4 1924.69 222.3 1924.7 222.3"/><polygon class="cls-32" points="1955.13 171.44 1949.54 174.56 1924.7 188.39 1955.13 205.34 1955.13 171.44"/><polygon class="cls-33" points="1863.82 256.21 1863.82 256.21 1894.26 239.26 1894.26 239.25 1863.82 222.3 1863.82 222.3 1863.82 222.3 1863.82 256.21 1863.82 256.21"/><polygon class="cls-10" points="1894.26 205.35 1863.82 222.3 1894.26 239.25 1894.26 205.35"/><polygon class="cls-11" points="1894.26 239.26 1924.69 222.31 1924.69 222.3 1894.26 205.35 1894.26 205.35 1894.26 239.25 1894.26 239.26"/><polygon class="cls-11" points="1833.37 239.46 1863.8 222.51 1863.8 222.5 1833.37 205.55 1833.37 205.55 1833.37 239.46 1833.37 239.46"/><polygon class="cls-10" points="1802.95 222.3 1833.38 239.25 1833.38 205.35 1802.95 222.3"/><polygon class="cls-34" points="1833.38 239.26 1833.38 239.25 1802.95 222.3 1802.94 222.3 1802.94 256.21 1802.95 256.21 1833.38 239.26"/><polygon class="cls-13" points="1772.51 239.26 1802.94 256.21 1802.94 222.3 1772.51 239.26"/><polygon class="cls-11" points="1924.69 222.31 1924.69 256.21 1924.69 256.21 1924.7 256.21 1924.7 256.21 1924.7 256.21 1955.13 239.26 1955.13 239.25 1924.7 222.3 1924.69 222.31 1924.69 222.31"/><polygon class="cls-10" points="1894.26 239.26 1894.26 273.16 1894.26 273.16 1924.69 256.21 1924.69 256.21 1924.69 256.21 1924.69 222.31 1894.26 239.26 1894.26 239.26"/><polygon class="cls-14" points="1894.26 239.26 1863.82 256.21 1894.26 273.16 1894.26 239.26"/><polygon class="cls-15" points="1954.79 273.77 1954.79 239.87 1924.36 256.82 1954.79 273.77"/><polygon class="cls-35" points="1955.13 273.16 1955.13 273.16 1955.13 273.16 1955.13 273.16 1955.13 273.16 1985.57 256.21 1985.57 256.21 1955.13 239.26 1955.13 239.26 1955.13 273.16 1955.13 273.16"/><rect class="cls-14" x="1924.7" y="256.21"/><rect class="cls-36" x="1924.7" y="256.21"/><rect class="cls-15" x="1939.91" y="247.27" height="34.84"/><rect class="cls-37" x="1939.91" y="247.27" height="34.84"/><rect class="cls-38" x="1955.13" y="273.16"/><rect class="cls-38" x="1955.13" y="273.16"/><rect class="cls-39" x="1955.13" y="273.16"/><rect class="cls-40" x="1955.13" y="273.16"/><polygon class="cls-13" points="1833.38 273.16 1833.38 273.16 1863.82 256.21 1863.82 256.21 1863.82 256.21 1863.82 256.21 1863.82 256.21 1863.82 222.3 1833.38 239.26 1833.38 239.26 1833.38 273.16"/><polygon class="cls-15" points="1802.95 256.21 1833.38 273.16 1833.38 239.26 1802.95 256.21"/><polygon class="cls-15" points="1833.38 205.35 1833.38 205.35 1802.95 188.4 1802.94 188.4 1802.94 222.3 1802.95 222.3 1833.38 205.35"/><polygon class="cls-7" points="1946.29 165.65 1954.79 170.39 1954.45 145.98 1924.36 153.44 1946.29 165.65"/><polygon class="cls-41" points="1924.7 154.49 1924.69 154.49 1894.26 171.44 1924.69 188.4 1924.69 188.4 1924.69 188.4 1924.69 188.4 1924.7 188.4 1924.7 188.4 1924.7 188.4 1949.54 174.56 1955.13 171.45 1955.13 171.45 1955.13 205.35 1955.13 205.35 1924.7 222.3 1955.13 239.25 1955.13 239.26 1955.13 239.26 1985.57 256.21 1985.57 222.31 1985.57 222.31 1985.57 222.3 1985.57 222.3 1955.13 205.35 1985.57 188.4 1955.13 171.45 1955.14 171.45 1955.13 171.44 1955.13 171.44 1955.13 171.44 1955.13 171.44 1946.63 166.71 1924.7 154.49"/><polygon class="cls-3" points="1924.69 188.4 1924.69 188.4 1894.26 171.44 1894.26 171.44 1894.26 205.35 1894.26 205.35 1924.69 188.4"/><polygon class="cls-23" points="1985.57 188.39 1985.57 188.4 1985.57 188.4 1985.57 188.39"/><polygon class="cls-23" points="1894.26 239.25 1894.26 239.26 1894.26 239.26 1894.26 239.25"/><polygon class="cls-23" points="1924.69 222.31 1924.7 222.3 1924.69 222.3 1924.69 222.31"/><polygon class="cls-23" points="1985.57 256.21 1985.57 256.21 1985.57 256.21 1985.57 256.21"/><polygon class="cls-23" points="1955.13 273.16 1955.13 273.16 1955.13 273.16 1955.13 273.16 1955.13 273.16 1955.13 273.16"/><polygon class="cls-23" points="1802.94 256.21 1802.94 256.21 1802.95 256.21 1802.94 256.21"/><polygon class="cls-7" points="1862 169.67 1862 169.67 1851.43 175.56 1862 181.45 1862 169.67"/><polygon class="cls-11" points="1799.5 188.03 1799.5 188.03 1782.89 197.28 1799.5 206.53 1799.5 188.03"/><rect class="cls-23" x="1924.69" y="256.21"/><polygon class="cls-23" points="1802.94 188.4 1802.94 188.4 1802.95 188.4 1802.94 188.4"/><polygon class="cls-23" points="1833.38 239.25 1833.38 239.26 1833.38 239.26 1833.38 239.25"/><polygon class="cls-23" points="1955.13 137.54 1955.13 137.53 1955.13 137.54 1955.13 137.54"/><polygon class="cls-23" points="1772.51 239.26 1772.51 239.26 1772.51 239.25 1772.51 239.26"/><polygon class="cls-23" points="1924.69 154.49 1924.69 154.49 1924.7 154.49 1924.69 154.49"/><polygon class="cls-23" points="1802.94 222.3 1802.94 222.3 1802.95 222.3 1802.94 222.3"/><polygon class="cls-23" points="1894.26 171.44 1894.26 171.44 1894.26 171.44 1894.26 171.44"/><polygon class="cls-7" points="1863.82 188.4 1863.82 222.3 1863.82 222.3 1863.82 222.3 1863.82 222.3 1863.82 222.3 1863.82 222.3 1894.26 205.35 1894.26 205.35 1894.26 205.35 1863.82 188.4 1863.82 188.4 1863.82 188.4 1863.82 188.4 1863.82 188.4"/><polygon class="cls-23" points="1833.38 205.35 1833.38 205.35 1833.38 205.35 1833.38 205.35 1833.38 205.35 1833.38 205.35"/><polygon class="cls-3" points="1833.38 205.36 1863.81 222.31 1863.82 222.31 1863.82 222.31 1863.82 188.41 1833.38 205.36"/><path class="cls-1" d="M1828.53,146.4Z" transform="translate(35.29 42)"/><polygon class="cls-42" points="1985.57 222.31 1985.57 222.31 1955.14 205.36 1955.13 205.36 1955.13 205.36 1955.13 239.26 1955.13 239.26 1985.57 222.31"/><polygon class="cls-43" points="1985.57 188.4 1985.57 188.39 1955.14 171.44 1955.13 171.44 1955.13 171.44 1955.13 205.34 1955.13 205.35 1985.57 188.4"/><polygon class="cls-7" points="1833.38 205.35 1833.38 205.34 1802.95 188.39 1802.95 188.4 1802.95 188.4 1802.95 222.3 1802.95 222.3 1833.38 205.35"/><polygon class="cls-13" points="1924.69 154.5 1919.1 157.61 1894.26 171.45 1924.69 188.4 1924.69 154.5"/><polygon class="cls-13" points="1924.64 188.62 1919.05 191.74 1894.21 205.57 1924.64 222.52 1924.64 188.62"/><polygon class="cls-11" points="1954.79 171.58 1949.2 174.7 1924.36 188.53 1954.79 205.49 1954.79 171.58"/><polygon class="cls-11" points="1863.51 183.18 1881.78 193.35 1881.78 193.36 1881.78 193.35 1881.78 173 1863.51 183.18"/></g></g><image width="7336" height="6737" transform="translate(215.29) scale(0.04 0.04)" xlink:href="../../../Logo/Logo%20CFB%20png.png"/><image width="1096" height="1258" transform="translate(1841.29 49) scale(0.07 0.07)" xlink:href="../../../../../Logos/CENTRE%20VAL%20DE%20LOIRE/QUADRI/FFF_LOGOTYPE_LIGUE_CENTRE_VAL_DE_LOIRE_QUADRI.png"/></g></g></svg>