<svg xmlns="http://www.w3.org/2000/svg" xmlns:xlink="http://www.w3.org/1999/xlink" viewBox="0 0 8202.05 916.74"><defs><style>.cls-1{fill:none;}.cls-2{isolation:isolate;}.cls-3{fill:#fff;}.cls-27,.cls-4{fill:#7ba3bb;}.cls-5{opacity:0.92;}.cls-6{clip-path:url(#clip-path);}.cls-7{fill:#bb4242;}.cls-12,.cls-23,.cls-33,.cls-34,.cls-35,.cls-42,.cls-8,.cls-9{mix-blend-mode:multiply;}.cls-23,.cls-33,.cls-34,.cls-42,.cls-8,.cls-9{opacity:0.5;}.cls-8{fill:url(#linear-gradient);}.cls-9{fill:url(#linear-gradient-2);}.cls-10{fill:#7fa3b9;}.cls-11{fill:#528bb9;}.cls-12,.cls-35{opacity:0.3;}.cls-12{fill:url(#linear-gradient-3);}.cls-13{fill:#3e849d;}.cls-14{fill:#1f3235;}.cls-15{fill:#005d7f;}.cls-16{fill:url(#linear-gradient-4);}.cls-17{fill:url(#linear-gradient-5);}.cls-18{fill:url(#linear-gradient-6);}.cls-19{fill:url(#linear-gradient-7);}.cls-20{fill:url(#linear-gradient-8);}.cls-21{fill:url(#linear-gradient-9);}.cls-22{fill:url(#linear-gradient-10);}.cls-23{fill:url(#linear-gradient-11);}.cls-24{fill:#00181e;}.cls-25{fill:url(#linear-gradient-12);}.cls-26{fill:url(#linear-gradient-13);}.cls-27{font-size:155.4px;font-family:Nuvel-Regular, Nuvel;}.cls-28{letter-spacing:-0.11em;}.cls-29{letter-spacing:-0.11em;}.cls-30{letter-spacing:-0.02em;}.cls-31{font-family:MyriadPro-Regular, Myriad Pro;}.cls-32{clip-path:url(#clip-path-2);}.cls-33{fill:url(#linear-gradient-14);}.cls-34{fill:url(#linear-gradient-15);}.cls-35{fill:url(#linear-gradient-16);}.cls-36{fill:url(#linear-gradient-17);}.cls-37{fill:url(#linear-gradient-18);}.cls-38{fill:url(#linear-gradient-19);}.cls-39{fill:url(#linear-gradient-20);}.cls-40{fill:url(#linear-gradient-22);}.cls-41{fill:url(#linear-gradient-23);}.cls-42{fill:url(#linear-gradient-24);}.cls-43{fill:url(#linear-gradient-25);}.cls-44{fill:url(#linear-gradient-26);}</style><clipPath id="clip-path" transform="translate(107.78 161)"><rect class="cls-1" width="638.35" height="429"/></clipPath><linearGradient id="linear-gradient" x1="8514.07" y1="-2504.48" x2="8654.4" y2="-2403.93" gradientTransform="translate(-2302.08 -8265.46) rotate(90)" gradientUnits="userSpaceOnUse"><stop offset="0.37" stop-color="#00181e"/><stop offset="0.38" stop-color="#092026"/><stop offset="0.4" stop-color="#374a4f"/><stop offset="0.43" stop-color="#627175"/><stop offset="0.46" stop-color="#889396"/><stop offset="0.5" stop-color="#a8b1b3"/><stop offset="0.53" stop-color="#c4c9cb"/><stop offset="0.57" stop-color="#daddde"/><stop offset="0.62" stop-color="#ebeced"/><stop offset="0.68" stop-color="#f6f7f7"/><stop offset="0.77" stop-color="#fdfdfd"/><stop offset="1" stop-color="#fff"/></linearGradient><linearGradient id="linear-gradient-2" x1="-385.61" y1="-165.67" x2="-329.16" y2="-267.27" gradientTransform="translate(735.77 396.57)" xlink:href="#linear-gradient"/><linearGradient id="linear-gradient-3" x1="8384.14" y1="-2959.32" x2="8467" y2="-2876.46" gradientTransform="translate(-2302.08 -8265.46) rotate(90)" gradientUnits="userSpaceOnUse"><stop offset="0.4" stop-color="#fff"/><stop offset="0.56" stop-color="#fdfdfd"/><stop offset="0.64" stop-color="#f5f5f5"/><stop offset="0.71" stop-color="#e7e7e7"/><stop offset="0.77" stop-color="#d4d4d4"/><stop offset="0.82" stop-color="#bbb"/><stop offset="0.87" stop-color="#9d9d9c"/><stop offset="0.91" stop-color="#787877"/><stop offset="0.95" stop-color="#4e4e4d"/><stop offset="0.99" stop-color="#20201e"/><stop offset="1" stop-color="#161614"/></linearGradient><linearGradient id="linear-gradient-4" x1="8325.01" y1="5628.04" x2="8407.87" y2="5710.9" gradientTransform="matrix(0, 1, 1, 0, -5586.6, -8265.46)" gradientUnits="userSpaceOnUse"><stop offset="0" stop-color="#00181e"/><stop offset="0.14" stop-color="#00181e"/><stop offset="1" stop-color="#00181e"/></linearGradient><linearGradient id="linear-gradient-5" x1="8366.44" y1="5799.79" x2="8366.44" y2="5797.24" xlink:href="#linear-gradient-4"/><linearGradient id="linear-gradient-6" x1="8336.88" y1="5799.78" x2="8336.88" y2="5586.63" xlink:href="#linear-gradient-4"/><linearGradient id="linear-gradient-7" x1="8307.31" y1="5693.19" x2="8307.31" y2="5693.19" xlink:href="#linear-gradient-4"/><linearGradient id="linear-gradient-8" x1="8307.31" y1="5693.19" x2="8307.31" y2="5693.19" xlink:href="#linear-gradient-4"/><linearGradient id="linear-gradient-9" x1="8306.36" y1="5692.25" x2="8308.27" y2="5694.16" xlink:href="#linear-gradient-4"/><linearGradient id="linear-gradient-10" x1="8307.32" y1="5695.12" x2="8307.32" y2="5691.29" xlink:href="#linear-gradient-4"/><linearGradient id="linear-gradient-11" x1="-673.44" y1="13.03" x2="-635.35" y2="-49.75" gradientTransform="translate(735.77 396.57)" xlink:href="#linear-gradient"/><linearGradient id="linear-gradient-12" x1="8484.68" y1="5693.2" x2="8484.68" y2="5586.61" gradientTransform="matrix(0, 1, 1, 0, -5586.6, -8265.46)" gradientUnits="userSpaceOnUse"><stop offset="0" stop-color="#00181e"/><stop offset="0.08" stop-color="#0b2126"/><stop offset="0.23" stop-color="#162b2f"/><stop offset="0.43" stop-color="#1d3034"/><stop offset="1" stop-color="#1f3235"/></linearGradient><linearGradient id="linear-gradient-13" x1="8602.96" y1="5693.2" x2="8602.96" y2="5586.61" xlink:href="#linear-gradient-12"/><clipPath id="clip-path-2" transform="translate(107.78 161)"><rect class="cls-1" x="7445.04" y="226" width="555.45" height="413" transform="translate(15445.53 865) rotate(-180)"/></clipPath><linearGradient id="linear-gradient-14" x1="8729.4" y1="-3209.52" x2="8857.17" y2="-3117.96" gradientTransform="translate(11235.21 9439.92) rotate(-90)" xlink:href="#linear-gradient"/><linearGradient id="linear-gradient-15" x1="296.76" y1="47.19" x2="351.06" y2="-50.56" gradientTransform="translate(8197.35 777.9) rotate(180)" xlink:href="#linear-gradient"/><linearGradient id="linear-gradient-16" x1="8601.64" y1="-3609.14" x2="8676.48" y2="-3534.3" gradientTransform="translate(11235.21 9439.92) rotate(-90)" xlink:href="#linear-gradient-3"/><linearGradient id="linear-gradient-17" x1="8544.72" y1="6355.1" x2="8619.56" y2="6429.93" gradientTransform="matrix(0, -1, -1, 0, 14519.73, 9439.92)" xlink:href="#linear-gradient-4"/><linearGradient id="linear-gradient-18" x1="8582.14" y1="6503.18" x2="8582.14" y2="6500.96" gradientTransform="matrix(0, -1, -1, 0, 14519.73, 9439.92)" xlink:href="#linear-gradient-4"/><linearGradient id="linear-gradient-19" x1="8553.68" y1="6503.17" x2="8553.68" y2="6317.7" gradientTransform="matrix(0, -1, -1, 0, 14519.73, 9439.92)" xlink:href="#linear-gradient-4"/><linearGradient id="linear-gradient-20" x1="8525.21" y1="6410.42" x2="8525.21" y2="6410.42" gradientTransform="matrix(0, -1, -1, 0, 14519.73, 9439.92)" xlink:href="#linear-gradient-4"/><linearGradient id="linear-gradient-22" x1="8524.39" y1="6409.6" x2="8526.05" y2="6411.27" gradientTransform="matrix(0, -1, -1, 0, 14519.73, 9439.92)" xlink:href="#linear-gradient-4"/><linearGradient id="linear-gradient-23" x1="8525.22" y1="6412.1" x2="8525.22" y2="6408.77" gradientTransform="matrix(0, -1, -1, 0, 14519.73, 9439.92)" xlink:href="#linear-gradient-4"/><linearGradient id="linear-gradient-24" x1="44.47" y1="210.68" x2="79.71" y2="152.6" gradientTransform="translate(8197.35 777.9) rotate(180)" xlink:href="#linear-gradient"/><linearGradient id="linear-gradient-25" x1="8695.97" y1="6410.43" x2="8695.97" y2="6317.68" gradientTransform="matrix(0, -1, -1, 0, 14519.73, 9439.92)" xlink:href="#linear-gradient-12"/><linearGradient id="linear-gradient-26" x1="8809.84" y1="6410.43" x2="8809.84" y2="6317.68" gradientTransform="matrix(0, -1, -1, 0, 14519.73, 9439.92)" xlink:href="#linear-gradient-12"/></defs><g class="cls-2"><g id="Calque_1" data-name="Calque 1"><rect class="cls-3" x="107.78" y="161" width="8000" height="325.07"/><rect class="cls-4" x="107.29" y="486.66" width="8000.5" height="313.34"/><g class="cls-5"><g class="cls-6"><polygon class="cls-1" points="319.78 160.1 319.78 41.86 319.77 41.85 319.77 41.85 319.78 41.86 319.78 160.1 319.77 160.11 213.19 219.23 213.19 219.23 319.77 160.11 319.78 160.1"/><polygon class="cls-1" points="426.37 100.97 426.37 100.97 532.95 41.85 532.96 41.86 532.96 160.1 532.95 160.11 532.96 160.11 532.96 278.36 532.95 278.37 532.96 278.36 532.96 160.11 532.95 160.11 532.96 160.1 532.96 41.86 532.95 41.85 426.37 100.97"/><polygon class="cls-1" points="213.19 100.97 319.77 41.85 319.77 41.85 213.19 100.97"/><polygon class="cls-1" points="136.36 413.14 213.18 455.75 213.19 455.75 213.18 455.75 136.36 413.14"/><polygon class="cls-1" points="0 337.48 0.01 337.48 0.01 337.47 0 337.48"/><polygon class="cls-1" points="106.6 396.62 126.19 385.75 106.6 396.62 106.6 396.62"/><polygon class="cls-7" points="213.18 219.24 106.6 278.36 106.6 278.37 213.18 337.5 213.18 337.5 213.18 337.5 213.19 337.49 213.19 219.24 213.18 219.24"/><polygon class="cls-8" points="106.6 396.62 126.19 385.76 213.18 337.5 106.6 278.38 106.6 396.62"/><polygon class="cls-9" points="426.37 100.98 426.36 100.98 319.78 160.1 319.78 160.11 426.36 219.24 426.37 219.23 426.37 219.23 426.37 100.98 426.37 100.98"/><polygon class="cls-10" points="319.78 278.36 426.36 219.24 319.78 160.11 319.78 278.36"/><polygon class="cls-11" points="319.77 160.11 213.19 219.23 213.19 219.24 319.77 278.37 319.78 278.36 319.78 160.11 319.77 160.11"/><polygon class="cls-11" points="533.01 159.4 426.43 218.52 426.43 218.53 533.01 277.66 533.02 277.65 533.02 159.41 533.01 159.4"/><polygon class="cls-10" points="639.54 219.24 532.96 160.11 532.96 278.36 639.54 219.24"/><polygon class="cls-12" points="532.96 160.1 532.96 160.11 639.54 219.24 639.54 219.23 639.54 100.98 639.54 100.98 532.96 160.1"/><polygon class="cls-13" points="746.13 160.11 639.54 100.98 639.54 219.23 746.13 160.11"/><polygon class="cls-11" points="213.19 219.23 213.19 100.99 213.19 100.99 213.18 100.98 213.18 100.98 213.18 100.98 106.6 160.1 106.6 160.12 213.18 219.24 213.19 219.23 213.19 219.23"/><polygon class="cls-10" points="319.78 160.1 319.78 41.86 319.77 41.85 213.19 100.97 213.19 100.99 213.19 100.99 213.19 219.23 319.77 160.11 319.78 160.1"/><polygon class="cls-14" points="319.78 160.1 426.36 100.98 319.78 41.86 319.78 160.1"/><polygon class="cls-15" points="107.78 39.73 107.78 157.98 214.36 98.85 107.78 39.73"/><polygon class="cls-16" points="106.6 41.86 106.6 41.86 106.59 41.85 106.59 41.85 106.59 41.85 0.01 100.97 0.01 100.99 106.59 160.11 106.6 160.1 106.6 41.86 106.6 41.86"/><rect class="cls-14" x="213.18" y="100.98"/><rect class="cls-17" x="213.18" y="100.98"/><rect class="cls-15" x="159.89" y="10.48" height="121.88"/><rect class="cls-18" x="159.89" y="10.48" height="121.88"/><rect class="cls-19" x="106.59" y="41.85"/><rect class="cls-20" x="106.59" y="41.85"/><rect class="cls-21" x="106.6" y="41.86"/><rect class="cls-22" x="106.6" y="41.86"/><polygon class="cls-13" points="532.96 41.86 532.95 41.85 426.37 100.97 426.37 100.97 426.36 100.98 426.37 100.98 426.37 100.98 426.37 219.23 532.95 160.11 532.96 160.1 532.96 41.86"/><polygon class="cls-15" points="639.54 100.98 532.96 41.86 532.96 160.1 639.54 100.98"/><polygon class="cls-15" points="532.96 278.36 532.96 278.37 639.54 337.5 639.54 337.49 639.54 219.24 639.54 219.24 532.96 278.36"/><polygon class="cls-7" points="137.54 416.82 107.78 400.31 108.96 485.44 214.36 459.43 137.54 416.82"/><polygon class="cls-23" points="213.18 455.75 213.19 455.75 319.77 396.62 213.19 337.5 213.19 337.5 213.19 337.5 213.19 337.49 213.18 337.5 213.18 337.5 213.18 337.5 126.19 385.75 106.6 396.62 106.6 396.62 106.6 278.37 106.6 278.36 213.18 219.24 106.6 160.12 106.6 160.1 106.59 160.11 0.01 100.99 0.01 219.23 0.01 219.23 0 219.24 0.01 219.25 106.59 278.37 0.02 337.49 106.59 396.61 106.57 396.62 106.59 396.62 106.6 396.63 106.6 396.63 106.6 396.63 136.36 413.14 213.18 455.75"/><polygon class="cls-3" points="213.19 337.49 213.19 337.5 319.77 396.62 319.78 396.62 319.78 278.37 319.77 278.37 213.19 337.49"/><polygon class="cls-24" points="0.01 337.5 0.01 337.49 0 337.5 0.01 337.5"/><polygon class="cls-24" points="319.78 160.11 319.78 160.1 319.77 160.11 319.78 160.11"/><polygon class="cls-24" points="213.19 219.23 213.18 219.24 213.19 219.24 213.19 219.23"/><polygon class="cls-24" points="0 100.98 0.01 100.99 0.01 100.97 0 100.98"/><polygon class="cls-24" points="106.6 41.84 106.59 41.85 106.59 41.85 106.6 41.86 106.6 41.86 106.6 41.84"/><polygon class="cls-24" points="639.54 100.98 639.54 100.97 639.54 100.98 639.54 100.98"/><polygon class="cls-7" points="432.73 402.8 432.73 402.8 469.76 382.26 432.73 361.72 432.73 402.8"/><polygon class="cls-11" points="651.62 338.78 651.62 338.78 709.78 306.52 651.62 274.26 651.62 338.78"/><polygon class="cls-24" points="213.18 100.98 213.18 100.98 213.19 100.99 213.19 100.97 213.18 100.98"/><polygon class="cls-24" points="639.54 337.5 639.54 337.49 639.54 337.5 639.54 337.5"/><polygon class="cls-24" points="532.96 160.11 532.96 160.1 532.95 160.11 532.96 160.11"/><polygon class="cls-24" points="106.59 514.88 106.6 514.89 106.6 514.87 106.59 514.88"/><polygon class="cls-24" points="746.13 160.1 746.13 160.11 746.13 160.11 746.13 160.1"/><polygon class="cls-24" points="213.19 455.76 213.19 455.75 213.18 455.75 213.19 455.76"/><polygon class="cls-24" points="639.54 219.24 639.54 219.23 639.54 219.24 639.54 219.24"/><polygon class="cls-24" points="319.78 396.63 319.78 396.62 319.77 396.62 319.78 396.63"/><polygon class="cls-7" points="426.37 337.49 426.37 219.24 426.37 219.24 426.37 219.24 426.37 219.23 426.37 219.23 426.36 219.24 319.78 278.36 319.77 278.37 319.78 278.37 426.36 337.5 426.37 337.5 426.37 337.49 426.37 337.49 426.37 337.49"/><polygon class="cls-24" points="532.95 278.37 532.95 278.37 532.95 278.37 532.96 278.37 532.96 278.36 532.95 278.37"/><polygon class="cls-3" points="532.95 278.34 426.38 219.22 426.37 219.22 426.37 219.23 426.37 337.46 532.95 278.34"/><path class="cls-1" d="M318.58,176.49Z" transform="translate(107.78 161)"/><polygon class="cls-25" points="0.01 219.21 0.01 219.23 106.57 278.34 106.58 278.33 106.6 278.34 106.6 160.1 106.58 160.09 0.01 219.21"/><polygon class="cls-26" points="0.01 337.5 0.01 337.51 106.57 396.63 106.58 396.62 106.6 396.62 106.6 278.39 106.58 278.38 0.01 337.5"/><polygon class="cls-7" points="532.95 278.38 532.95 278.39 639.51 337.5 639.53 337.49 639.54 337.5 639.54 219.26 639.53 219.25 532.95 278.38"/><polygon class="cls-13" points="213.2 455.73 232.78 444.86 319.77 396.61 213.2 337.48 213.2 455.73"/><polygon class="cls-13" points="213.37 336.71 232.95 325.85 319.94 277.59 213.37 218.47 213.37 336.71"/><polygon class="cls-11" points="107.78 396.14 127.37 385.27 214.36 337.01 107.78 277.89 107.78 396.14"/><polygon class="cls-11" points="427.45 355.69 363.48 320.2 363.47 320.2 363.47 320.21 363.47 391.18 427.45 355.69"/></g></g><text class="cls-27" transform="translate(4763.43 365.65)">CHE<tspan class="cls-28" x="288.43" y="0">R</tspan><tspan x="370.17" y="0">CHE, T</tspan><tspan class="cls-29" x="841.97" y="0">R</tspan><tspan x="923.71" y="0">OUVE ET INSC</tspan><tspan class="cls-30" x="1923.42" y="0">R</tspan><tspan x="2019.92" y="0">IS-</tspan><tspan class="cls-30" x="2224.74" y="0">t</tspan><tspan x="2308.66" y="0">OI </tspan><tspan class="cls-31" x="2511.31" y="0">!</tspan></text><g class="cls-5"><g class="cls-32"><polygon class="cls-1" points="7923.81 800.87 7923.81 914.7 7923.82 914.71 7923.82 914.71 7923.81 914.7 7923.81 800.87 7923.82 800.86 8016.55 743.94 8016.55 743.94 7923.82 800.86 7923.81 800.87"/><polygon class="cls-1" points="7831.06 857.79 7831.06 857.79 7738.32 914.71 7738.32 914.7 7738.32 800.86 7738.32 800.86 7738.32 800.85 7738.32 687.02 7738.32 687.01 7738.32 687.02 7738.32 800.85 7738.32 800.86 7738.32 800.86 7738.32 914.7 7738.32 914.71 7831.06 857.79"/><polygon class="cls-1" points="8016.55 857.79 7923.82 914.71 7923.82 914.71 8016.55 857.79"/><polygon class="cls-1" points="8083.4 557.26 8016.56 516.24 8016.55 516.25 8016.56 516.24 8083.4 557.26"/><polygon class="cls-1" points="8202.05 630.11 8202.04 630.1 8202.04 630.11 8202.05 630.11"/><polygon class="cls-1" points="8109.3 573.17 8092.26 583.63 8109.3 573.17 8109.3 573.17"/><polygon class="cls-7" points="8016.56 743.93 8109.3 687.02 8109.3 687 8016.56 630.09 8016.56 630.09 8016.56 630.09 8016.55 630.09 8016.55 743.93 8016.56 743.93"/><polygon class="cls-33" points="8109.3 573.16 8092.26 583.62 8016.56 630.08 8109.3 687 8109.3 573.16"/><polygon class="cls-34" points="7831.06 857.78 7831.07 857.78 7923.81 800.87 7923.81 800.85 7831.07 743.93 7831.06 743.94 7831.06 743.94 7831.06 857.78 7831.06 857.78"/><polygon class="cls-10" points="7923.81 687.02 7831.07 743.93 7923.81 800.85 7923.81 687.02"/><polygon class="cls-11" points="7923.82 800.86 8016.55 743.94 8016.55 743.93 7923.82 687.01 7923.81 687.02 7923.81 800.85 7923.82 800.86"/><polygon class="cls-11" points="7738.27 801.54 7831.01 744.62 7831.01 744.61 7738.27 687.69 7738.26 687.7 7738.26 801.53 7738.27 801.54"/><polygon class="cls-10" points="7645.58 743.93 7738.32 800.85 7738.32 687.02 7645.58 743.93"/><polygon class="cls-35" points="7738.32 800.86 7738.32 800.85 7645.58 743.93 7645.57 743.94 7645.57 857.78 7645.58 857.78 7738.32 800.86"/><polygon class="cls-13" points="7552.83 800.86 7645.57 857.78 7645.57 743.94 7552.83 800.86"/><polygon class="cls-11" points="8016.55 743.94 8016.55 857.78 8016.55 857.78 8016.56 857.78 8016.56 857.78 8016.56 857.78 8109.3 800.87 8109.3 800.85 8016.56 743.93 8016.55 743.94 8016.55 743.94"/><polygon class="cls-10" points="7923.81 800.87 7923.81 914.7 7923.82 914.71 8016.55 857.79 8016.55 857.78 8016.55 857.78 8016.55 743.94 7923.82 800.86 7923.81 800.87"/><polygon class="cls-14" points="7923.81 800.87 7831.07 857.78 7923.81 914.7 7923.81 800.87"/><polygon class="cls-15" points="8108.27 916.75 8108.27 802.91 8015.53 859.83 8108.27 916.75"/><polygon class="cls-36" points="8109.3 914.7 8109.3 914.7 8109.31 914.71 8109.31 914.71 8109.31 914.71 8202.04 857.79 8202.04 857.77 8109.31 800.86 8109.3 800.87 8109.3 914.7 8109.3 914.7"/><rect class="cls-14" x="8016.56" y="857.78"/><rect class="cls-37" x="8016.56" y="857.78"/><rect class="cls-15" x="8062.93" y="831.84" height="108.81"/><rect class="cls-38" x="8062.93" y="831.84" height="108.81"/><rect class="cls-39" x="8109.31" y="914.71"/><rect class="cls-39" x="8109.31" y="914.71"/><rect class="cls-40" x="8109.3" y="914.7"/><rect class="cls-41" x="8109.3" y="914.7"/><polygon class="cls-13" points="7738.32 914.7 7738.32 914.71 7831.06 857.79 7831.06 857.79 7831.07 857.78 7831.06 857.78 7831.06 857.78 7831.06 743.94 7738.32 800.86 7738.32 800.86 7738.32 914.7"/><polygon class="cls-15" points="7645.58 857.78 7738.32 914.7 7738.32 800.86 7645.58 857.78"/><polygon class="cls-15" points="7738.32 687.02 7738.32 687.01 7645.58 630.09 7645.57 630.09 7645.57 743.93 7645.58 743.93 7738.32 687.02"/><polygon class="cls-7" points="8082.38 553.72 8108.27 569.62 8107.24 487.66 8015.53 512.7 8082.38 553.72"/><polygon class="cls-42" points="8016.56 516.24 8016.55 516.25 7923.82 573.16 8016.55 630.08 8016.56 630.09 8016.55 630.08 8016.55 630.09 8016.56 630.09 8016.56 630.09 8016.56 630.09 8092.26 583.63 8109.3 573.17 8109.3 573.17 8109.3 687 8109.3 687.02 8016.56 743.93 8109.3 800.85 8109.3 800.87 8109.31 800.86 8202.04 857.77 8202.04 743.95 8202.04 743.94 8202.05 743.93 8202.04 743.93 8109.31 687.01 8202.04 630.1 8109.31 573.18 8109.32 573.17 8109.31 573.16 8109.3 573.16 8109.3 573.16 8109.3 573.16 8083.4 557.26 8016.56 516.24"/><polygon class="cls-3" points="8016.55 630.09 8016.55 630.08 7923.82 573.16 7923.81 573.17 7923.81 687 7923.82 687.01 8016.55 630.09"/><polygon class="cls-24" points="8202.04 630.08 8202.04 630.1 8202.05 630.09 8202.04 630.08"/><polygon class="cls-24" points="7923.81 800.85 7923.81 800.87 7923.82 800.86 7923.81 800.85"/><polygon class="cls-24" points="8016.55 743.94 8016.56 743.93 8016.55 743.93 8016.55 743.94"/><polygon class="cls-24" points="8202.05 857.78 8202.04 857.77 8202.04 857.79 8202.05 857.78"/><polygon class="cls-24" points="8109.3 914.71 8109.31 914.71 8109.31 914.71 8109.3 914.7 8109.3 914.7 8109.3 914.71"/><polygon class="cls-24" points="7645.57 857.78 7645.57 857.79 7645.58 857.78 7645.57 857.78"/><polygon class="cls-7" points="7825.53 567.22 7825.53 567.22 7793.31 586.99 7825.53 606.77 7825.53 567.22"/><polygon class="cls-11" points="7635.06 628.85 7635.06 628.85 7584.46 659.91 7635.06 690.97 7635.06 628.85"/><polygon class="cls-24" points="8016.56 857.78 8016.56 857.78 8016.55 857.78 8016.55 857.79 8016.56 857.78"/><polygon class="cls-24" points="7645.57 630.08 7645.57 630.09 7645.58 630.09 7645.57 630.08"/><polygon class="cls-24" points="7738.32 800.85 7738.32 800.86 7738.32 800.86 7738.32 800.85"/><polygon class="cls-24" points="8109.31 459.32 8109.3 459.31 8109.3 459.32 8109.31 459.32"/><polygon class="cls-24" points="7552.83 800.86 7552.83 800.86 7552.83 800.85 7552.83 800.86"/><polygon class="cls-24" points="8016.55 516.23 8016.55 516.25 8016.56 516.24 8016.55 516.23"/><polygon class="cls-24" points="7645.57 743.93 7645.57 743.94 7645.58 743.93 7645.57 743.93"/><polygon class="cls-24" points="7923.81 573.16 7923.81 573.17 7923.82 573.16 7923.81 573.16"/><polygon class="cls-7" points="7831.06 630.09 7831.06 743.93 7831.06 743.93 7831.06 743.93 7831.06 743.94 7831.06 743.94 7831.07 743.93 7923.81 687.02 7923.82 687.01 7923.81 687 7831.07 630.09 7831.06 630.08 7831.06 630.09 7831.06 630.09 7831.06 630.09"/><polygon class="cls-24" points="7738.32 687.01 7738.32 687.01 7738.32 687.01 7738.32 687.01 7738.32 687.02 7738.32 687.01"/><polygon class="cls-3" points="7738.32 687.04 7831.05 743.95 7831.06 743.95 7831.06 743.94 7831.06 630.12 7738.32 687.04"/><path class="cls-1" d="M7723.28,469.09Z" transform="translate(107.78 161)"/><polygon class="cls-43" points="8202.05 743.96 8202.05 743.94 8109.33 687.03 8109.31 687.04 8109.3 687.04 8109.3 800.87 8109.31 800.87 8202.05 743.96"/><polygon class="cls-44" points="8202.05 630.08 8202.05 630.07 8109.33 573.16 8109.31 573.17 8109.3 573.16 8109.3 686.99 8109.31 687 8202.05 630.08"/><polygon class="cls-7" points="7738.32 687 7738.32 686.99 7645.6 630.08 7645.59 630.09 7645.57 630.08 7645.57 743.91 7645.59 743.92 7738.32 687"/><polygon class="cls-13" points="8016.55 516.26 7999.51 526.72 7923.81 573.18 8016.55 630.1 8016.55 516.26"/><polygon class="cls-13" points="8016.4 630.84 7999.36 641.3 7923.66 687.76 8016.4 744.68 8016.4 630.84"/><polygon class="cls-11" points="8108.27 573.63 8091.23 584.09 8015.53 630.55 8108.27 687.47 8108.27 573.63"/><polygon class="cls-11" points="7830.12 612.57 7885.79 646.74 7885.79 646.74 7885.79 646.73 7885.79 578.4 7830.12 612.57"/></g></g><image width="7336" height="6737" transform="translate(605.78) scale(0.13 0.13)" xlink:href="../../../Logo/Logo%20CFB%20png.png"/><image width="1096" height="1258" transform="translate(7703.78 179) scale(0.23 0.23)" xlink:href="../../../../../Logos/CENTRE%20VAL%20DE%20LOIRE/QUADRI/FFF_LOGOTYPE_LIGUE_CENTRE_VAL_DE_LOIRE_QUADRI.png"/></g></g></svg>