<svg xmlns="http://www.w3.org/2000/svg" xmlns:xlink="http://www.w3.org/1999/xlink" viewBox="0 0 1078.23 154.31"><defs><style>.cls-1{fill:none;}.cls-2{isolation:isolate;}.cls-3{fill:#fff;}.cls-4{clip-path:url(#clip-path);}.cls-5{fill:#bb4242;}.cls-20,.cls-25,.cls-26,.cls-34,.cls-6,.cls-7{opacity:0.5;}.cls-10,.cls-20,.cls-25,.cls-26,.cls-27,.cls-34,.cls-6,.cls-7{mix-blend-mode:multiply;}.cls-6{fill:url(#linear-gradient);}.cls-7{fill:url(#linear-gradient-2);}.cls-8{fill:#7fa3b9;}.cls-37,.cls-9{fill:#528bb9;}.cls-10,.cls-27{opacity:0.3;}.cls-10{fill:url(#linear-gradient-3);}.cls-11{fill:#3e849d;}.cls-12{fill:#1f3235;}.cls-13{fill:#005d7f;}.cls-14{fill:url(#linear-gradient-4);}.cls-15{fill:url(#linear-gradient-5);}.cls-16{fill:url(#linear-gradient-6);}.cls-17{fill:url(#linear-gradient-7);}.cls-18{fill:url(#linear-gradient-9);}.cls-19{fill:url(#linear-gradient-10);}.cls-20{fill:url(#linear-gradient-11);}.cls-21{fill:#00181e;}.cls-22{fill:url(#linear-gradient-12);}.cls-23{fill:url(#linear-gradient-13);}.cls-24{clip-path:url(#clip-path-2);}.cls-25{fill:url(#linear-gradient-14);}.cls-26{fill:url(#linear-gradient-15);}.cls-27{fill:url(#linear-gradient-16);}.cls-28{fill:url(#linear-gradient-17);}.cls-29{fill:url(#linear-gradient-18);}.cls-30{fill:url(#linear-gradient-19);}.cls-31{fill:url(#linear-gradient-20);}.cls-32{fill:url(#linear-gradient-22);}.cls-33{fill:url(#linear-gradient-23);}.cls-34{fill:url(#linear-gradient-24);}.cls-35{fill:url(#linear-gradient-25);}.cls-36{fill:url(#linear-gradient-26);}.cls-37{font-size:28px;font-family:Nuvel-Regular, Nuvel;}.cls-38{letter-spacing:-0.11em;}.cls-39{letter-spacing:-0.02em;}.cls-40{font-size:32px;}.cls-41{font-size:14px;font-family:MyriadPro-It, Myriad Pro;font-style:italic;}.cls-42{letter-spacing:-0.03em;}.cls-43{letter-spacing:0em;}</style><clipPath id="clip-path" transform="translate(24.7 33.14)"><rect class="cls-1" x="849.1" y="-28.39" width="174.9" height="116.6" transform="translate(1873.1 59.82) rotate(180)"/></clipPath><linearGradient id="linear-gradient" x1="5504.33" y1="-6135.87" x2="5542.64" y2="-6108.42" gradientTransform="translate(7158.66 5601.99) rotate(-90)" gradientUnits="userSpaceOnUse"><stop offset="0.37" stop-color="#00181e"/><stop offset="0.38" stop-color="#092026"/><stop offset="0.4" stop-color="#374a4f"/><stop offset="0.43" stop-color="#627175"/><stop offset="0.46" stop-color="#889396"/><stop offset="0.5" stop-color="#a8b1b3"/><stop offset="0.53" stop-color="#c4c9cb"/><stop offset="0.57" stop-color="#daddde"/><stop offset="0.62" stop-color="#ebeced"/><stop offset="0.68" stop-color="#f6f7f7"/><stop offset="0.77" stop-color="#fdfdfd"/><stop offset="1" stop-color="#fff"/></linearGradient><linearGradient id="linear-gradient-2" x1="-624.49" y1="50.7" x2="-609.09" y2="22.98" gradientTransform="translate(357.8 152.96) rotate(180)" xlink:href="#linear-gradient"/><linearGradient id="linear-gradient-3" x1="5469.08" y1="-6260.4" x2="5491.71" y2="-6237.76" gradientTransform="translate(7158.66 5601.99) rotate(-90)" gradientUnits="userSpaceOnUse"><stop offset="0.4" stop-color="#fff"/><stop offset="0.56" stop-color="#fdfdfd"/><stop offset="0.64" stop-color="#f5f5f5"/><stop offset="0.71" stop-color="#e7e7e7"/><stop offset="0.77" stop-color="#d4d4d4"/><stop offset="0.82" stop-color="#bbb"/><stop offset="0.87" stop-color="#9d9d9c"/><stop offset="0.91" stop-color="#787877"/><stop offset="0.95" stop-color="#4e4e4d"/><stop offset="0.99" stop-color="#20201e"/><stop offset="1" stop-color="#161614"/></linearGradient><linearGradient id="linear-gradient-4" x1="5453.01" y1="8826.27" x2="5475.64" y2="8848.91" gradientTransform="matrix(0, -1, -1, 0, 9893.18, 5601.99)" gradientUnits="userSpaceOnUse"><stop offset="0" stop-color="#00181e"/><stop offset="0.14" stop-color="#00181e"/><stop offset="1" stop-color="#00181e"/></linearGradient><linearGradient id="linear-gradient-5" x1="5464.32" y1="8873.36" x2="5464.32" y2="8872.66" xlink:href="#linear-gradient-4"/><linearGradient id="linear-gradient-6" x1="5456.29" y1="8873.36" x2="5456.29" y2="8814.96" xlink:href="#linear-gradient-4"/><linearGradient id="linear-gradient-7" x1="5448.25" y1="8844.15" x2="5448.25" y2="8844.15" xlink:href="#linear-gradient-4"/><linearGradient id="linear-gradient-9" x1="5447.99" y1="8843.89" x2="5448.52" y2="8844.42" xlink:href="#linear-gradient-4"/><linearGradient id="linear-gradient-10" x1="5448.26" y1="8844.68" x2="5448.26" y2="8843.63" xlink:href="#linear-gradient-4"/><linearGradient id="linear-gradient-11" x1="-703.25" y1="99.36" x2="-692.85" y2="82.23" gradientTransform="translate(357.8 152.96) rotate(180)" xlink:href="#linear-gradient"/><linearGradient id="linear-gradient-12" x1="5496.46" y1="8844.16" x2="5496.46" y2="8814.95" gradientTransform="matrix(0, -1, -1, 0, 9893.18, 5601.99)" gradientUnits="userSpaceOnUse"><stop offset="0" stop-color="#00181e"/><stop offset="0.08" stop-color="#0b2126"/><stop offset="0.23" stop-color="#162b2f"/><stop offset="0.43" stop-color="#1d3034"/><stop offset="1" stop-color="#1f3235"/></linearGradient><linearGradient id="linear-gradient-13" x1="5528.61" y1="8844.16" x2="5528.61" y2="8814.95" xlink:href="#linear-gradient-12"/><clipPath id="clip-path-2" transform="translate(24.7 33.14)"><rect class="cls-1" y="-0.18" width="146.28" height="116.6"/></clipPath><linearGradient id="linear-gradient-14" x1="5710.61" y1="-6404.09" x2="5745.37" y2="-6379.17" gradientTransform="translate(-6357.59 -5651.47) rotate(90)" xlink:href="#linear-gradient"/><linearGradient id="linear-gradient-15" x1="-364.52" y1="255.34" x2="-349.19" y2="227.74" gradientTransform="translate(443.27 -202.44)" xlink:href="#linear-gradient"/><linearGradient id="linear-gradient-16" x1="5674.06" y1="-6510.09" x2="5694.31" y2="-6489.84" gradientTransform="translate(-6357.59 -5651.47) rotate(90)" xlink:href="#linear-gradient-3"/><linearGradient id="linear-gradient-17" x1="5657.99" y1="9102.24" x2="5678.24" y2="9122.48" gradientTransform="matrix(0, 1, 1, 0, -9092.11, -5651.47)" xlink:href="#linear-gradient-4"/><linearGradient id="linear-gradient-18" x1="5668.12" y1="9140.97" x2="5668.12" y2="9140.38" gradientTransform="matrix(0, 1, 1, 0, -9092.11, -5651.47)" xlink:href="#linear-gradient-4"/><linearGradient id="linear-gradient-19" x1="5660.08" y1="9140.96" x2="5660.08" y2="9092.12" gradientTransform="matrix(0, 1, 1, 0, -9092.11, -5651.47)" xlink:href="#linear-gradient-4"/><linearGradient id="linear-gradient-20" x1="5652.04" y1="9116.54" x2="5652.04" y2="9116.54" gradientTransform="matrix(0, 1, 1, 0, -9092.11, -5651.47)" xlink:href="#linear-gradient-4"/><linearGradient id="linear-gradient-22" x1="5651.83" y1="9116.32" x2="5652.27" y2="9116.76" gradientTransform="matrix(0, 1, 1, 0, -9092.11, -5651.47)" xlink:href="#linear-gradient-4"/><linearGradient id="linear-gradient-23" x1="5652.05" y1="9116.98" x2="5652.05" y2="9116.1" gradientTransform="matrix(0, 1, 1, 0, -9092.11, -5651.47)" xlink:href="#linear-gradient-4"/><linearGradient id="linear-gradient-24" x1="-432.39" y1="301.73" x2="-422.11" y2="284.79" gradientTransform="translate(443.27 -202.44)" xlink:href="#linear-gradient"/><linearGradient id="linear-gradient-25" x1="5700.25" y1="9116.54" x2="5700.25" y2="9092.11" gradientTransform="matrix(0, 1, 1, 0, -9092.11, -5651.47)" xlink:href="#linear-gradient-12"/><linearGradient id="linear-gradient-26" x1="5732.4" y1="9116.54" x2="5732.4" y2="9092.11" gradientTransform="matrix(0, 1, 1, 0, -9092.11, -5651.47)" xlink:href="#linear-gradient-12"/></defs><g class="cls-2"><g id="Calque_1" data-name="Calque 1"><rect class="cls-3" x="24.7" y="34.14" width="1024" height="87"/><g class="cls-4"><polygon class="cls-1" points="990.62 121.59 990.62 153.73 990.62 153.73 990.62 153.73 990.62 153.73 990.62 121.59 990.62 121.59 1019.82 105.52 1019.82 105.52 990.62 121.59 990.62 121.59"/><polygon class="cls-1" points="961.41 137.66 961.41 137.66 932.21 153.73 932.21 153.73 932.21 121.59 932.21 121.59 932.21 121.59 932.21 89.45 932.21 89.45 932.21 89.45 932.21 121.59 932.21 121.59 932.21 121.59 932.21 153.73 932.21 153.73 961.41 137.66"/><polygon class="cls-1" points="1019.82 137.66 990.62 153.73 990.62 153.73 1019.82 137.66"/><polygon class="cls-1" points="1040.87 52.82 1019.82 41.24 1019.82 41.24 1019.82 41.24 1040.87 52.82"/><polygon class="cls-1" points="1078.23 73.38 1078.23 73.38 1078.23 73.39 1078.23 73.38"/><polygon class="cls-1" points="1049.02 57.31 1043.66 60.26 1049.02 57.31 1049.02 57.31"/><polygon class="cls-5" points="1019.82 105.52 1049.02 89.45 1049.02 89.45 1019.82 73.38 1019.82 73.38 1019.82 73.38 1019.82 73.38 1019.82 105.52 1019.82 105.52"/><polygon class="cls-6" points="1049.02 57.31 1043.66 60.26 1019.82 73.38 1049.02 89.44 1049.02 57.31"/><polygon class="cls-7" points="961.41 137.66 961.42 137.66 990.62 121.59 990.62 121.59 961.42 105.52 961.41 105.52 961.41 105.52 961.41 137.66 961.41 137.66"/><polygon class="cls-8" points="990.62 89.45 961.42 105.52 990.62 121.59 990.62 89.45"/><polygon class="cls-9" points="990.62 121.59 1019.82 105.52 1019.82 105.52 990.62 89.45 990.62 89.45 990.62 121.59 990.62 121.59"/><polygon class="cls-9" points="932.2 121.78 961.4 105.71 961.4 105.71 932.2 89.64 932.19 89.64 932.19 121.78 932.2 121.78"/><polygon class="cls-8" points="903.01 105.52 932.21 121.59 932.21 89.45 903.01 105.52"/><polygon class="cls-10" points="932.21 121.59 932.21 121.59 903.01 105.52 903.01 105.52 903.01 137.66 903.01 137.66 932.21 121.59"/><polygon class="cls-11" points="873.81 121.59 903.01 137.66 903.01 105.52 873.81 121.59"/><polygon class="cls-9" points="1019.82 105.52 1019.82 137.66 1019.82 137.66 1019.82 137.66 1019.82 137.66 1019.82 137.66 1049.02 121.59 1049.02 121.59 1019.82 105.52 1019.82 105.52 1019.82 105.52"/><polygon class="cls-8" points="990.62 121.59 990.62 153.73 990.62 153.73 1019.82 137.66 1019.82 137.66 1019.82 137.66 1019.82 105.52 990.62 121.59 990.62 121.59"/><polygon class="cls-12" points="990.62 121.59 961.42 137.66 990.62 153.73 990.62 121.59"/><polygon class="cls-13" points="1048.7 154.31 1048.7 122.17 1019.5 138.24 1048.7 154.31"/><polygon class="cls-14" points="1049.02 153.73 1049.02 153.73 1049.03 153.73 1049.03 153.73 1049.03 153.73 1078.23 137.66 1078.23 137.66 1049.03 121.59 1049.02 121.59 1049.02 153.73 1049.02 153.73"/><rect class="cls-12" x="1019.82" y="137.66"/><rect class="cls-15" x="1019.82" y="137.66"/><rect class="cls-13" x="1034.42" y="129.03" height="33.33"/><rect class="cls-16" x="1034.42" y="129.03" height="33.33"/><rect class="cls-17" x="1049.03" y="153.73"/><rect class="cls-17" x="1049.03" y="153.73"/><rect class="cls-18" x="1049.02" y="153.73"/><rect class="cls-19" x="1049.02" y="153.73"/><polygon class="cls-11" points="932.21 153.73 932.21 153.73 961.41 137.66 961.41 137.66 961.42 137.66 961.41 137.66 961.41 137.66 961.41 105.52 932.21 121.59 932.21 121.59 932.21 153.73"/><polygon class="cls-13" points="903.01 137.66 932.21 153.73 932.21 121.59 903.01 137.66"/><polygon class="cls-13" points="932.21 89.45 932.21 89.45 903.01 73.38 903.01 73.38 903.01 105.52 903.01 105.52 932.21 89.45"/><polygon class="cls-5" points="1040.87 52.82 1049.02 57.31 1048.7 34.14 1019.82 41.24 1040.87 52.82"/><polygon class="cls-20" points="1019.82 41.24 1019.82 41.24 990.62 57.31 1019.82 73.38 1019.82 73.38 1019.82 73.38 1019.82 73.38 1019.82 73.38 1019.82 73.38 1019.82 73.38 1043.66 60.26 1049.02 57.31 1049.02 57.31 1049.02 89.45 1049.02 89.45 1019.82 105.52 1049.02 121.59 1049.02 121.59 1049.03 121.59 1078.23 137.66 1078.23 105.52 1078.23 105.52 1078.23 105.52 1078.23 105.52 1049.03 89.45 1078.22 73.38 1049.03 57.31 1049.03 57.31 1049.03 57.31 1049.02 57.31 1049.02 57.31 1049.02 57.31 1040.87 52.82 1019.82 41.24"/><polygon class="cls-3" points="1019.82 73.38 1019.82 73.38 990.62 57.31 990.62 57.31 990.62 89.45 990.62 89.45 1019.82 73.38"/><polygon class="cls-21" points="1078.23 73.38 1078.23 73.38 1078.23 73.38 1078.23 73.38"/><polygon class="cls-21" points="990.62 121.59 990.62 121.59 990.62 121.59 990.62 121.59"/><polygon class="cls-21" points="1019.82 105.52 1019.82 105.52 1019.82 105.52 1019.82 105.52"/><polygon class="cls-21" points="1078.23 137.66 1078.23 137.66 1078.23 137.66 1078.23 137.66"/><polygon class="cls-21" points="1049.02 153.73 1049.03 153.73 1049.03 153.73 1049.02 153.73 1049.02 153.73 1049.02 153.73"/><polygon class="cls-21" points="903.01 137.66 903.01 137.66 903.01 137.66 903.01 137.66"/><polygon class="cls-5" points="959.67 55.63 959.67 55.63 949.52 61.21 959.67 66.8 959.67 55.63"/><polygon class="cls-9" points="899.7 73.03 899.7 73.03 883.76 81.8 899.7 90.57 899.7 73.03"/><rect class="cls-21" x="1019.82" y="137.66"/><polygon class="cls-21" points="903.01 73.38 903.01 73.38 903.01 73.38 903.01 73.38"/><polygon class="cls-21" points="932.21 121.59 932.21 121.59 932.21 121.59 932.21 121.59"/><polygon class="cls-21" points="1049.03 25.17 1049.02 25.16 1049.02 25.17 1049.03 25.17"/><polygon class="cls-21" points="873.8 121.59 873.81 121.59 873.8 121.59 873.8 121.59"/><polygon class="cls-21" points="1019.82 41.24 1019.82 41.24 1019.82 41.24 1019.82 41.24"/><polygon class="cls-21" points="903.01 105.52 903.01 105.52 903.01 105.52 903.01 105.52"/><polygon class="cls-21" points="990.62 57.31 990.62 57.31 990.62 57.31 990.62 57.31"/><polygon class="cls-5" points="961.41 73.38 961.41 105.52 961.41 105.52 961.41 105.52 961.41 105.52 961.41 105.52 961.42 105.52 990.62 89.45 990.62 89.45 990.62 89.45 961.42 73.38 961.41 73.38 961.41 73.38 961.41 73.38 961.41 73.38"/><polygon class="cls-21" points="932.21 89.45 932.21 89.45 932.21 89.45 932.21 89.45 932.21 89.45 932.21 89.45"/><polygon class="cls-3" points="932.21 89.46 961.41 105.52 961.41 105.53 961.41 105.52 961.41 73.39 932.21 89.46"/><path class="cls-1" d="M936.71,40.24Z" transform="translate(24.7 33.14)"/><polygon class="cls-22" points="1078.23 105.53 1078.23 105.52 1049.03 89.46 1049.03 89.46 1049.02 89.46 1049.02 121.59 1049.03 121.59 1078.23 105.53"/><polygon class="cls-23" points="1078.23 73.38 1078.23 73.37 1049.03 57.31 1049.03 57.31 1049.02 57.31 1049.02 89.44 1049.03 89.45 1078.23 73.38"/><polygon class="cls-5" points="932.21 89.45 932.21 89.44 903.02 73.38 903.01 73.38 903.01 73.38 903.01 105.51 903.01 105.52 932.21 89.45"/><polygon class="cls-11" points="1019.82 41.24 1014.45 44.2 990.62 57.31 1019.82 73.38 1019.82 41.24"/><polygon class="cls-11" points="1019.77 73.59 1014.4 76.55 990.57 89.66 1019.77 105.73 1019.77 73.59"/><polygon class="cls-9" points="1048.7 57.44 1043.33 60.39 1019.5 73.51 1048.7 89.58 1048.7 57.44"/><polygon class="cls-9" points="961.12 68.43 978.64 78.08 978.65 78.08 978.65 78.08 978.65 58.79 961.12 68.43"/></g><g class="cls-24"><polygon class="cls-1" points="73.28 32.72 73.28 0.58 73.28 0.58 73.28 0.58 73.28 0.58 73.28 32.72 73.28 32.72 48.85 48.79 48.85 48.79 73.28 32.72 73.28 32.72"/><polygon class="cls-1" points="97.7 16.64 97.7 16.64 122.13 0.58 122.13 0.58 122.13 32.72 122.13 32.72 122.13 32.72 122.13 64.86 122.13 64.86 122.13 64.86 122.13 32.72 122.13 32.72 122.13 32.72 122.13 0.58 122.13 0.58 97.7 16.64"/><polygon class="cls-1" points="48.85 16.64 73.28 0.58 73.28 0.58 48.85 16.64"/><polygon class="cls-1" points="31.25 101.49 48.85 113.07 48.85 113.07 48.85 113.07 31.25 101.49"/><polygon class="cls-1" points="0 80.92 0 80.93 0 80.92 0 80.92"/><polygon class="cls-1" points="24.43 97 28.92 94.04 24.43 97 24.43 97"/><polygon class="cls-5" points="48.85 48.79 24.43 64.86 24.43 64.86 48.85 80.93 48.85 80.93 48.85 80.93 48.85 80.93 48.85 48.79 48.85 48.79"/><polygon class="cls-25" points="24.43 97 28.92 94.05 48.85 80.93 24.43 64.86 24.43 97"/><polygon class="cls-26" points="97.7 16.65 97.7 16.65 73.28 32.72 73.28 32.72 97.7 48.79 97.7 48.79 97.7 48.79 97.7 16.65 97.7 16.65"/><polygon class="cls-8" points="73.28 64.86 97.7 48.79 73.28 32.72 73.28 64.86"/><polygon class="cls-9" points="73.28 32.72 48.85 48.79 48.85 48.79 73.28 64.86 73.28 64.86 73.28 32.72 73.28 32.72"/><polygon class="cls-9" points="122.14 32.52 97.72 48.59 97.72 48.6 122.14 64.67 122.14 64.66 122.14 32.53 122.14 32.52"/><polygon class="cls-8" points="146.55 48.79 122.13 32.72 122.13 64.86 146.55 48.79"/><polygon class="cls-27" points="122.13 32.72 122.13 32.72 146.55 48.79 146.56 48.79 146.56 16.65 146.55 16.65 122.13 32.72"/><polygon class="cls-11" points="170.98 32.72 146.56 16.65 146.56 48.79 170.98 32.72"/><polygon class="cls-9" points="48.85 48.79 48.85 16.65 48.85 16.65 48.85 16.65 48.85 16.65 48.85 16.65 24.43 32.72 24.43 32.72 48.85 48.79 48.85 48.79 48.85 48.79"/><polygon class="cls-8" points="73.28 32.72 73.28 0.58 73.28 0.58 48.85 16.64 48.85 16.65 48.85 16.65 48.85 48.79 73.28 32.72 73.28 32.72"/><polygon class="cls-12" points="73.28 32.72 97.7 16.65 73.28 0.58 73.28 32.72"/><polygon class="cls-13" points="24.7 0 24.7 32.14 49.12 16.07 24.7 0"/><polygon class="cls-28" points="24.43 0.58 24.43 0.58 24.43 0.58 24.43 0.58 24.43 0.58 0 16.64 0 16.65 24.43 32.72 24.43 32.72 24.43 0.58 24.43 0.58"/><rect class="cls-12" x="48.85" y="16.65"/><rect class="cls-29" x="48.85" y="16.65"/><rect class="cls-13" x="36.64" y="-6.01" height="29.23"/><rect class="cls-30" x="36.64" y="-6.01" height="29.23"/><rect class="cls-31" x="24.43" y="0.58"/><rect class="cls-31" x="24.43" y="0.58"/><rect class="cls-32" x="24.43" y="0.58"/><rect class="cls-33" x="24.43" y="0.58"/><polygon class="cls-11" points="122.13 0.58 122.13 0.58 97.7 16.64 97.7 16.64 97.7 16.65 97.7 16.65 97.7 16.65 97.7 48.79 122.13 32.72 122.13 32.72 122.13 0.58"/><polygon class="cls-13" points="146.55 16.65 122.13 0.58 122.13 32.72 146.55 16.65"/><polygon class="cls-13" points="122.13 64.86 122.13 64.86 146.55 80.93 146.56 80.93 146.56 48.79 146.55 48.79 122.13 64.86"/><polygon class="cls-5" points="31.52 102.49 24.7 98 24.97 121.14 49.12 114.07 31.52 102.49"/><polygon class="cls-34" points="48.85 113.07 48.85 113.07 73.28 97 48.85 80.93 48.85 80.93 48.85 80.93 48.85 80.93 48.85 80.93 48.85 80.93 48.85 80.93 28.92 94.04 24.43 97 24.43 97 24.43 64.86 24.43 64.86 48.85 48.79 24.43 32.72 24.43 32.72 24.43 32.72 0 16.65 0 48.78 0 48.78 0 48.79 0 48.79 24.43 64.86 0 80.93 24.43 96.99 24.42 97 24.43 97 24.43 97 24.43 97 24.43 97 31.25 101.49 48.85 113.07"/><polygon class="cls-3" points="48.85 80.93 48.85 80.93 73.28 97 73.28 97 73.28 64.86 73.28 64.86 48.85 80.93"/><polygon class="cls-21" points="0 80.93 0 80.93 0 80.93 0 80.93"/><polygon class="cls-21" points="73.28 32.72 73.28 32.72 73.28 32.72 73.28 32.72"/><polygon class="cls-21" points="48.85 48.79 48.85 48.79 48.85 48.79 48.85 48.79"/><polygon class="cls-21" points="0 16.65 0 16.65 0 16.64 0 16.65"/><polygon class="cls-21" points="24.43 0.57 24.43 0.58 24.43 0.58 24.43 0.58 24.43 0.58 24.43 0.57"/><polygon class="cls-21" points="146.56 16.65 146.56 16.64 146.55 16.65 146.56 16.65"/><polygon class="cls-5" points="99.16 98.68 99.16 98.68 107.65 93.09 99.16 87.51 99.16 98.68"/><polygon class="cls-9" points="149.32 81.28 149.32 81.28 162.65 72.51 149.32 63.74 149.32 81.28"/><rect class="cls-21" x="48.85" y="16.64"/><polygon class="cls-21" points="146.56 80.93 146.56 80.93 146.55 80.93 146.56 80.93"/><polygon class="cls-21" points="122.13 32.72 122.13 32.72 122.13 32.72 122.13 32.72"/><polygon class="cls-21" points="24.43 129.14 24.43 129.14 24.43 129.14 24.43 129.14"/><polygon class="cls-21" points="170.98 32.72 170.98 32.72 170.98 32.72 170.98 32.72"/><polygon class="cls-21" points="48.85 113.07 48.85 113.07 48.85 113.07 48.85 113.07"/><polygon class="cls-21" points="146.56 48.79 146.56 48.79 146.55 48.79 146.56 48.79"/><polygon class="cls-21" points="73.28 97 73.28 97 73.28 97 73.28 97"/><polygon class="cls-5" points="97.7 80.93 97.7 48.79 97.7 48.79 97.7 48.79 97.7 48.79 97.7 48.79 97.7 48.79 73.28 64.86 73.28 64.86 73.28 64.86 97.7 80.93 97.7 80.93 97.7 80.93 97.7 80.93 97.7 80.93"/><polygon class="cls-21" points="122.13 64.86 122.13 64.86 122.13 64.86 122.13 64.86 122.13 64.86 122.13 64.86"/><polygon class="cls-3" points="122.13 64.85 97.71 48.78 97.71 48.78 97.71 48.78 97.71 80.92 122.13 64.85"/><path class="cls-1" d="M73,47.79Z" transform="translate(24.7 33.14)"/><polygon class="cls-35" points="0 48.78 0 48.78 24.42 64.85 24.42 64.85 24.43 64.85 24.43 32.72 24.42 32.71 0 48.78"/><polygon class="cls-36" points="0 80.93 0 80.93 24.42 97 24.42 97 24.43 97 24.43 64.86 24.42 64.86 0 80.93"/><polygon class="cls-5" points="122.13 64.86 122.13 64.86 146.55 80.93 146.55 80.93 146.56 80.93 146.56 48.79 146.55 48.79 122.13 64.86"/><polygon class="cls-11" points="48.85 113.06 53.34 110.11 73.28 96.99 48.85 80.93 48.85 113.06"/><polygon class="cls-11" points="48.89 80.72 53.38 77.76 73.32 64.65 48.89 48.58 48.89 80.72"/><polygon class="cls-9" points="24.7 96.87 29.19 93.91 49.12 80.8 24.7 64.73 24.7 96.87"/><polygon class="cls-9" points="97.95 85.87 83.29 76.23 83.29 76.23 83.29 76.23 83.29 95.52 97.95 85.87"/></g><text class="cls-37" transform="translate(398.3 85.87)">CHE<tspan class="cls-38" x="51.97" y="0">R</tspan><tspan x="66.7" y="0">CHE, T</tspan><tspan class="cls-38" x="151.7" y="0">R</tspan><tspan x="166.43" y="0">OUVE ET INSC</tspan><tspan class="cls-39" x="346.55" y="0">R</tspan><tspan x="363.94" y="0">IS-TOI !</tspan><tspan class="cls-40" x="461.07" y="0"> </tspan></text><text class="cls-41" transform="translate(224.43 85.08)"><tspan class="cls-42">L</tspan><tspan class="cls-43" x="5.82" y="0">o</tspan><tspan x="13.17" y="0">go</tspan></text></g></g></svg>