<svg id="Calque_1" data-name="Calque 1" xmlns="http://www.w3.org/2000/svg" viewBox="0 0 220.25 285.99"><defs><style>.cls-1{fill:#e30613;}.cls-2{fill:#fff;}.cls-3,.cls-7{fill:none;stroke-miterlimit:10;}.cls-3{stroke:#0d1d3e;stroke-width:2px;}.cls-4{fill:#31416b;}.cls-5{opacity:0.92;}.cls-6{fill:#2c4f81;}.cls-7{stroke:#e30613;}.cls-8{fill:#19203b;}</style></defs><path class="cls-1" d="M514.32,186.42v-37.8a480.86,480.86,0,0,0-109.14-13.15A480.74,480.74,0,0,0,296,148.62v62.61c63.31-52.82,172.85-35.11,217.11-25A5.74,5.74,0,0,1,514.32,186.42Z" transform="translate(-294.93 -135.47)"/><path class="cls-2" d="M514.08,189.44c-45.29-9.2-168.46-26.49-218,44.24v51.49s-7.71,100.72,109,135.25c116.71-34.53,109-135.25,109-135.25V189.44Z" transform="translate(-294.93 -135.47)"/><path class="cls-3" d="M514.08,189.44c-45.29-9.2-168.46-26.49-218,44.24v51.49s-7.71,100.72,109,135.25c116.71-34.53,109-135.25,109-135.25V189.44Z" transform="translate(-294.93 -135.47)"/><path class="cls-4" d="M319.28,283l2-2.3a10.26,10.26,0,0,0,7.24,3.26c3.44,0,5.49-1.72,5.49-4.27s-1.91-3.54-4.38-4.62l-3.77-1.66c-2.45-1-5.32-2.9-5.32-6.76s3.5-7,8.27-7a10.8,10.8,0,0,1,7.72,3.26l-1.77,2.14a8.38,8.38,0,0,0-5.95-2.46c-2.95,0-4.9,1.49-4.9,3.83,0,2.53,2.29,3.48,4.35,4.35l3.74,1.62c3,1.3,5.41,3.11,5.41,7,0,4.15-3.43,7.46-9,7.46A12.59,12.59,0,0,1,319.28,283Z" transform="translate(-294.93 -135.47)"/><path class="cls-4" d="M342.54,260.16h15.13V263H345.88v8.23h9.95V274h-9.95v9.55h12.19v2.82H342.54Z" transform="translate(-294.93 -135.47)"/><path class="cls-4" d="M363.62,260.16h8.22c5.35,0,9.19,1.92,9.19,7.39,0,5.24-3.84,7.77-9.19,7.77H367v11.09h-3.34Zm7.74,12.45c4.09,0,6.34-1.66,6.34-5.06s-2.25-4.68-6.34-4.68H367v9.74Zm-.18,1.79,2.62-1.73,8,13.74H378Z" transform="translate(-294.93 -135.47)"/><path class="cls-4" d="M383,260.16h3.54l4.23,14.19c.92,3.09,1.56,5.59,2.53,8.67h.16c1-3.08,1.62-5.58,2.52-8.67l4.21-14.19h3.4l-8.34,26.25h-3.87Z" transform="translate(-294.93 -135.47)"/><path class="cls-4" d="M407,260.16h3.34v26.25H407Z" transform="translate(-294.93 -135.47)"/><path class="cls-4" d="M416,273.31c0-8.46,5-13.63,11.64-13.63a9.76,9.76,0,0,1,7.22,3.24l-1.83,2.18a7.11,7.11,0,0,0-5.33-2.48c-5,0-8.25,4.06-8.25,10.6S422.61,284,427.59,284a7.88,7.88,0,0,0,6.09-2.95l1.83,2.09a10.14,10.14,0,0,1-8.06,3.79C420.92,286.89,416,281.84,416,273.31Z" transform="translate(-294.93 -135.47)"/><path class="cls-4" d="M440.38,260.16h15.13V263H443.72v8.23h9.94V274h-9.94v9.55h12.19v2.82H440.38Z" transform="translate(-294.93 -135.47)"/><g class="cls-5"><path class="cls-1" d="M506.22,228.64h0a19.79,19.79,0,0,0-19.79-19.79h-14.3a19.79,19.79,0,0,0-19.79,19.79h0a19.79,19.79,0,0,0,19.79,19.78h8.4c5.19,8,13.13,12.29,20.16,12.32a18.92,18.92,0,0,1-6.1-14.08A19.78,19.78,0,0,0,506.22,228.64Z" transform="translate(-294.93 -135.47)"/><path class="cls-6" d="M458.8,190.21H444.5A19.79,19.79,0,0,0,424.71,210h0a19.79,19.79,0,0,0,11.62,18,18.89,18.89,0,0,1-6.09,14.08c7,0,15-4.33,20.16-12.32h8.4A19.79,19.79,0,0,0,478.59,210h0A19.79,19.79,0,0,0,458.8,190.21Z" transform="translate(-294.93 -135.47)"/></g><path class="cls-1" d="M372.92,303.2c0-8.21,5.43-13,11.69-13a10.41,10.41,0,0,1,7.44,3.22L389.1,297a6.21,6.21,0,0,0-4.37-2c-3.4,0-6.08,3-6.08,7.95s2.37,8.05,6,8.05a6.57,6.57,0,0,0,4.85-2.31l2.95,3.51a10.21,10.21,0,0,1-8,3.64C378.16,315.9,372.92,311.54,372.92,303.2Z" transform="translate(-294.93 -135.47)"/><path class="cls-1" d="M396.2,290.68h5.6v20.07h9.78v4.69H396.2Z" transform="translate(-294.93 -135.47)"/><path class="cls-1" d="M414.34,304V290.68h5.6v13.86c0,4.85,1.53,6.52,4.3,6.52s4.39-1.67,4.39-6.52V290.68H434V304c0,8.31-3.37,11.93-9.78,11.93S414.34,312.28,414.34,304Z" transform="translate(-294.93 -135.47)"/><path class="cls-1" d="M439.75,290.68h8.48c5.14,0,9.13,1.41,9.13,6.14a5.72,5.72,0,0,1-3.27,5.35v.15a5.64,5.64,0,0,1,4.49,5.83c0,5-4.26,7.29-9.65,7.29h-9.18ZM448,300.6c2.71,0,3.91-1.15,3.91-3S450.62,295,448,295h-2.66v5.6Zm.51,10.52c3,0,4.62-1.08,4.62-3.34s-1.55-3-4.62-3h-3.13v6.39Z" transform="translate(-294.93 -135.47)"/><path class="cls-1" d="M460.46,312.32l3.21-3.84a9.87,9.87,0,0,0,6.08,2.58c2.34,0,3.48-.92,3.48-2.39s-1.4-2.06-3.57-2.95l-3.21-1.37c-2.57-1-5-3.15-5-6.75,0-4.1,3.66-7.38,8.82-7.38a11.44,11.44,0,0,1,8,3.25L475.41,297a8,8,0,0,0-5.14-1.94c-1.93,0-3.16.8-3.16,2.22s1.62,2.07,3.78,2.93l3.15,1.28c3,1.22,4.92,3.23,4.92,6.73,0,4.11-3.43,7.68-9.33,7.68A13.63,13.63,0,0,1,460.46,312.32Z" transform="translate(-294.93 -135.47)"/><line class="cls-7" x1="64.61" y1="221.3" x2="151.7" y2="221.3"/><path class="cls-8" d="M361.09,377.94a3.21,3.21,0,0,1,.22-1.29,1.88,1.88,0,0,1,.62-.81,2.56,2.56,0,0,1,1-.4,6.84,6.84,0,0,1,1.37-.11h2.61a10.39,10.39,0,0,1,1.87.13,2.42,2.42,0,0,1,1.06.44,1.54,1.54,0,0,1,.49.81,5.45,5.45,0,0,1,.13,1.34h-2.22v-.2a.54.54,0,0,0-.26-.52,1.58,1.58,0,0,0-.78-.15h-2.42a1.35,1.35,0,0,0-1.1.36,1.73,1.73,0,0,0-.29,1.09v.79a1.86,1.86,0,0,0,.26,1.13,1.27,1.27,0,0,0,1,.32H367a5.08,5.08,0,0,0,.65,0,1,1,0,0,0,.38-.12.66.66,0,0,0,.21-.31,1.88,1.88,0,0,0,.06-.53h2.22v.67a3,3,0,0,1-.11.89,1.4,1.4,0,0,1-.4.67,1.84,1.84,0,0,1-.82.46,4.59,4.59,0,0,1-1.34.16h-3.58a6.77,6.77,0,0,1-1.37-.12,2.56,2.56,0,0,1-1-.4,1.79,1.79,0,0,1-.62-.8,3.27,3.27,0,0,1-.22-1.3Z" transform="translate(-294.93 -135.47)"/><path class="cls-8" d="M371.87,375.4h7.92v1.68h-5.7v1.17h5.4v1.5h-5.4v1.15h5.83v1.74h-8.05Z" transform="translate(-294.93 -135.47)"/><path class="cls-8" d="M381.26,375.4h3.44l4.17,5.27h0V375.4h2.22v7.24h-3.44l-4.17-5.26h0v5.26h-2.22Z" transform="translate(-294.93 -135.47)"/><path class="cls-8" d="M392.08,375.4h8.46v1.81h-3.12v5.43H395.2v-5.43h-3.12Z" transform="translate(-294.93 -135.47)"/><path class="cls-8" d="M401.51,375.4h6.7a3.44,3.44,0,0,1,1.05.15,1.69,1.69,0,0,1,.67.43,1.72,1.72,0,0,1,.35.67,3.54,3.54,0,0,1,.1.9V378a2.31,2.31,0,0,1-.25,1.2,1.46,1.46,0,0,1-1,.58v0a2.59,2.59,0,0,1,.49.15,1.22,1.22,0,0,1,.38.26,1.17,1.17,0,0,1,.25.47,2.55,2.55,0,0,1,.09.73v1.22h-2.22v-.87a1.22,1.22,0,0,0-.19-.79,1,1,0,0,0-.72-.22h-3.49v1.88h-2.22Zm2.22,3.56h3.67a.93.93,0,0,0,.63-.17.77.77,0,0,0,.19-.58V378a.68.68,0,0,0-.23-.61,1.52,1.52,0,0,0-.79-.14h-3.47Z" transform="translate(-294.93 -135.47)"/><path class="cls-8" d="M411.88,375.4h7.92v1.68h-5.7v1.17h5.4v1.5h-5.4v1.15h5.83v1.74h-8.05Z" transform="translate(-294.93 -135.47)"/><path class="cls-8" d="M421.34,379.21h2.8V381h-2.8Z" transform="translate(-294.93 -135.47)"/><path class="cls-8" d="M425,375.4h2.43l2.83,5.39,2.83-5.39h2.43l-3.89,7.24H428.9Z" transform="translate(-294.93 -135.47)"/><path class="cls-8" d="M438.62,375.4h2.89l4,7.24H443l-.69-1.27h-4.5l-.65,1.27H434.7Zm0,4.4h2.84l-1.44-2.72Z" transform="translate(-294.93 -135.47)"/><path class="cls-8" d="M446.28,375.4h2.22v5.39h5v1.85h-7.21Z" transform="translate(-294.93 -135.47)"/><path class="cls-8" d="M373.85,387.4h6.7a3.66,3.66,0,0,1,2.33.58,2.45,2.45,0,0,1,.67,1.94v2.2a2.42,2.42,0,0,1-.67,1.94,3.59,3.59,0,0,1-2.33.58h-6.7Zm2.22,5.39H380a1.53,1.53,0,0,0,1-.28,1.42,1.42,0,0,0,.29-1v-1a1.4,1.4,0,0,0-.29-1,1.53,1.53,0,0,0-1-.27h-3.94Z" transform="translate(-294.93 -135.47)"/><path class="cls-8" d="M384.89,387.4h7.92v1.68h-5.7v1.17h5.4v1.5h-5.4v1.15h5.83v1.74h-8.05Z" transform="translate(-294.93 -135.47)"/><path class="cls-8" d="M399.22,387.4h2.22v5.39h5v1.85h-7.21Z" transform="translate(-294.93 -135.47)"/><path class="cls-8" d="M407.21,389.94a3.21,3.21,0,0,1,.22-1.29,1.88,1.88,0,0,1,.62-.81,2.56,2.56,0,0,1,1-.4,6.84,6.84,0,0,1,1.37-.11H414a7.87,7.87,0,0,1,1.38.11,2.64,2.64,0,0,1,1,.41,1.79,1.79,0,0,1,.62.8,3.41,3.41,0,0,1,.21,1.29v2.16a3.41,3.41,0,0,1-.21,1.29,1.79,1.79,0,0,1-.62.8,2.48,2.48,0,0,1-1,.41,7,7,0,0,1-1.38.12H410.4a6.77,6.77,0,0,1-1.37-.12,2.56,2.56,0,0,1-1-.4,1.79,1.79,0,0,1-.62-.8,3.27,3.27,0,0,1-.22-1.3Zm2.28,1.48a1.86,1.86,0,0,0,.26,1.13,1.25,1.25,0,0,0,1,.32h2.84a1.28,1.28,0,0,0,1-.32,1.86,1.86,0,0,0,.25-1.13v-.79a1.73,1.73,0,0,0-.28-1.09,1.37,1.37,0,0,0-1.11-.36h-2.6a1.34,1.34,0,0,0-1.1.36,1.73,1.73,0,0,0-.29,1.09Z" transform="translate(-294.93 -135.47)"/><path class="cls-8" d="M418.61,387.4h2.22v7.24h-2.22Z" transform="translate(-294.93 -135.47)"/><path class="cls-8" d="M422.45,387.4h6.7a3.44,3.44,0,0,1,1.05.15,1.69,1.69,0,0,1,.67.43,1.72,1.72,0,0,1,.35.67,3.54,3.54,0,0,1,.1.9V390a2.31,2.31,0,0,1-.25,1.2,1.46,1.46,0,0,1-1,.58v0a2.59,2.59,0,0,1,.49.15,1.35,1.35,0,0,1,.38.26,1.17,1.17,0,0,1,.25.47,2.55,2.55,0,0,1,.09.73v1.22h-2.22v-.87a1.22,1.22,0,0,0-.19-.79,1,1,0,0,0-.72-.22h-3.49v1.88h-2.22Zm2.22,3.56h3.67a1,1,0,0,0,.63-.17.77.77,0,0,0,.19-.58V390a.71.71,0,0,0-.23-.61,1.54,1.54,0,0,0-.79-.14h-3.47Z" transform="translate(-294.93 -135.47)"/><path class="cls-8" d="M432.82,387.4h7.92v1.68H435v1.17h5.4v1.5H435v1.15h5.83v1.74h-8.05Z" transform="translate(-294.93 -135.47)"/><path class="cls-2" d="M346.8,148.63l5.66-.6,1.45,13.72,12.73-1.34.5,4.74-18.39,1.94Z" transform="translate(-294.93 -135.47)"/><path class="cls-2" d="M370.5,146.33l5.68-.39,1.28,18.54-5.68.39Z" transform="translate(-294.93 -135.47)"/><path class="cls-2" d="M382.74,152c-.12-5.43,2.9-6.79,8-6.9l8.56-.19c6.46-.15,7.41,2.16,7.49,5.78v.59l-5.59.12c0-1.84-1.09-2-2.91-2l-6.18.14c-2.87.06-3.6.77-3.53,4l.06,2.31c.07,3.18.83,3.85,3.7,3.79l6.07-.14c1.49,0,3-.3,2.93-2.09v-.54l-7.08.16-.09-3.84,12.77-.29.12,5.28c.12,5.33-2.64,5.65-9,5.79l-6.85.16c-5.12.11-8.2-1.1-8.32-6.53Z" transform="translate(-294.93 -135.47)"/><path class="cls-2" d="M413.31,145l5.69.26L418.5,156c-.11,2.35.69,3.32,3,3.42l5.63.27c2.34.11,3.23-.78,3.34-3.14l.5-10.71,5.69.26L436.13,158c-.22,4.61-2.7,6.71-8,7l-8.16-.38c-5.13-.8-7.41-3.12-7.2-7.73Z" transform="translate(-294.93 -135.47)"/><path class="cls-2" d="M443.36,146.65l20.19,2.14-.45,4.28-14.54-1.54-.31,3L462,156l-.4,3.82-13.77-1.45-.31,3,14.86,1.57-.47,4.44-20.52-2.17Z" transform="translate(-294.93 -135.47)"/></svg>