<svg xmlns="http://www.w3.org/2000/svg" xmlns:xlink="http://www.w3.org/1999/xlink" viewBox="0 0 323.88 816.13"><defs><style>.cls-1{fill:none;}.cls-2{isolation:isolate;}.cls-3{fill:#3f849d;}.cls-4{fill:#bc4242;}.cls-5{fill:#518bb9;}.cls-6{fill:#7fa3b9;}.cls-7{opacity:0.92;}.cls-8{clip-path:url(#clip-path);}.cls-11,.cls-12,.cls-16,.cls-17,.cls-20,.cls-21,.cls-22,.cls-25,.cls-26,.cls-27,.cls-30,.cls-31,.cls-32,.cls-34,.cls-35,.cls-37,.cls-38,.cls-39,.cls-42,.cls-43,.cls-44,.cls-47,.cls-48,.cls-49,.cls-52,.cls-53,.cls-54,.cls-57,.cls-58,.cls-59,.cls-62,.cls-63,.cls-64,.cls-9{mix-blend-mode:multiply;opacity:0.5;}.cls-9{fill:url(#linear-gradient);}.cls-10{fill:#bc4343;}.cls-11{fill:url(#linear-gradient-2);}.cls-12{fill:url(#linear-gradient-3);}.cls-13{fill:#fff;}.cls-14{fill:#04181e;}.cls-15{fill:url(#linear-gradient-4);}.cls-16{fill:url(#linear-gradient-5);}.cls-17{fill:url(#linear-gradient-6);}.cls-18{fill:url(#linear-gradient-7);}.cls-19{clip-path:url(#clip-path-2);}.cls-20{fill:url(#linear-gradient-8);}.cls-21{fill:url(#linear-gradient-9);}.cls-22{fill:url(#linear-gradient-10);}.cls-23{fill:url(#linear-gradient-11);}.cls-24{clip-path:url(#clip-path-3);}.cls-25{fill:url(#linear-gradient-12);}.cls-26{fill:url(#linear-gradient-13);}.cls-27{fill:url(#linear-gradient-14);}.cls-28{fill:url(#linear-gradient-15);}.cls-29{clip-path:url(#clip-path-4);}.cls-30{fill:url(#linear-gradient-16);}.cls-31{fill:url(#linear-gradient-17);}.cls-32{fill:url(#linear-gradient-18);}.cls-33{fill:url(#linear-gradient-19);}.cls-34{fill:url(#linear-gradient-20);}.cls-35{fill:url(#linear-gradient-21);}.cls-36{clip-path:url(#clip-path-5);}.cls-37{fill:url(#linear-gradient-22);}.cls-38{fill:url(#linear-gradient-23);}.cls-39{fill:url(#linear-gradient-24);}.cls-40{fill:url(#linear-gradient-25);}.cls-41{clip-path:url(#clip-path-6);}.cls-42{fill:url(#linear-gradient-26);}.cls-43{fill:url(#linear-gradient-27);}.cls-44{fill:url(#linear-gradient-28);}.cls-45{fill:url(#linear-gradient-29);}.cls-46{clip-path:url(#clip-path-7);}.cls-47{fill:url(#linear-gradient-30);}.cls-48{fill:url(#linear-gradient-31);}.cls-49{fill:url(#linear-gradient-32);}.cls-50{fill:url(#linear-gradient-33);}.cls-51{clip-path:url(#clip-path-8);}.cls-52{fill:url(#linear-gradient-34);}.cls-53{fill:url(#linear-gradient-35);}.cls-54{fill:url(#linear-gradient-36);}.cls-55{fill:url(#linear-gradient-37);}.cls-56{clip-path:url(#clip-path-9);}.cls-57{fill:url(#linear-gradient-38);}.cls-58{fill:url(#linear-gradient-39);}.cls-59{fill:url(#linear-gradient-40);}.cls-60{fill:url(#linear-gradient-41);}.cls-61{clip-path:url(#clip-path-10);}.cls-62{fill:url(#linear-gradient-42);}.cls-63{fill:url(#linear-gradient-43);}.cls-64{fill:url(#linear-gradient-44);}.cls-65{fill:url(#linear-gradient-45);}</style><clipPath id="clip-path" transform="translate(2.05 0.32)"><line class="cls-1" x1="-1.02" y1="70.98" x2="-0.43" y2="72.92"/></clipPath><linearGradient id="linear-gradient" x1="5284.41" y1="234645.42" x2="5286.52" y2="234646.93" gradientTransform="matrix(0, -0.12, 0, 0, -779.75, 687.4)" gradientUnits="userSpaceOnUse"><stop offset="0.37" stop-color="#04181e"/><stop offset="0.38" stop-color="#0a1d23"/><stop offset="0.4" stop-color="#38474c"/><stop offset="0.43" stop-color="#626f72"/><stop offset="0.46" stop-color="#889194"/><stop offset="0.49" stop-color="#a8afb1"/><stop offset="0.53" stop-color="#c4c8ca"/><stop offset="0.57" stop-color="#dadddd"/><stop offset="0.62" stop-color="#ebeced"/><stop offset="0.68" stop-color="#f6f7f7"/><stop offset="0.77" stop-color="#fdfdfd"/><stop offset="1" stop-color="#fff"/></linearGradient><linearGradient id="linear-gradient-2" x1="-241432.32" y1="556.32" x2="-241430.67" y2="553.59" gradientTransform="translate(-802.36 138.89) rotate(180) scale(0 0.12)" xlink:href="#linear-gradient"/><linearGradient id="linear-gradient-3" x1="-241437.85" y1="551.73" x2="-241437.57" y2="551.26" gradientTransform="translate(-802.36 138.89) rotate(180) scale(0 0.12)" xlink:href="#linear-gradient"/><linearGradient id="linear-gradient-4" x1="5286.32" y1="-231188.76" x2="5286.32" y2="-231188.77" gradientTransform="matrix(0, -0.12, 0, 0, -768.23, 687.4)" gradientUnits="userSpaceOnUse"><stop offset="0" stop-color="#04181e"/><stop offset="0.06" stop-color="#0c1f24"/><stop offset="0.21" stop-color="#172b2f"/><stop offset="0.42" stop-color="#1e3134"/><stop offset="1" stop-color="#203336"/></linearGradient><linearGradient id="linear-gradient-5" x1="4615.32" y1="-6202.68" x2="4616.87" y2="-6201.56" gradientTransform="translate(-6160.81 -4499.14) rotate(90)" xlink:href="#linear-gradient"/><linearGradient id="linear-gradient-6" x1="-589.34" y1="-117.98" x2="-589.13" y2="-118.32" gradientTransform="translate(630.04 235.88)" xlink:href="#linear-gradient"/><linearGradient id="linear-gradient-7" x1="4616.73" y1="9659.82" x2="4616.73" y2="9659.82" gradientTransform="matrix(0, 1, 1, 0, -9619.34, -4499.14)" xlink:href="#linear-gradient-4"/><clipPath id="clip-path-2" transform="translate(2.05 0.32)"><line class="cls-1" x1="-1.48" y1="258.88" x2="-0.87" y2="260.84"/></clipPath><linearGradient id="linear-gradient-8" x1="3661.97" y1="234511.65" x2="3664.11" y2="234513.18" xlink:href="#linear-gradient"/><linearGradient id="linear-gradient-9" x1="-241298.51" y1="-1066.03" x2="-241296.83" y2="-1068.79" gradientTransform="translate(-802.36 138.89) rotate(180) scale(0 0.12)" xlink:href="#linear-gradient"/><linearGradient id="linear-gradient-10" x1="-241304.11" y1="-1070.68" x2="-241303.82" y2="-1071.16" gradientTransform="translate(-802.36 138.89) rotate(180) scale(0 0.12)" xlink:href="#linear-gradient"/><linearGradient id="linear-gradient-11" x1="3663.91" y1="-231055.02" x2="3663.91" y2="-231055.03" xlink:href="#linear-gradient-4"/><clipPath id="clip-path-3" transform="translate(2.05 0.32)"><line class="cls-1" x1="-0.78" y1="427.66" x2="-0.19" y2="429.6"/></clipPath><linearGradient id="linear-gradient-12" x1="2205.36" y1="234718.08" x2="2207.47" y2="234719.59" xlink:href="#linear-gradient"/><linearGradient id="linear-gradient-13" x1="-241504.99" y1="-2522.73" x2="-241503.34" y2="-2525.46" gradientTransform="translate(-802.36 138.89) rotate(180) scale(0 0.12)" xlink:href="#linear-gradient"/><linearGradient id="linear-gradient-14" x1="-241510.52" y1="-2527.32" x2="-241510.24" y2="-2527.79" gradientTransform="translate(-802.36 138.89) rotate(180) scale(0 0.12)" xlink:href="#linear-gradient"/><linearGradient id="linear-gradient-15" x1="2207.27" y1="-231261.43" x2="2207.27" y2="-231261.44" xlink:href="#linear-gradient-4"/><clipPath id="clip-path-4" transform="translate(2.05 0.32)"><line class="cls-1" x1="-0.81" y1="585.73" x2="-0.17" y2="587.84"/></clipPath><linearGradient id="linear-gradient-16" x1="837.99" y1="234723.17" x2="840.27" y2="234724.81" xlink:href="#linear-gradient"/><linearGradient id="linear-gradient-17" x1="-241509.76" y1="-3889.53" x2="-241507.96" y2="-3892.48" gradientTransform="translate(-802.36 138.89) rotate(180) scale(0 0.12)" xlink:href="#linear-gradient"/><linearGradient id="linear-gradient-18" x1="-241515.74" y1="-3894.5" x2="-241515.43" y2="-3895.01" gradientTransform="translate(-802.36 138.89) rotate(180) scale(0 0.12)" xlink:href="#linear-gradient"/><linearGradient id="linear-gradient-19" x1="840.06" y1="-231266.68" x2="840.06" y2="-231266.68" xlink:href="#linear-gradient-4"/><linearGradient id="linear-gradient-20" x1="5133.76" y1="-6206.25" x2="5135.44" y2="-6205.04" gradientTransform="translate(-6160.81 -4499.14) rotate(90)" xlink:href="#linear-gradient"/><linearGradient id="linear-gradient-21" x1="-585.87" y1="400.61" x2="-585.64" y2="400.23" gradientTransform="translate(630.04 235.88)" xlink:href="#linear-gradient"/><clipPath id="clip-path-5" transform="translate(2.05 0.32)"><line class="cls-1" x1="-1.3" y1="789.08" x2="-0.65" y2="791.21"/></clipPath><linearGradient id="linear-gradient-22" x1="-917.9" y1="234578.4" x2="-915.59" y2="234580.06" xlink:href="#linear-gradient"/><linearGradient id="linear-gradient-23" x1="-241364.93" y1="-5645.33" x2="-241363.12" y2="-5648.32" gradientTransform="translate(-802.36 138.89) rotate(180) scale(0 0.12)" xlink:href="#linear-gradient"/><linearGradient id="linear-gradient-24" x1="-241370.99" y1="-5650.36" x2="-241370.68" y2="-5650.88" gradientTransform="translate(-802.36 138.89) rotate(180) scale(0 0.12)" xlink:href="#linear-gradient"/><linearGradient id="linear-gradient-25" x1="-915.81" y1="-231121.93" x2="-915.81" y2="-231121.94" xlink:href="#linear-gradient-4"/><clipPath id="clip-path-6" transform="translate(2.05 0.32)"><line class="cls-1" x1="320.81" y1="744.96" x2="320.21" y2="743.01"/></clipPath><linearGradient id="linear-gradient-26" x1="5335.62" y1="287052.72" x2="5337.73" y2="287054.23" gradientTransform="matrix(0, 0.12, 0, 0, 1278.14, 123.24)" xlink:href="#linear-gradient"/><linearGradient id="linear-gradient-27" x1="-293839.63" y1="607.53" x2="-293837.98" y2="604.8" gradientTransform="translate(1300.76 671.75) scale(0 0.12)" xlink:href="#linear-gradient"/><linearGradient id="linear-gradient-28" x1="-293845.16" y1="602.94" x2="-293844.88" y2="602.47" gradientTransform="translate(1300.76 671.75) scale(0 0.12)" xlink:href="#linear-gradient"/><linearGradient id="linear-gradient-29" x1="5337.53" y1="-283596.07" x2="5337.53" y2="-283596.08" gradientTransform="matrix(0, 0.12, 0, 0, 1266.63, 123.24)" xlink:href="#linear-gradient-4"/><clipPath id="clip-path-7" transform="translate(2.05 0.32)"><line class="cls-1" x1="321.26" y1="557.06" x2="320.66" y2="555.1"/></clipPath><linearGradient id="linear-gradient-30" x1="3713.19" y1="286918.96" x2="3715.32" y2="286920.49" gradientTransform="matrix(0, 0.12, 0, 0, 1278.14, 123.24)" xlink:href="#linear-gradient"/><linearGradient id="linear-gradient-31" x1="-293705.82" y1="-1014.82" x2="-293704.14" y2="-1017.58" gradientTransform="translate(1300.76 671.75) scale(0 0.12)" xlink:href="#linear-gradient"/><linearGradient id="linear-gradient-32" x1="-293711.42" y1="-1019.47" x2="-293711.13" y2="-1019.94" gradientTransform="translate(1300.76 671.75) scale(0 0.12)" xlink:href="#linear-gradient"/><linearGradient id="linear-gradient-33" x1="3715.12" y1="-283462.33" x2="3715.12" y2="-283462.34" gradientTransform="matrix(0, 0.12, 0, 0, 1266.63, 123.24)" xlink:href="#linear-gradient-4"/><clipPath id="clip-path-8" transform="translate(2.05 0.32)"><line class="cls-1" x1="320.57" y1="388.28" x2="319.97" y2="386.34"/></clipPath><linearGradient id="linear-gradient-34" x1="2256.58" y1="287125.39" x2="2258.68" y2="287126.9" gradientTransform="matrix(0, 0.12, 0, 0, 1278.14, 123.24)" xlink:href="#linear-gradient"/><linearGradient id="linear-gradient-35" x1="-293912.3" y1="-2471.52" x2="-293910.65" y2="-2474.25" gradientTransform="translate(1300.76 671.75) scale(0 0.12)" xlink:href="#linear-gradient"/><linearGradient id="linear-gradient-36" x1="-293917.83" y1="-2476.11" x2="-293917.54" y2="-2476.58" gradientTransform="translate(1300.76 671.75) scale(0 0.12)" xlink:href="#linear-gradient"/><linearGradient id="linear-gradient-37" x1="2258.49" y1="-283668.74" x2="2258.49" y2="-283668.74" gradientTransform="matrix(0, 0.12, 0, 0, 1266.63, 123.24)" xlink:href="#linear-gradient-4"/><clipPath id="clip-path-9" transform="translate(2.05 0.32)"><line class="cls-1" x1="320.6" y1="230.21" x2="319.95" y2="228.1"/></clipPath><linearGradient id="linear-gradient-38" x1="889.2" y1="287130.48" x2="891.49" y2="287132.11" gradientTransform="matrix(0, 0.12, 0, 0, 1278.14, 123.24)" xlink:href="#linear-gradient"/><linearGradient id="linear-gradient-39" x1="-293917.06" y1="-3838.32" x2="-293915.27" y2="-3841.27" gradientTransform="translate(1300.76 671.75) scale(0 0.12)" xlink:href="#linear-gradient"/><linearGradient id="linear-gradient-40" x1="-293923.05" y1="-3843.28" x2="-293922.74" y2="-3843.79" gradientTransform="translate(1300.76 671.75) scale(0 0.12)" xlink:href="#linear-gradient"/><linearGradient id="linear-gradient-41" x1="891.27" y1="-283673.98" x2="891.27" y2="-283673.99" gradientTransform="matrix(0, 0.12, 0, 0, 1266.63, 123.24)" xlink:href="#linear-gradient-4"/><clipPath id="clip-path-10" transform="translate(2.05 0.32)"><line class="cls-1" x1="321.09" y1="26.86" x2="320.43" y2="24.73"/></clipPath><linearGradient id="linear-gradient-42" x1="-866.69" y1="286985.71" x2="-864.38" y2="286987.37" gradientTransform="matrix(0, 0.12, 0, 0, 1278.14, 123.24)" xlink:href="#linear-gradient"/><linearGradient id="linear-gradient-43" x1="-293772.24" y1="-5594.12" x2="-293770.43" y2="-5597.11" gradientTransform="translate(1300.76 671.75) scale(0 0.12)" xlink:href="#linear-gradient"/><linearGradient id="linear-gradient-44" x1="-293778.3" y1="-5599.15" x2="-293777.99" y2="-5599.66" gradientTransform="translate(1300.76 671.75) scale(0 0.12)" xlink:href="#linear-gradient"/><linearGradient id="linear-gradient-45" x1="-864.6" y1="-283529.24" x2="-864.6" y2="-283529.25" gradientTransform="matrix(0, 0.12, 0, 0, 1266.63, 123.24)" xlink:href="#linear-gradient-4"/></defs><g class="cls-2"><g id="Calque_1" data-name="Calque 1"><polygon class="cls-3" points="1.53 36.59 3.16 35.73 10.4 31.87 1.53 27.15 1.53 36.59"/><path class="cls-4" d="M11.41,36.39" transform="translate(2.05 0.32)"/><polygon class="cls-5" points="9.93 34.52 1.06 39.24 1.06 39.24 9.93 43.96 9.93 43.96 9.93 34.52 9.93 34.52"/><polygon class="cls-6" points="10.4 53.36 1.53 48.64 1.53 58.09 10.4 53.36"/><g class="cls-7"><g class="cls-8"><polygon class="cls-1" points="1.61 74.88 1.59 74.48 1.59 74.48 1.59 74.48 1.61 74.88"/><polygon class="cls-1" points="1.62 75.03 1.61 75.13 1.62 75.03 1.62 75.03"/><line class="cls-9" x1="1.62" y1="75.03" x2="1.62" y2="75.13"/><polygon class="cls-10" points="1.61 74.84 1.62 75 1.62 74.21 1.59 74.45 1.61 74.84"/><polyline class="cls-11" points="1.62 75.03 1.62 75.03 1.62 75.03 1.62 75.03 1.62 75.03 1.62 75.03 1.61 74.88 1.59 74.48 1.59 74.48 1.56 75.03"/><polyline class="cls-12" points="1.61 75.13 1.62 75.03 1.62 75.03"/><line class="cls-13" x1="1.56" y1="75.03" x2="1.56" y2="75.03"/><polygon class="cls-4" points="1.53 74.97 1.53 74.97 1.52 75.16 1.53 75.35 1.53 74.97"/><polygon class="cls-14" points="1.62 73.94 1.62 73.94 1.62 73.94 1.62 73.94"/><polygon class="cls-14" points="1.59 74.48 1.59 74.48 1.59 74.48 1.59 74.48"/><polygon class="cls-14" points="1.56 75.03 1.56 75.03 1.56 75.03 1.56 75.03"/><polyline class="cls-15" points="1.62 75.03 1.62 75.03 1.62 75.03"/><polyline class="cls-3" points="1.59 74.48 1.59 74.58 1.56 75.03"/><line class="cls-5" x1="1.62" y1="75.03" x2="1.61" y2="75.14"/><path class="cls-5" d="M-.5,74.76" transform="translate(2.05 0.32)"/></g></g><polygon class="cls-3" points="1.12 67.48 2.75 66.62 9.98 62.76 1.12 58.04 1.12 67.48"/><polygon class="cls-5" points="10.02 71.97 1.15 76.69 1.15 76.7 10.02 81.42 10.02 81.42 10.02 71.97 10.02 71.97"/><polygon class="cls-6" points="10.48 90.82 1.62 86.1 1.53 95.69 10.48 90.82"/><polyline class="cls-1" points="41.69 116.94 40.48 117.59 40.48 117.59 41.69 116.94"/><line class="cls-16" x1="40.48" y1="117.59" x2="41.69" y2="116.95"/><polyline class="cls-17" points="41.69 116.94 40.48 117.59 40.48 117.59"/><polyline class="cls-18" points="40.48 117.59 40.48 117.59 40.48 117.59"/><polygon class="cls-3" points="11.19 100.26 10.48 90.82 1.53 95.69 11.19 100.26"/><polygon class="cls-4" points="1.27 104.58 2.03 105.08 11.17 109.66 11.19 109.6 11.19 109.61 11.19 100.16 11.19 100.16 1.27 104.58"/><polygon class="cls-6" points="10.21 20.03 6.92 18.28 6.92 20.78 10.21 20.03"/><polygon class="cls-6" points="11.19 118.43 1.25 113.71 1.15 123.3 11.19 118.43"/><polyline class="cls-5" points="11.28 127.87 11.54 127.87 1.51 123.3 1.25 123.3 1.25 132.19 11.54 127.87"/><polygon class="cls-4" points="1.37 132.19 2.13 132.7 11.28 137.27 11.29 137.22 11.29 137.22 11.29 127.77 11.29 127.77 1.37 132.19"/><polygon class="cls-6" points="15.24 146.1 11.95 144.35 11.95 147.86 15.24 146.1"/><polyline class="cls-3" points="1.52 138.41 1.52 147.86 3.15 146.99 10.38 143.13 1.52 138.41"/><polyline class="cls-4" points="2.55 155.64 2.55 158.92 2.55 158.92 5.63 157.28"/><polygon class="cls-5" points="10.14 145.78 1.27 150.5 1.27 150.5 10.14 155.22 10.14 155.22 10.14 145.78 10.14 145.78"/><polyline class="cls-6" points="1.52 169.35 10.38 164.63 1.52 159.9 1.52 169.35"/><polyline class="cls-5" points="17.13 169.35 12.29 166.77 12.29 171.93"/><polygon class="cls-4" points="1.01 58.04 1.01 58.04 9.88 62.76 9.88 62.76 9.88 62.76 9.88 53.31 9.88 53.31 1.01 58.04"/><polygon class="cls-3" points="1.25 113.67 1.25 113.67 11.18 118.39 11.19 118.39 11.19 118.39 11.19 108.95 11.19 108.95 1.25 113.67"/><polygon class="cls-4" points="10.15 44.27 1.29 39.24 1.29 48.89 10.15 44.27"/><polygon class="cls-6" points="10.57 241.03 1.59 236.25 1.59 245.81 10.57 241.03"/><polygon class="cls-3" points="10.3 239.03 10.3 239.03 10.35 233.47 5.72 236.53 10.3 239.03"/><g class="cls-7"><g class="cls-19"><polygon class="cls-1" points="1.17 262.82 1.15 262.42 1.15 262.42 1.15 262.42 1.17 262.82"/><polygon class="cls-1" points="1.18 262.97 1.17 263.07 1.18 262.97 1.18 262.97"/><line class="cls-20" x1="1.18" y1="262.97" x2="1.17" y2="263.07"/><polygon class="cls-10" points="1.17 262.78 1.18 262.94 1.18 262.14 1.15 262.38 1.17 262.78"/><polyline class="cls-21" points="1.18 262.97 1.18 262.97 1.18 262.97 1.18 262.97 1.18 262.97 1.18 262.97 1.17 262.82 1.15 262.42 1.15 262.42 1.11 262.97"/><polyline class="cls-22" points="1.17 263.07 1.18 262.97 1.18 262.97"/><line class="cls-13" x1="1.12" y1="262.97" x2="1.12" y2="262.97"/><polygon class="cls-4" points="1.08 262.91 1.08 262.91 1.07 263.11 1.08 263.3 1.08 262.91"/><polygon class="cls-14" points="1.18 261.86 1.18 261.86 1.18 261.86 1.18 261.86"/><polygon class="cls-14" points="1.15 262.42 1.15 262.42 1.15 262.42 1.15 262.42"/><polygon class="cls-14" points="1.11 262.97 1.11 262.97 1.11 262.97 1.11 262.97"/><polyline class="cls-23" points="1.18 262.97 1.18 262.97 1.18 262.97"/><polyline class="cls-3" points="1.15 262.42 1.14 262.52 1.11 262.97"/><line class="cls-5" x1="1.17" y1="262.98" x2="1.17" y2="263.08"/><path class="cls-5" d="M-.94,262.71" transform="translate(2.05 0.32)"/></g></g><polygon class="cls-3" points="1.18 261.98 2.83 261.1 10.15 257.2 1.18 252.42 1.18 261.98"/><polygon class="cls-3" points="19.15 274.18 10.17 269.39 10.17 278.96 19.15 274.18"/><polygon class="cls-5" points="10.18 259.88 1.2 264.66 1.2 264.66 10.18 269.44 10.18 269.44 10.18 259.88 10.18 259.88"/><polygon class="cls-6" points="10.66 278.96 1.68 274.18 1.59 283.89 10.66 278.96"/><polygon class="cls-4" points="13.63 316.57 13.63 316.57 18.53 313.96 13.63 311.35 13.63 316.57"/><polygon class="cls-3" points="11.37 288.52 10.08 279 1.59 283.89 11.37 288.52"/><polyline class="cls-5" points="11.37 288.52 11.62 288.52 1.84 283.89 1.59 283.89 1.59 292.89 11.62 288.52"/><polygon class="cls-4" points="1.32 292.89 2.09 293.41 11.35 298.04 11.37 297.98 11.37 297.98 11.37 288.42 11.37 288.42 1.32 292.89"/><polygon class="cls-6" points="17.01 285.97 13.68 284.2 13.68 287.75 17.01 285.97"/><polygon class="cls-6" points="10.45 307.14 1.47 302.36 1.38 312.07 10.45 307.14"/><polygon class="cls-3" points="11.16 316.7 9.87 307.18 1.38 312.07 11.16 316.7"/><polyline class="cls-5" points="11.16 316.7 11.42 316.7 1.64 312.07 1.38 312.07 1.38 321.07 11.42 316.7"/><polygon class="cls-4" points="1.11 321.07 1.88 321.58 11.15 326.21 11.16 326.16 11.16 326.16 11.16 316.6 11.16 316.6 1.11 321.07"/><polygon class="cls-6" points="15.47 340.43 12.14 338.66 12.14 342.2 15.47 340.43"/><polyline class="cls-3" points="1.24 327.15 1.24 336.72 2.89 335.84 10.21 331.94 1.24 327.15"/><polyline class="cls-4" points="2.62 344.6 2.62 347.92 2.62 347.92 5.74 346.26"/><polygon class="cls-5" points="10.3 334.61 1.32 339.39 1.32 339.39 10.3 344.18 10.3 344.18 10.3 334.61 10.3 334.61"/><polyline class="cls-6" points="1.24 358.48 10.21 353.7 1.24 348.92 1.24 358.48"/><polyline class="cls-5" points="14.94 359.67 10.04 357.06 10.04 362.27"/><polygon class="cls-4" points="1.06 245.76 1.06 245.77 10.04 250.55 10.04 250.55 10.04 250.55 10.04 240.98 10.04 240.98 1.06 245.76"/><polygon class="cls-3" points="1.26 302.32 1.26 302.32 10.24 307.1 10.24 307.1 10.24 307.1 10.24 297.54 10.24 297.54 1.26 302.32"/><polygon class="cls-5" points="10.57 231.67 1.59 226.58 1.59 236.35 10.57 231.67"/><polyline class="cls-5" points="9.96 470.75 10.21 470.75 2.05 466.88 0.3 466.17 2.31 475.06 10.21 470.75"/><polygon class="cls-4" points="2.04 475.06 2.8 475.57 11.95 480.15 11.96 480.09 11.96 480.09 9.96 470.65 9.96 470.65 2.04 475.06"/><polygon class="cls-6" points="11.36 488.92 2.5 484.2 2.41 493.79 11.36 488.92"/><polygon class="cls-3" points="12.06 498.36 10.79 488.96 2.41 493.79 12.06 498.36"/><polyline class="cls-5" points="12.06 498.36 12.31 498.36 2.66 493.79 2.41 493.79 2.41 502.68 12.31 498.36"/><polygon class="cls-3" points="2.29 484.16 2.29 484.16 11.15 488.88 11.16 488.88 11.16 488.88 11.16 479.44 11.16 479.44 2.29 484.16"/><polygon class="cls-5" points="2.05 512.16 5.08 510.64 12.32 506.78 2.45 502.06 2.05 512.16"/><polygon class="cls-4" points="10.16 23.68 1.3 18.65 1.3 28.3 10.16 23.68"/><polygon class="cls-4" points="10.16 80.93 1.3 75.9 1.3 85.55 10.16 80.93"/><polyline class="cls-5" points="8.53 70.06 3.69 67.48 3.69 72.64"/><polyline class="cls-4" points="2.37 98.62 2.37 101.9 2.37 101.9 5.45 100.26"/><line class="cls-6" x1="8.85" y1="92.02" x2="5.57" y2="90.27"/><polyline class="cls-6" points="10.94 31.25 14.22 29.5 10.94 27.75"/><polyline class="cls-5" points="13.7 48.5 8.86 45.92 8.86 51.07"/><polyline class="cls-4" points="10.84 37.89 12.49 40.73 12.49 40.73 14.32 37.75"/><polyline class="cls-5" points="16.41 16.27 12.04 18.39 15.38 21.02"/><polyline class="cls-4" points="11.71 6.72 13.37 9.55 13.37 9.55 15.2 6.58"/><polyline class="cls-6" points="10.94 57.69 14.22 55.94 10.94 54.19"/><polyline class="cls-4" points="9.8 66.02 11.46 68.85 11.46 68.85 13.29 65.88"/><polyline class="cls-5" points="9.57 82.82 4.85 85.6 9.25 88.29"/><polyline class="cls-6" points="13 78.73 14.76 74.66 10.4 75.47"/><polyline class="cls-3" points="15.47 91.06 18.22 85.23 11.85 86.2"/><polyline class="cls-4" points="11.74 96.12 13.4 98.96 13.4 98.96 15.23 95.98"/><polyline class="cls-5" points="16.04 110.21 18.55 104.42 12.35 105.57"/><polyline class="cls-4" points="6.71 121.54 9.16 125.4 9.16 125.4 11.56 121.18"/><polyline class="cls-6" points="13.34 117.01 14.36 114.67 11.85 115.13"/><polyline class="cls-5" points="12 131.21 18.08 132.91 16.09 126.92"/><polyline class="cls-4" points="2.31 210.39 4.76 214.26 4.76 214.26 7.16 210.03"/><polyline class="cls-4" points="2.31 170.39 4.76 174.26 4.76 174.26 7.16 170.03"/><polygon class="cls-5" points="10.02 164.63 1.15 169.35 1.15 169.35 10.02 174.07 10.02 174.07 10.02 164.63 10.02 164.63"/><polygon class="cls-6" points="10.48 183.47 1.62 178.75 1.53 188.34 10.48 183.47"/><polygon class="cls-3" points="11.19 192.91 10.48 183.47 1.53 188.34 11.19 192.91"/><polygon class="cls-4" points="1.27 197.23 2.03 197.74 11.17 202.31 11.19 202.26 11.19 202.26 11.19 192.81 11.19 192.81 1.27 197.23"/><polygon class="cls-3" points="1.25 206.32 1.25 206.33 11.18 211.05 11.19 211.05 11.19 211.05 11.19 201.6 11.19 201.6 1.25 206.32"/><polygon class="cls-4" points="10.16 173.58 1.3 168.55 1.3 178.21 10.16 173.58"/><polyline class="cls-4" points="2.37 191.27 2.37 194.55 2.37 194.55 5.45 192.91"/><line class="cls-6" x1="8.85" y1="184.67" x2="5.57" y2="182.92"/><polyline class="cls-5" points="9.57 175.47 4.85 178.25 9.25 180.94"/><polygon class="cls-6" points="10.64 220.24 1.67 215.46 1.67 225.02 10.64 220.24"/><polygon class="cls-5" points="8.04 218.69 8.04 218.69 12.94 216.08 8.04 213.47 8.04 218.69"/><polygon class="cls-3" points="0.95 225.38 0.95 225.93 10.38 231.67 10.38 231.67 10.38 231.67 10.38 220.19 10.38 220.19 0.95 225.38"/><polygon class="cls-4" points="11.19 210.88 1.67 205.78 1.67 215.56 11.19 210.88"/><polygon class="cls-4" points="13.31 264.59 13.31 264.59 18.21 261.98 13.31 259.37 13.31 264.59"/><polyline class="cls-5" points="16.48 183.73 11.65 181.16 11.65 186.31"/><polyline class="cls-6" points="13.72 193.6 18.27 191.18 13.72 188.75"/><polyline class="cls-4" points="12.59 201.26 14.24 204.09 14.24 204.09 16.07 201.12"/><polyline class="cls-6" points="14.22 215.67 15.98 211.6 11.62 212.4"/><polygon class="cls-4" points="15.4 229.67 15.4 229.67 17.62 223.72 11.44 225.2 15.4 229.67"/><polygon class="cls-3" points="1.77 393.27 3.4 392.41 10.64 388.55 1.77 383.83 1.77 393.27"/><path class="cls-4" d="M11.65,393.07" transform="translate(2.05 0.32)"/><polygon class="cls-5" points="10.17 391.19 1.3 395.92 1.3 395.92 10.17 400.64 10.17 400.64 10.17 391.19 10.17 391.19"/><polygon class="cls-6" points="10.64 410.04 1.77 405.32 1.77 414.76 10.64 410.04"/><g class="cls-7"><g class="cls-24"><polygon class="cls-1" points="1.85 431.56 1.83 431.16 1.83 431.16 1.83 431.16 1.85 431.56"/><polygon class="cls-1" points="1.86 431.71 1.86 431.81 1.86 431.71 1.86 431.71"/><line class="cls-25" x1="1.86" y1="431.71" x2="1.86" y2="431.81"/><polygon class="cls-10" points="1.85 431.52 1.86 431.68 1.86 430.89 1.83 431.13 1.85 431.52"/><polyline class="cls-26" points="1.86 431.71 1.86 431.71 1.86 431.71 1.86 431.71 1.86 431.71 1.86 431.71 1.85 431.56 1.83 431.16 1.83 431.16 1.8 431.71"/><polyline class="cls-27" points="1.86 431.81 1.86 431.71 1.86 431.71"/><line class="cls-13" x1="1.8" y1="431.71" x2="1.8" y2="431.71"/><polygon class="cls-4" points="1.77 431.65 1.77 431.65 1.76 431.84 1.77 432.03 1.77 431.65"/><polygon class="cls-14" points="1.86 430.62 1.86 430.62 1.86 430.62 1.86 430.62"/><polygon class="cls-14" points="1.83 431.16 1.83 431.16 1.83 431.16 1.83 431.16"/><polygon class="cls-14" points="1.8 431.71 1.8 431.71 1.8 431.71 1.8 431.71"/><polyline class="cls-28" points="1.86 431.71 1.86 431.71 1.86 431.71"/><polyline class="cls-3" points="1.83 431.16 1.83 431.26 1.8 431.71"/><line class="cls-5" x1="1.86" y1="431.71" x2="1.86" y2="431.81"/><path class="cls-5" d="M-.26,431.44" transform="translate(2.05 0.32)"/></g></g><polygon class="cls-3" points="1.36 424.16 2.99 423.3 10.22 419.44 1.36 414.72 1.36 424.16"/><polygon class="cls-5" points="10.26 428.65 1.39 433.37 1.39 433.38 10.26 438.1 10.26 438.1 10.26 428.65 10.26 428.65"/><polygon class="cls-6" points="10.73 447.5 1.86 442.78 1.77 452.37 10.73 447.5"/><polygon class="cls-3" points="10.43 456.94 10.73 447.5 1.77 452.37 10.43 456.94"/><polygon class="cls-4" points="0 465.57 0.76 466.08 9.91 470.65 9.92 470.6 9.92 470.6 9.92 461.15 9.92 461.15 0 465.57"/><polygon class="cls-6" points="15.27 380.66 11.98 378.9 11.98 381.4 15.27 380.66"/><polygon class="cls-4" points="1.25 414.72 1.25 414.72 10.12 419.44 10.12 419.44 10.12 419.44 10.12 409.99 10.12 409.99 1.25 414.72"/><polygon class="cls-4" points="10.39 400.95 1.53 395.92 1.53 405.57 10.39 400.95"/><polygon class="cls-4" points="10.4 380.36 1.54 375.33 1.54 384.98 10.4 380.36"/><polygon class="cls-4" points="10.4 437.61 1.54 432.58 1.54 442.23 10.4 437.61"/><polyline class="cls-5" points="8.77 426.74 3.94 424.16 3.94 429.32"/><polyline class="cls-4" points="1.61 455.3 1.61 458.58 1.61 458.58 4.69 456.94"/><line class="cls-6" x1="9.1" y1="448.7" x2="5.81" y2="446.94"/><polyline class="cls-6" points="11.18 387.93 14.47 386.18 11.18 384.43"/><polyline class="cls-5" points="13.94 405.18 9.1 402.6 9.1 407.75"/><polyline class="cls-4" points="11.08 394.57 12.74 397.4 12.74 397.4 14.57 394.43"/><polyline class="cls-5" points="16.65 372.95 12.28 375.07 15.62 377.7"/><polyline class="cls-4" points="11.96 363.4 13.61 366.23 13.61 366.23 15.44 363.26"/><polyline class="cls-6" points="11.18 414.37 14.47 412.62 11.18 410.87"/><polyline class="cls-4" points="10.04 422.7 11.7 425.53 11.7 425.53 13.53 422.56"/><polyline class="cls-5" points="9.81 439.5 5.09 442.28 9.49 444.97"/><polyline class="cls-6" points="13.24 435.41 15 431.34 10.64 432.15"/><polyline class="cls-3" points="15.71 447.74 18.46 441.91 12.09 442.88"/><polyline class="cls-4" points="11.99 452.8 12.64 455.64 12.64 455.64 15.47 452.66"/><polyline class="cls-5" points="15.28 466.89 17.79 461.1 11.59 462.25"/><polyline class="cls-5" points="16.03 305.9 17.99 299.32 11.15 299.87"/><polyline class="cls-4" points="10.6 327.23 12.8 331 12.8 331 15.05 327.15"/><polygon class="cls-6" points="14.91 320.67 12.7 319.49 12.7 321.84 14.91 320.67"/><polyline class="cls-5" points="12.01 247.07 18.09 248.76 16.1 242.77"/><polyline class="cls-3" points="14.24 354.89 16.99 349.06 10.62 350.03"/><polyline class="cls-6" points="16.71 477.98 17.46 472.15 11.09 473.12"/><polyline class="cls-4" points="10.99 468.18 12.64 471.01 12.64 471.01 14.47 468.04"/><polyline class="cls-5" points="16.95 482.01 12.11 479.44 12.11 484.59"/><polyline class="cls-4" points="7.61 500.93 11.65 506.14 11.65 506.14 14.02 500.68"/><polyline class="cls-6" points="14.95 489.39 14.62 486.12 12.09 488.22"/><polyline class="cls-5" points="12.29 493.38 15.65 491.6 12.3 489.81"/><polyline class="cls-4" points="16.05 499.68 17.88 496.05 17.88 496.05 13.56 496.14"/><polyline class="cls-5" points="17.89 508.46 13.17 511.24 17.57 513.93"/><polygon class="cls-3" points="1.78 548.49 3.55 547.55 11.38 543.38 1.78 538.27 1.78 548.49"/><path class="cls-4" d="M12.64,548.3" transform="translate(2.05 0.32)"/><polygon class="cls-5" points="10.87 546.24 1.28 551.35 1.28 551.35 10.87 556.47 10.87 556.46 10.87 546.24 10.87 546.24"/><polygon class="cls-6" points="11.38 566.64 1.78 561.53 1.78 571.75 11.38 566.64"/><g class="cls-7"><g class="cls-29"><polygon class="cls-1" points="1.87 589.92 1.85 589.5 1.85 589.5 1.85 589.5 1.87 589.92"/><polygon class="cls-1" points="1.88 590.09 1.87 590.2 1.88 590.09 1.88 590.09"/><line class="cls-30" x1="1.88" y1="590.09" x2="1.87" y2="590.2"/><polygon class="cls-10" points="1.87 589.89 1.88 590.05 1.88 589.2 1.85 589.46 1.87 589.89"/><polyline class="cls-31" points="1.88 590.09 1.88 590.09 1.88 590.09 1.88 590.09 1.88 590.09 1.88 590.09 1.87 589.92 1.85 589.5 1.85 589.5 1.82 590.09"/><polyline class="cls-32" points="1.87 590.2 1.88 590.09 1.88 590.09"/><line class="cls-13" x1="1.82" y1="590.09" x2="1.82" y2="590.09"/><polygon class="cls-4" points="1.78 590.03 1.78 590.03 1.77 590.23 1.78 590.44 1.78 590.03"/><polygon class="cls-14" points="1.88 588.9 1.88 588.9 1.88 588.9 1.88 588.9"/><polygon class="cls-14" points="1.85 589.5 1.85 589.5 1.85 589.5 1.85 589.5"/><polygon class="cls-14" points="1.82 590.09 1.82 590.09 1.82 590.09 1.82 590.09"/><polyline class="cls-33" points="1.88 590.09 1.88 590.09 1.88 590.09"/><polyline class="cls-3" points="1.85 589.5 1.84 589.61 1.82 590.09"/><line class="cls-5" x1="1.88" y1="590.09" x2="1.87" y2="590.2"/><path class="cls-5" d="M-.24,589.83" transform="translate(2.05 0.32)"/></g></g><polygon class="cls-3" points="1.34 581.92 3.1 580.98 10.93 576.81 1.34 571.7 1.34 581.92"/><polygon class="cls-5" points="10.96 586.78 1.37 591.89 1.37 591.89 10.96 597 10.97 597 10.97 586.78 10.96 586.78"/><polygon class="cls-6" points="11.47 607.18 1.88 602.07 1.78 612.44 11.47 607.18"/><polyline class="cls-1" points="45.24 635.45 43.94 636.14 43.94 636.14 45.24 635.45"/><line class="cls-34" x1="43.94" y1="636.15" x2="45.24" y2="635.45"/><polyline class="cls-35" points="45.24 635.45 43.94 636.14 43.94 636.14"/><polygon class="cls-3" points="12.23 617.39 11.47 607.18 1.78 612.44 12.23 617.39"/><polygon class="cls-4" points="1.5 622.07 2.32 622.62 12.22 627.56 12.23 627.51 12.23 627.51 12.23 617.28 12.23 617.28 1.5 622.07"/><polygon class="cls-6" points="11.18 530.57 7.62 528.67 7.62 531.38 11.18 530.57"/><polygon class="cls-6" points="12.23 637.06 1.48 631.95 1.37 642.33 12.23 637.06"/><polyline class="cls-5" points="12.33 647.28 12.62 647.28 1.76 642.33 1.48 642.33 1.48 651.95 12.62 647.28"/><polygon class="cls-4" points="1.61 651.95 2.43 652.5 12.33 657.45 12.34 657.39 12.34 657.39 12.34 647.17 12.34 647.17 1.61 651.95"/><polygon class="cls-6" points="16.62 667.01 13.06 665.11 13.06 668.91 16.62 667.01"/><polyline class="cls-3" points="1.77 658.68 1.77 668.91 3.54 667.97 11.37 663.79 1.77 658.68"/><polyline class="cls-4" points="4.46 675.03 4.46 678.58 4.46 678.58 7.79 676.8"/><polygon class="cls-5" points="11.1 666.65 1.5 671.77 1.5 671.77 11.1 676.88 11.1 676.88 11.1 666.66 11.1 666.65"/><polyline class="cls-6" points="1.77 692.16 11.37 687.05 1.77 681.94 1.77 692.16"/><polyline class="cls-5" points="18.66 692.16 13.43 689.38 13.43 694.95"/><polygon class="cls-4" points="1.22 571.7 1.22 571.7 10.81 576.81 10.81 576.81 10.82 576.81 10.82 566.59 10.81 566.59 1.22 571.7"/><polygon class="cls-3" points="1.48 631.91 1.48 631.91 12.23 637.02 12.23 637.02 12.23 637.02 12.23 626.8 12.23 626.8 1.48 631.91"/><polygon class="cls-4" points="11.11 556.8 1.52 551.35 1.52 561.8 11.11 556.8"/><polygon class="cls-6" points="11.56 769.74 1.84 764.57 1.84 774.92 11.56 769.74"/><polygon class="cls-3" points="11.28 767.57 11.28 767.57 11.33 761.56 6.31 764.87 11.28 767.57"/><g class="cls-7"><g class="cls-36"><polygon class="cls-1" points="1.39 793.32 1.37 792.89 1.37 792.89 1.37 792.89 1.39 793.32"/><polygon class="cls-1" points="1.4 793.49 1.39 793.6 1.4 793.49 1.4 793.49"/><line class="cls-37" x1="1.4" y1="793.49" x2="1.39" y2="793.6"/><polygon class="cls-10" points="1.39 793.28 1.4 793.45 1.4 792.59 1.36 792.85 1.39 793.28"/><polyline class="cls-38" points="1.4 793.49 1.4 793.49 1.4 793.49 1.4 793.49 1.4 793.49 1.4 793.49 1.39 793.32 1.37 792.89 1.37 792.89 1.33 793.49"/><polyline class="cls-39" points="1.39 793.6 1.4 793.49 1.4 793.49"/><line class="cls-13" x1="1.33" y1="793.49" x2="1.33" y2="793.49"/><polygon class="cls-4" points="1.3 793.43 1.3 793.43 1.29 793.63 1.3 793.84 1.3 793.43"/><polygon class="cls-14" points="1.4 792.29 1.4 792.29 1.4 792.29 1.4 792.29"/><polygon class="cls-14" points="1.37 792.89 1.37 792.89 1.37 792.89 1.37 792.89"/><polygon class="cls-14" points="1.33 793.49 1.33 793.49 1.33 793.49 1.33 793.49"/><polyline class="cls-40" points="1.4 793.49 1.4 793.49 1.4 793.49"/><polyline class="cls-3" points="1.37 792.89 1.36 793 1.33 793.49"/><line class="cls-5" x1="1.4" y1="793.49" x2="1.39" y2="793.6"/><path class="cls-5" d="M-.73,793.23" transform="translate(2.05 0.32)"/></g></g><polygon class="cls-3" points="1.4 792.42 3.18 791.47 11.12 787.24 1.4 782.07 1.4 792.42"/><polygon class="cls-3" points="20.85 805.62 11.13 800.44 11.13 810.79 20.85 805.62"/><polygon class="cls-5" points="11.14 790.14 1.43 795.31 1.43 795.32 11.14 800.49 11.14 800.49 11.14 790.14 11.14 790.14"/><polygon class="cls-6" points="11.66 810.79 1.94 805.62 1.84 816.13 11.66 810.79"/><polygon class="cls-4" points="1.27 774.87 1.27 774.87 10.99 780.04 10.99 780.04 10.99 780.04 10.99 769.69 10.99 769.69 1.27 774.87"/><polygon class="cls-5" points="11.56 759.61 1.84 754.1 1.84 764.68 11.56 759.61"/><polygon class="cls-4" points="11.13 534.51 1.53 529.07 1.53 539.52 11.13 534.51"/><polygon class="cls-4" points="11.13 596.47 1.53 591.03 1.53 601.48 11.13 596.47"/><polyline class="cls-5" points="9.36 584.71 4.12 581.92 4.12 587.5"/><polyline class="cls-4" points="2.69 615.62 2.69 619.17 2.69 619.17 6.02 617.39"/><line class="cls-6" x1="9.71" y1="608.47" x2="6.15" y2="606.58"/><polyline class="cls-6" points="11.96 542.71 15.52 540.81 11.96 538.92"/><polyline class="cls-5" points="14.95 561.37 9.71 558.58 9.71 564.16"/><polyline class="cls-4" points="11.86 549.89 13.65 552.96 13.65 552.96 15.63 549.75"/><polyline class="cls-5" points="17.89 526.5 13.15 528.79 16.77 531.64"/><polyline class="cls-4" points="12.8 516.15 14.6 519.22 14.6 519.22 16.58 516"/><polyline class="cls-6" points="11.96 571.33 15.52 569.43 11.96 567.53"/><polyline class="cls-4" points="10.73 580.34 12.53 583.4 12.53 583.4 14.51 580.19"/><polyline class="cls-5" points="10.48 598.51 5.38 601.53 10.14 604.44"/><polyline class="cls-6" points="14.2 594.09 16.1 589.69 11.38 590.56"/><polyline class="cls-3" points="16.87 607.43 19.85 601.12 12.95 602.17"/><polyline class="cls-4" points="12.84 612.92 14.63 615.98 14.63 615.98 16.61 612.77"/><polyline class="cls-5" points="17.49 628.17 20.2 621.9 13.49 623.14"/><polyline class="cls-4" points="7.39 640.42 10.04 644.6 10.04 644.6 12.64 640.03"/><polyline class="cls-6" points="14.57 635.52 15.66 632.99 12.95 633.49"/><polyline class="cls-5" points="13.11 650.89 19.69 652.72 17.54 646.24"/><polyline class="cls-4" points="2.63 736.59 5.27 740.77 5.27 740.77 7.88 736.2"/><polyline class="cls-4" points="2.63 693.3 5.27 697.48 5.27 697.48 7.88 692.91"/><polygon class="cls-5" points="10.96 687.05 1.37 692.16 1.37 692.17 10.96 697.28 10.97 697.28 10.97 687.05 10.96 687.05"/><polygon class="cls-6" points="11.47 707.45 1.88 702.34 1.78 712.72 11.47 707.45"/><polygon class="cls-3" points="12.23 717.67 11.47 707.45 1.78 712.72 12.23 717.67"/><polygon class="cls-4" points="1.5 722.34 2.32 722.89 12.22 727.84 12.23 727.78 12.23 727.78 12.23 717.56 12.23 717.56 1.5 722.34"/><polygon class="cls-3" points="1.48 732.18 1.48 732.18 12.23 737.29 12.23 737.29 12.23 737.29 12.23 727.07 12.23 727.07 1.48 732.18"/><polygon class="cls-4" points="11.13 696.75 1.53 691.3 1.53 701.75 11.13 696.75"/><polyline class="cls-4" points="2.69 715.89 2.69 719.44 2.69 719.44 6.02 717.67"/><line class="cls-6" x1="9.71" y1="708.75" x2="6.15" y2="706.85"/><polyline class="cls-5" points="10.48 698.79 5.38 701.8 10.14 704.71"/><polygon class="cls-6" points="11.65 747.24 1.93 742.06 1.93 752.41 11.65 747.24"/><polygon class="cls-5" points="8.82 745.56 8.82 745.56 14.13 742.74 8.82 739.91 8.82 745.56"/><polygon class="cls-3" points="1.15 752.81 1.15 753.4 11.36 759.61 11.36 759.61 11.36 759.61 11.36 747.19 11.36 747.19 1.15 752.81"/><polygon class="cls-4" points="12.23 737.11 1.93 731.6 1.93 742.17 12.23 737.11"/><polygon class="cls-4" points="14.53 795.24 14.53 795.24 19.84 792.42 14.53 789.59 14.53 795.24"/><polyline class="cls-5" points="17.97 707.73 12.73 704.94 12.73 710.52"/><polyline class="cls-6" points="14.98 718.41 19.9 715.79 14.98 713.17"/><polyline class="cls-4" points="13.75 726.7 15.54 729.76 15.54 729.76 17.52 726.55"/><polyline class="cls-6" points="15.52 742.29 17.43 737.89 12.71 738.76"/><polygon class="cls-4" points="16.79 757.45 16.8 757.45 19.19 751.01 12.51 752.61 16.79 757.45"/><polyline class="cls-5" points="13.12 776.28 19.7 778.11 17.55 771.63"/><polygon class="cls-3" points="322.35 779.98 320.72 780.84 313.48 784.7 322.35 789.42 322.35 779.98"/><path class="cls-4" d="M308.38,779.55" transform="translate(2.05 0.32)"/><polygon class="cls-5" points="313.95 782.06 322.82 777.33 322.82 777.33 313.95 772.61 313.95 772.61 313.95 782.05 313.95 782.06"/><polygon class="cls-6" points="313.48 763.21 322.35 767.93 322.35 758.49 313.48 763.21"/><g class="cls-7"><g class="cls-41"><polygon class="cls-1" points="322.27 741.69 322.29 742.09 322.29 742.09 322.29 742.09 322.27 741.69"/><polygon class="cls-1" points="322.26 741.54 322.26 741.44 322.26 741.54 322.26 741.54"/><line class="cls-42" x1="322.26" y1="741.54" x2="322.26" y2="741.44"/><polygon class="cls-10" points="322.27 741.73 322.26 741.58 322.26 742.36 322.29 742.12 322.27 741.73"/><polyline class="cls-43" points="322.26 741.54 322.26 741.54 322.26 741.54 322.26 741.54 322.26 741.54 322.26 741.54 322.27 741.69 322.29 742.09 322.29 742.09 322.32 741.54"/><polyline class="cls-44" points="322.26 741.44 322.26 741.54 322.26 741.54"/><line class="cls-13" x1="322.32" y1="741.54" x2="322.32" y2="741.54"/><polygon class="cls-4" points="322.35 741.6 322.35 741.6 322.36 741.41 322.35 741.22 322.35 741.6"/><polygon class="cls-14" points="322.26 742.64 322.26 742.64 322.26 742.64 322.26 742.64"/><polygon class="cls-14" points="322.29 742.09 322.29 742.09 322.29 742.09 322.29 742.09"/><polygon class="cls-14" points="322.32 741.54 322.32 741.54 322.32 741.54 322.32 741.54"/><polyline class="cls-45" points="322.26 741.54 322.26 741.54 322.26 741.54"/><polyline class="cls-3" points="322.29 742.09 322.29 741.99 322.32 741.54"/><line class="cls-5" x1="322.26" y1="741.54" x2="322.26" y2="741.44"/><path class="cls-5" d="M320.28,741.17" transform="translate(2.05 0.32)"/></g></g><polygon class="cls-3" points="322.76 749.09 321.13 749.96 313.9 753.81 322.76 758.53 322.76 749.09"/><polygon class="cls-5" points="313.87 744.6 322.73 739.88 322.73 739.88 313.87 735.15 313.86 735.15 313.86 744.6 313.87 744.6"/><polygon class="cls-6" points="313.39 725.75 322.26 730.47 322.35 720.89 313.39 725.75"/><polygon class="cls-3" points="312.69 716.31 313.39 725.75 322.35 720.89 312.69 716.31"/><polygon class="cls-4" points="322.61 711.99 321.85 711.49 312.71 706.91 312.69 706.97 312.69 706.97 312.69 716.41 312.69 716.41 322.61 711.99"/><polygon class="cls-6" points="313.67 796.54 316.96 798.29 316.96 795.79 313.67 796.54"/><polygon class="cls-6" points="312.69 698.14 322.63 702.86 322.73 693.27 312.69 698.14"/><polyline class="cls-5" points="312.6 688.7 312.34 688.7 322.37 693.27 322.63 693.27 322.63 684.38 312.34 688.7"/><polygon class="cls-4" points="322.51 684.38 321.75 683.87 312.6 679.3 312.59 679.35 312.59 679.35 312.59 688.8 312.59 688.8 322.51 684.38"/><polygon class="cls-6" points="308.64 670.47 311.93 672.22 311.93 668.71 308.64 670.47"/><polyline class="cls-3" points="322.36 678.16 322.36 668.71 320.73 669.58 313.5 673.44 322.36 678.16"/><polyline class="cls-4" points="321.33 660.93 321.33 657.65 321.33 657.65 318.25 659.29"/><polygon class="cls-5" points="313.74 670.79 322.61 666.07 322.61 666.07 313.74 661.35 313.74 661.35 313.74 670.79 313.74 670.79"/><polyline class="cls-6" points="322.36 647.22 313.49 651.95 322.36 656.67 322.36 647.22"/><polyline class="cls-5" points="306.75 647.22 311.59 649.8 311.59 644.65"/><polygon class="cls-4" points="322.87 758.53 322.87 758.53 314 753.81 314 753.81 314 753.81 314 763.26 314 763.26 322.87 758.53"/><polygon class="cls-3" points="322.63 702.9 322.63 702.9 312.7 698.18 312.69 698.18 312.69 698.18 312.69 707.62 312.69 707.62 322.63 702.9"/><polygon class="cls-4" points="313.73 772.3 322.59 777.33 322.59 767.68 313.73 772.3"/><polygon class="cls-6" points="313.31 575.54 322.29 580.32 322.29 570.76 313.31 575.54"/><polygon class="cls-3" points="313.58 577.55 313.58 577.55 313.53 583.1 318.16 580.04 313.58 577.55"/><g class="cls-7"><g class="cls-46"><polygon class="cls-1" points="322.71 553.75 322.73 554.15 322.73 554.15 322.73 554.15 322.71 553.75"/><polygon class="cls-1" points="322.7 553.6 322.71 553.5 322.7 553.6 322.7 553.6"/><line class="cls-47" x1="322.7" y1="553.6" x2="322.71" y2="553.5"/><polygon class="cls-10" points="322.71 553.79 322.7 553.63 322.7 554.43 322.74 554.19 322.71 553.79"/><polyline class="cls-48" points="322.7 553.6 322.7 553.6 322.7 553.6 322.7 553.6 322.7 553.6 322.7 553.6 322.71 553.75 322.73 554.15 322.73 554.15 322.76 553.6"/><polyline class="cls-49" points="322.71 553.5 322.7 553.6 322.7 553.6"/><line class="cls-13" x1="322.76" y1="553.6" x2="322.76" y2="553.6"/><polygon class="cls-4" points="322.8 553.66 322.8 553.66 322.81 553.47 322.8 553.27 322.8 553.66"/><polygon class="cls-14" points="322.7 554.71 322.7 554.71 322.7 554.71 322.7 554.71"/><polygon class="cls-14" points="322.73 554.15 322.73 554.15 322.73 554.15 322.73 554.15"/><polygon class="cls-14" points="322.76 553.6 322.76 553.6 322.76 553.6 322.76 553.6"/><polyline class="cls-50" points="322.7 553.6 322.7 553.6 322.7 553.6"/><polyline class="cls-3" points="322.73 554.15 322.74 554.05 322.76 553.6"/><line class="cls-5" x1="322.7" y1="553.6" x2="322.71" y2="553.49"/><path class="cls-5" d="M320.73,553.23" transform="translate(2.05 0.32)"/></g></g><polygon class="cls-3" points="322.7 554.59 321.06 555.47 313.73 559.37 322.7 564.16 322.7 554.59"/><polygon class="cls-3" points="304.73 542.39 313.71 547.18 313.71 537.61 304.73 542.39"/><polygon class="cls-5" points="313.7 556.7 322.68 551.91 322.68 551.91 313.7 547.13 313.7 547.13 313.7 556.7 313.7 556.7"/><polygon class="cls-6" points="313.22 537.61 322.2 542.39 322.29 532.68 313.22 537.61"/><polygon class="cls-4" points="310.25 500.01 310.25 500 305.35 502.62 310.25 505.23 310.25 500.01"/><polygon class="cls-3" points="312.51 528.05 313.8 537.57 322.29 532.68 312.51 528.05"/><polyline class="cls-5" points="312.51 528.05 312.26 528.05 322.04 532.68 322.29 532.68 322.29 523.68 312.26 528.05"/><polygon class="cls-4" points="322.56 523.68 321.79 523.17 312.53 518.54 312.51 518.59 312.51 518.59 312.51 528.15 312.51 528.15 322.56 523.68"/><polygon class="cls-6" points="306.87 530.6 310.2 532.37 310.2 528.83 306.87 530.6"/><polygon class="cls-6" points="313.43 509.43 322.41 514.21 322.5 504.5 313.43 509.43"/><polygon class="cls-3" points="312.72 499.87 314.01 509.39 322.5 504.5 312.72 499.87"/><polyline class="cls-5" points="312.72 499.87 312.46 499.87 322.24 504.5 322.5 504.5 322.5 495.5 312.46 499.87"/><polygon class="cls-4" points="322.77 495.5 322 494.99 312.73 490.36 312.72 490.41 312.72 490.41 312.72 499.98 312.72 499.98 322.77 495.5"/><polygon class="cls-6" points="308.41 476.14 311.74 477.92 311.74 474.37 308.41 476.14"/><polyline class="cls-3" points="322.64 489.42 322.64 479.85 320.99 480.73 313.67 484.64 322.64 489.42"/><polyline class="cls-4" points="321.26 471.98 321.26 468.65 321.26 468.65 318.14 470.31"/><polygon class="cls-5" points="313.58 481.96 322.56 477.18 322.56 477.18 313.58 472.39 313.57 472.39 313.57 481.96 313.58 481.96"/><polyline class="cls-5" points="308.94 456.91 313.85 459.52 313.85 454.3"/><polygon class="cls-4" points="322.82 570.81 322.82 570.81 313.84 566.02 313.84 566.02 313.84 566.02 313.84 575.59 313.84 575.59 322.82 570.81"/><polygon class="cls-3" points="322.62 514.25 322.62 514.25 313.64 509.47 313.64 509.47 313.64 509.47 313.64 519.04 313.64 519.04 322.62 514.25"/><polygon class="cls-5" points="313.31 584.9 322.29 590 322.29 580.22 313.31 584.9"/><polyline class="cls-5" points="313.92 345.82 313.67 345.82 321.83 349.69 323.57 350.4 321.57 341.51 313.67 345.82"/><polygon class="cls-4" points="321.84 341.51 321.08 341 311.93 336.43 311.92 336.48 311.92 336.48 313.92 345.92 313.92 345.93 321.84 341.51"/><polygon class="cls-6" points="312.52 327.65 321.38 332.37 321.47 322.78 312.52 327.65"/><polygon class="cls-3" points="311.82 318.21 313.09 327.61 321.47 322.78 311.82 318.21"/><polyline class="cls-5" points="311.82 318.21 311.56 318.21 321.22 322.78 321.47 322.78 321.47 313.89 311.56 318.21"/><polygon class="cls-3" points="321.59 332.41 321.59 332.41 312.72 327.69 312.72 327.69 312.72 327.69 312.72 337.13 312.72 337.13 321.59 332.41"/><polygon class="cls-5" points="321.83 304.41 318.8 305.94 311.56 309.79 321.43 314.51 321.83 304.41"/><polygon class="cls-4" points="311.74 309.79 321.83 304.41 321.83 304.41 311.74 299.04 311.74 299.04 311.74 299.04 311.74 299.04 311.74 309.79 311.74 309.79"/><polygon class="cls-4" points="313.72 792.89 322.58 797.92 322.58 788.27 313.72 792.89"/><polygon class="cls-4" points="313.72 735.64 322.58 740.67 322.58 731.02 313.72 735.64"/><polyline class="cls-5" points="315.35 746.51 320.19 749.09 320.19 743.93"/><polyline class="cls-4" points="321.51 717.95 321.51 714.67 321.51 714.67 318.44 716.31"/><line class="cls-6" x1="315.02" y1="724.55" x2="318.31" y2="726.31"/><polyline class="cls-6" points="312.94 785.32 309.65 787.07 312.94 788.82"/><polyline class="cls-5" points="310.18 768.08 315.02 770.65 315.02 765.5"/><polyline class="cls-4" points="313.04 778.68 311.38 775.85 311.38 775.85 309.56 778.82"/><polyline class="cls-5" points="307.47 800.3 311.84 798.18 308.5 795.55"/><polyline class="cls-4" points="312.17 809.85 310.51 807.02 310.51 807.02 308.68 809.99"/><polyline class="cls-6" points="312.94 758.88 309.65 760.63 312.94 762.38"/><polyline class="cls-4" points="314.08 750.55 312.42 747.72 312.42 747.72 310.59 750.69"/><polyline class="cls-5" points="314.31 733.75 319.03 730.97 314.63 728.28"/><polyline class="cls-6" points="310.88 737.84 309.12 741.91 313.48 741.1"/><polyline class="cls-3" points="308.41 725.51 305.66 731.34 312.03 730.38"/><polyline class="cls-4" points="312.14 720.45 310.48 717.61 310.48 717.61 308.65 720.59"/><polyline class="cls-5" points="307.84 706.36 305.33 712.15 311.54 711"/><polyline class="cls-4" points="317.17 695.03 314.72 691.17 314.72 691.17 312.31 695.39"/><polyline class="cls-6" points="310.54 699.57 309.52 701.9 312.03 701.44"/><polyline class="cls-5" points="311.88 685.36 305.8 683.66 307.79 689.65"/><polyline class="cls-4" points="321.57 606.18 319.12 602.31 319.12 602.31 316.72 606.54"/><polyline class="cls-4" points="321.57 646.18 319.12 642.31 319.12 642.31 316.72 646.54"/><polygon class="cls-5" points="313.87 651.95 322.73 647.22 322.73 647.22 313.87 642.5 313.86 642.5 313.86 651.95 313.87 651.95"/><polygon class="cls-6" points="313.39 633.1 322.26 637.82 322.35 628.23 313.39 633.1"/><polygon class="cls-3" points="312.69 623.66 313.39 633.1 322.35 628.23 312.69 623.66"/><polygon class="cls-4" points="322.61 619.34 321.85 618.83 312.71 614.26 312.69 614.31 312.69 614.31 312.69 623.76 312.69 623.76 322.61 619.34"/><polygon class="cls-3" points="322.63 610.25 322.63 610.25 312.7 605.52 312.69 605.52 312.69 605.52 312.69 614.97 312.69 614.97 322.63 610.25"/><polygon class="cls-4" points="313.72 642.99 322.58 648.02 322.58 638.37 313.72 642.99"/><polyline class="cls-4" points="321.51 625.3 321.51 622.02 321.51 622.02 318.44 623.66"/><line class="cls-6" x1="315.02" y1="631.9" x2="318.31" y2="633.65"/><polyline class="cls-5" points="314.31 641.1 319.03 638.32 314.63 635.63"/><polygon class="cls-6" points="313.24 596.33 322.21 601.12 322.21 591.55 313.24 596.33"/><polygon class="cls-5" points="315.85 597.88 315.85 597.88 310.94 600.49 315.85 603.1 315.85 597.88"/><polygon class="cls-3" points="322.93 591.19 322.93 590.64 313.5 584.9 313.5 584.9 313.5 584.9 313.5 596.38 313.5 596.38 322.93 591.19"/><polygon class="cls-4" points="312.69 605.7 322.21 610.79 322.21 601.01 312.69 605.7"/><polygon class="cls-4" points="310.57 551.98 310.57 551.98 305.67 554.59 310.57 557.2 310.57 551.98"/><polyline class="cls-5" points="307.39 632.84 312.23 635.42 312.23 630.26"/><polyline class="cls-6" points="310.15 622.97 305.61 625.39 310.15 627.82"/><polyline class="cls-4" points="311.29 615.32 309.64 612.48 309.64 612.48 307.81 615.45"/><polyline class="cls-6" points="309.66 600.9 307.89 604.98 312.26 604.17"/><polygon class="cls-4" points="308.48 586.9 308.48 586.9 306.26 592.85 312.44 591.37 308.48 586.9"/><polygon class="cls-3" points="322.11 423.3 320.48 424.17 313.24 428.02 322.11 432.74 322.11 423.3"/><path class="cls-4" d="M308.13,422.87" transform="translate(2.05 0.32)"/><polygon class="cls-5" points="313.71 425.38 322.57 420.65 322.57 420.65 313.71 415.93 313.71 415.93 313.71 425.38 313.71 425.38"/><polygon class="cls-6" points="313.24 406.53 322.11 411.25 322.11 401.81 313.24 406.53"/><g class="cls-7"><g class="cls-51"><polygon class="cls-1" points="322.02 385.01 322.05 385.41 322.05 385.41 322.05 385.41 322.02 385.01"/><polygon class="cls-1" points="322.02 384.86 322.02 384.76 322.02 384.86 322.02 384.86"/><line class="cls-52" x1="322.02" y1="384.86" x2="322.02" y2="384.76"/><polygon class="cls-10" points="322.03 385.05 322.02 384.9 322.02 385.68 322.05 385.44 322.03 385.05"/><polyline class="cls-53" points="322.02 384.86 322.02 384.86 322.02 384.86 322.02 384.86 322.02 384.86 322.02 384.86 322.02 385.01 322.05 385.41 322.05 385.41 322.08 384.86"/><polyline class="cls-54" points="322.02 384.76 322.02 384.86 322.02 384.86"/><line class="cls-13" x1="322.08" y1="384.86" x2="322.08" y2="384.86"/><polygon class="cls-4" points="322.11 384.92 322.11 384.92 322.12 384.73 322.11 384.54 322.11 384.92"/><polygon class="cls-14" points="322.02 385.96 322.02 385.96 322.02 385.96 322.02 385.96"/><polygon class="cls-14" points="322.05 385.41 322.05 385.41 322.05 385.41 322.05 385.41"/><polygon class="cls-14" points="322.08 384.86 322.08 384.86 322.08 384.86 322.08 384.86"/><polyline class="cls-55" points="322.02 384.86 322.02 384.86 322.02 384.86"/><polyline class="cls-3" points="322.05 385.41 322.05 385.31 322.08 384.86"/><line class="cls-5" x1="322.02" y1="384.86" x2="322.02" y2="384.76"/><path class="cls-5" d="M320,384.5" transform="translate(2.05 0.32)"/></g></g><polygon class="cls-3" points="322.52 392.41 320.89 393.28 313.65 397.13 322.52 401.86 322.52 392.41"/><polygon class="cls-5" points="313.62 387.92 322.49 383.2 322.49 383.2 313.62 378.47 313.62 378.47 313.62 387.92 313.62 387.92"/><polygon class="cls-6" points="313.15 369.07 322.02 373.8 322.11 364.21 313.15 369.07"/><polygon class="cls-3" points="313.45 359.63 313.15 369.07 322.11 364.21 313.45 359.63"/><polygon class="cls-4" points="323.88 351 323.12 350.49 313.97 345.92 313.96 345.98 313.96 345.97 313.96 355.42 313.96 355.42 323.88 351"/><polygon class="cls-6" points="313.43 439.86 316.71 441.61 316.71 439.11 313.43 439.86"/><polygon class="cls-4" points="322.63 401.86 322.63 401.85 313.76 397.13 313.76 397.13 313.76 397.13 313.76 406.58 313.76 406.58 322.63 401.86"/><polygon class="cls-4" points="313.49 415.62 322.35 420.65 322.35 411 313.49 415.62"/><polygon class="cls-4" points="313.48 436.21 322.34 441.24 322.34 431.59 313.48 436.21"/><polygon class="cls-4" points="313.48 378.96 322.34 383.99 322.34 374.34 313.48 378.96"/><polyline class="cls-5" points="315.11 389.83 319.94 392.41 319.94 387.25"/><polyline class="cls-4" points="322.27 361.27 322.27 357.99 322.27 357.99 319.19 359.63"/><line class="cls-6" x1="314.78" y1="367.87" x2="318.07" y2="369.63"/><polyline class="cls-6" points="312.7 428.64 309.41 430.39 312.7 432.14"/><polyline class="cls-5" points="309.94 411.4 314.78 413.97 314.78 408.82"/><polyline class="cls-4" points="312.8 422 311.14 419.17 311.14 419.17 309.31 422.14"/><polyline class="cls-5" points="307.23 443.62 311.6 441.5 308.26 438.87"/><polyline class="cls-4" points="311.93 453.18 310.27 450.34 310.27 450.34 308.44 453.31"/><polyline class="cls-6" points="312.7 402.2 309.41 403.95 312.7 405.7"/><polyline class="cls-4" points="313.84 393.87 312.18 391.04 312.18 391.04 310.35 394.01"/><polyline class="cls-5" points="314.07 377.08 318.79 374.29 314.39 371.61"/><polyline class="cls-6" points="310.64 381.16 308.88 385.23 313.24 384.43"/><polyline class="cls-3" points="308.17 368.84 305.42 374.67 311.79 373.7"/><polyline class="cls-4" points="311.89 363.77 311.24 360.94 311.24 360.94 308.41 363.91"/><polyline class="cls-5" points="308.6 349.68 306.09 355.47 312.29 354.32"/><polyline class="cls-5" points="307.85 510.68 305.89 517.25 312.73 516.7"/><polyline class="cls-4" points="313.28 489.34 311.08 485.58 311.08 485.58 308.83 489.42"/><polygon class="cls-6" points="308.97 495.9 311.18 497.08 311.18 494.73 308.97 495.9"/><polyline class="cls-5" points="311.87 569.5 305.79 567.81 307.78 573.8"/><polyline class="cls-3" points="309.64 461.68 306.89 467.51 313.26 466.54"/><polyline class="cls-6" points="307.17 338.59 306.42 344.42 312.79 343.45"/><polyline class="cls-4" points="312.89 348.4 311.24 345.56 311.24 345.56 309.41 348.54"/><polyline class="cls-5" points="306.93 334.56 311.77 337.14 311.77 331.98"/><polyline class="cls-4" points="316.27 315.64 312.23 310.43 312.23 310.43 309.86 315.89"/><polyline class="cls-6" points="308.93 327.19 309.26 330.45 311.79 328.35"/><polyline class="cls-5" points="311.59 323.19 308.23 324.97 311.58 326.77"/><polyline class="cls-4" points="307.83 316.89 306 320.52 306 320.52 310.32 320.43"/><polyline class="cls-5" points="305.99 308.12 310.71 305.33 306.31 302.64"/><polygon class="cls-3" points="322.1 268.08 320.33 269.02 312.5 273.19 322.1 278.3 322.1 268.08"/><path class="cls-4" d="M307.14,267.64" transform="translate(2.05 0.32)"/><polygon class="cls-5" points="313.01 270.33 322.6 265.22 322.6 265.22 313.01 260.11 313.01 260.11 313.01 270.33 313.01 270.33"/><polygon class="cls-6" points="312.5 249.93 322.1 255.04 322.1 244.82 312.5 249.93"/><g class="cls-7"><g class="cls-56"><polygon class="cls-1" points="322.01 226.65 322.03 227.08 322.03 227.08 322.03 227.08 322.01 226.65"/><polygon class="cls-1" points="322 226.48 322.01 226.38 322 226.48 322 226.48"/><line class="cls-57" x1="322" y1="226.48" x2="322.01" y2="226.37"/><polygon class="cls-10" points="322.01 226.69 322 226.52 322 227.37 322.03 227.11 322.01 226.69"/><polyline class="cls-58" points="322 226.48 322 226.48 322 226.48 322 226.48 322 226.48 322 226.48 322.01 226.65 322.03 227.08 322.03 227.08 322.06 226.48"/><polyline class="cls-59" points="322.01 226.38 322 226.48 322 226.48"/><line class="cls-13" x1="322.06" y1="226.48" x2="322.06" y2="226.48"/><polygon class="cls-4" points="322.1 226.54 322.1 226.54 322.11 226.34 322.1 226.13 322.1 226.54"/><polygon class="cls-14" points="322 227.67 322 227.67 322 227.67 322 227.67"/><polygon class="cls-14" points="322.03 227.08 322.03 227.08 322.03 227.08 322.03 227.08"/><polygon class="cls-14" points="322.06 226.48 322.06 226.48 322.06 226.48 322.06 226.48"/><polyline class="cls-60" points="322 226.48 322 226.48 322 226.48"/><polyline class="cls-3" points="322.03 227.08 322.04 226.97 322.06 226.48"/><line class="cls-5" x1="322" y1="226.48" x2="322.01" y2="226.37"/><path class="cls-5" d="M320,226.11" transform="translate(2.05 0.32)"/></g></g><polygon class="cls-3" points="322.54 234.65 320.78 235.59 312.95 239.76 322.54 244.87 322.54 234.65"/><polygon class="cls-5" points="312.92 229.79 322.51 224.68 322.51 224.68 312.92 219.57 312.91 219.57 312.91 229.79 312.92 229.79"/><polygon class="cls-6" points="312.41 209.4 322 214.51 322.1 204.13 312.41 209.4"/><polygon class="cls-3" points="311.65 199.18 312.41 209.4 322.1 204.13 311.65 199.18"/><polygon class="cls-4" points="322.38 194.51 321.56 193.96 311.66 189.01 311.65 189.07 311.65 189.06 311.65 199.29 311.65 199.29 322.38 194.51"/><polygon class="cls-6" points="312.7 286 316.26 287.9 316.26 285.19 312.7 286"/><polygon class="cls-6" points="311.65 179.51 322.4 184.62 322.51 174.24 311.65 179.51"/><polyline class="cls-5" points="311.55 169.29 311.26 169.29 322.12 174.24 322.4 174.24 322.4 164.62 311.26 169.29"/><polygon class="cls-4" points="322.27 164.62 321.45 164.07 311.55 159.12 311.54 159.18 311.54 159.18 311.54 169.4 311.54 169.4 322.27 164.62"/><polygon class="cls-6" points="307.26 149.56 310.82 151.46 310.82 147.67 307.26 149.56"/><polyline class="cls-3" points="322.11 157.89 322.11 147.67 320.35 148.6 312.51 152.78 322.11 157.89"/><polyline class="cls-4" points="321 139.25 321 135.69 321 135.69 317.66 137.47"/><polygon class="cls-5" points="312.78 149.92 322.38 144.81 322.38 144.8 312.78 139.69 312.78 139.69 312.78 149.92 312.78 149.92"/><polyline class="cls-6" points="322.11 124.41 312.51 129.52 322.11 134.63 322.11 124.41"/><polyline class="cls-5" points="305.22 124.41 310.45 127.2 310.45 121.62"/><polygon class="cls-4" points="322.66 244.87 322.66 244.87 313.07 239.76 313.06 239.76 313.06 239.76 313.06 249.99 313.06 249.99 322.66 244.87"/><polygon class="cls-3" points="322.4 184.66 322.4 184.66 311.65 179.55 311.65 179.55 311.65 179.55 311.65 189.78 311.65 189.78 322.4 184.66"/><polygon class="cls-4" points="312.77 259.77 322.36 265.22 322.36 254.77 312.77 259.77"/><polygon class="cls-6" points="312.32 46.83 322.04 52 322.04 41.65 312.32 46.83"/><polygon class="cls-3" points="312.61 49 312.61 49 312.55 55.01 317.57 51.7 312.61 49"/><g class="cls-7"><g class="cls-61"><polygon class="cls-1" points="322.49 23.25 322.51 23.68 322.51 23.68 322.51 23.68 322.49 23.25"/><polygon class="cls-1" points="322.48 23.08 322.49 22.97 322.48 23.08 322.48 23.08"/><line class="cls-62" x1="322.48" y1="23.08" x2="322.49" y2="22.97"/><polygon class="cls-10" points="322.49 23.29 322.48 23.12 322.48 23.98 322.51 23.72 322.49 23.29"/><polyline class="cls-63" points="322.48 23.08 322.48 23.08 322.48 23.08 322.48 23.08 322.48 23.08 322.48 23.08 322.49 23.25 322.51 23.68 322.51 23.68 322.55 23.08"/><polyline class="cls-64" points="322.49 22.97 322.48 23.08 322.48 23.08"/><line class="cls-13" x1="322.55" y1="23.08" x2="322.55" y2="23.08"/><polygon class="cls-4" points="322.58 23.14 322.58 23.14 322.59 22.94 322.58 22.73 322.58 23.14"/><polygon class="cls-14" points="322.48 24.28 322.48 24.28 322.48 24.28 322.48 24.28"/><polygon class="cls-14" points="322.51 23.68 322.51 23.68 322.51 23.68 322.51 23.68"/><polygon class="cls-14" points="322.55 23.08 322.55 23.08 322.55 23.08 322.55 23.08"/><polyline class="cls-65" points="322.48 23.08 322.48 23.08 322.48 23.08"/><polyline class="cls-3" points="322.51 23.68 322.52 23.57 322.55 23.08"/><line class="cls-5" x1="322.48" y1="23.08" x2="322.49" y2="22.97"/><path class="cls-5" d="M320.51,22.71" transform="translate(2.05 0.32)"/></g></g><polygon class="cls-3" points="322.48 24.16 320.7 25.11 312.76 29.33 322.48 34.51 322.48 24.16"/><polygon class="cls-3" points="303.03 10.96 312.75 16.13 312.75 5.78 303.03 10.96"/><polygon class="cls-5" points="312.74 26.43 322.45 21.26 322.45 21.26 312.74 16.08 312.74 16.08 312.74 26.43 312.74 26.43"/><polygon class="cls-6" points="312.22 5.78 321.94 10.95 322.04 0.45 312.22 5.78"/><polygon class="cls-4" points="322.61 41.7 322.61 41.7 312.89 36.53 312.89 36.53 312.89 36.53 312.89 46.88 312.89 46.88 322.61 41.7"/><polygon class="cls-5" points="312.32 56.96 322.04 62.47 322.04 51.89 312.32 56.96"/><polygon class="cls-4" points="312.75 282.06 322.35 287.5 322.35 277.06 312.75 282.06"/><polygon class="cls-4" points="312.75 220.1 322.35 225.54 322.35 215.1 312.75 220.1"/><polyline class="cls-5" points="314.52 231.86 319.76 234.65 319.76 229.07"/><polyline class="cls-4" points="321.19 200.96 321.19 197.4 321.19 197.4 317.86 199.18"/><line class="cls-6" x1="314.17" y1="208.1" x2="317.73" y2="209.99"/><polyline class="cls-6" points="311.92 273.86 308.36 275.76 311.92 277.65"/><polyline class="cls-5" points="308.93 255.2 314.16 257.99 314.16 252.41"/><polyline class="cls-4" points="312.02 266.68 310.23 263.61 310.23 263.61 308.25 266.83"/><polyline class="cls-5" points="305.99 290.07 310.73 287.78 307.11 284.93"/><polyline class="cls-4" points="311.08 300.42 309.28 297.35 309.28 297.35 307.3 300.57"/><polyline class="cls-6" points="311.92 245.25 308.36 247.14 311.92 249.04"/><polyline class="cls-4" points="313.15 236.24 311.36 233.17 311.36 233.17 309.37 236.39"/><polyline class="cls-5" points="313.39 218.06 318.5 215.04 313.74 212.14"/><polyline class="cls-6" points="309.69 222.48 307.78 226.88 312.5 226.01"/><polyline class="cls-3" points="307.01 209.14 304.03 215.45 310.93 214.4"/><polyline class="cls-4" points="311.04 203.65 309.25 200.59 309.25 200.59 307.27 203.81"/><polyline class="cls-5" points="306.39 188.41 303.68 194.67 310.39 193.43"/><polyline class="cls-4" points="316.49 176.15 313.84 171.97 313.84 171.97 311.24 176.54"/><polyline class="cls-6" points="309.31 181.05 308.22 183.59 310.93 183.08"/><polyline class="cls-5" points="310.77 165.68 304.19 163.85 306.34 170.33"/><polyline class="cls-4" points="321.25 79.99 318.61 75.8 318.61 75.8 316 80.38"/><polyline class="cls-4" points="321.25 123.28 318.61 119.09 318.61 119.09 316 123.66"/><polygon class="cls-5" points="312.92 129.52 322.51 124.41 322.51 124.41 312.92 119.29 312.91 119.3 312.91 129.52 312.92 129.52"/><polygon class="cls-6" points="312.41 109.12 322 114.23 322.1 103.85 312.41 109.12"/><polygon class="cls-3" points="311.65 98.91 312.41 109.12 322.1 103.85 311.65 98.91"/><polygon class="cls-4" points="322.38 94.23 321.56 93.68 311.66 88.73 311.65 88.79 311.65 88.79 311.65 99.01 311.65 99.01 322.38 94.23"/><polygon class="cls-3" points="322.4 84.39 322.4 84.39 311.65 79.28 311.65 79.28 311.65 79.28 311.65 89.5 311.65 89.5 322.4 84.39"/><polygon class="cls-4" points="312.75 119.83 322.35 125.27 322.35 114.82 312.75 119.83"/><polyline class="cls-4" points="321.19 100.68 321.19 97.13 321.19 97.13 317.86 98.91"/><line class="cls-6" x1="314.17" y1="107.82" x2="317.73" y2="109.72"/><polyline class="cls-5" points="313.39 117.78 318.5 114.77 313.74 111.86"/><polygon class="cls-6" points="312.23 69.33 321.95 74.51 321.95 64.16 312.23 69.33"/><polygon class="cls-5" points="315.06 71.01 315.06 71.01 309.75 73.83 315.06 76.66 315.06 71.01"/><polygon class="cls-3" points="322.73 63.76 322.73 63.17 312.52 56.96 312.52 56.96 312.52 56.96 312.52 69.39 312.52 69.39 322.73 63.76"/><polygon class="cls-4" points="311.65 79.46 321.95 84.98 321.95 74.4 311.65 79.46"/><polygon class="cls-4" points="309.35 21.33 309.35 21.33 304.04 24.16 309.35 26.98 309.35 21.33"/><polyline class="cls-5" points="305.91 108.84 311.15 111.63 311.15 106.05"/><polyline class="cls-6" points="308.9 98.16 303.98 100.78 308.9 103.41"/><polyline class="cls-4" points="310.13 89.87 308.34 86.81 308.34 86.81 306.36 90.02"/><polyline class="cls-6" points="308.36 74.28 306.45 78.68 311.17 77.81"/><polygon class="cls-4" points="307.08 59.12 307.08 59.12 304.69 65.56 311.37 63.96 307.08 59.12"/><polyline class="cls-5" points="310.76 40.29 304.18 38.46 306.33 44.95"/><polygon class="cls-3" points="1.53 19 3.16 18.13 10.4 14.27 1.53 9.55 1.53 19"/><polygon class="cls-5" points="10.4 4.83 1.53 9.55 1.53 9.55 10.4 14.27 10.4 14.27 10.4 4.83 10.4 4.83"/><polygon class="cls-4" points="10.48 5.03 1.61 0 1.61 9.65 10.48 5.03"/><polygon class="cls-4" points="15.87 159.12 7.01 154.09 7.01 163.75 15.87 159.12"/><polygon class="cls-4" points="9.88 92.92 1.01 87.89 1.01 97.54 9.88 92.92"/><polyline class="cls-3" points="1.63 358.48 1.63 368.04 3.28 367.16 10.61 363.26 1.63 358.48"/><polygon class="cls-5" points="11.1 368.17 2.12 372.95 2.12 372.95 11.1 377.74 11.1 377.74 11.1 368.17 11.1 368.17"/><polygon class="cls-6" points="11.71 515.39 2.11 510.28 2.11 520.5 11.71 515.39"/><polygon class="cls-3" points="1.67 530.67 3.43 529.73 11.26 525.56 1.67 520.45 1.67 530.67"/><polygon class="cls-4" points="1.55 520.45 1.55 520.45 11.14 525.56 11.14 525.56 11.14 525.56 11.14 515.34 11.14 515.34 1.55 520.45"/><polygon class="cls-4" points="0.88 681.58 1.71 682.13 11.61 687.08 11.62 687.02 11.62 687.02 11.62 676.8 11.62 676.8 0.88 681.58"/><polygon class="cls-4" points="309.33 131.75 309.33 131.75 306.31 137.5 312.39 135.21 309.33 131.75"/><polygon class="cls-5" points="322.85 287.5 319.81 289.02 312.58 292.88 322.44 297.6 322.85 287.5"/><polygon class="cls-6" points="315.52 298.5 319.08 300.39 319.08 297.68 315.52 298.5"/><polygon class="cls-5" points="322.85 440.37 319.81 441.89 312.58 445.74 322.44 450.47 322.85 440.37"/><polygon class="cls-3" points="322.4 449.57 320.77 450.44 313.53 454.3 322.4 459.02 322.4 449.57"/><polygon class="cls-4" points="313.53 463.64 322.4 468.67 322.4 459.02 313.53 463.64"/><polygon class="cls-4" points="311.86 654.67 311.86 654.67 309.64 660.63 315.82 659.14 311.86 654.67"/><polygon class="cls-6" points="313.09 801.76 321.95 806.49 321.95 797.04 313.09 801.76"/><polygon class="cls-5" points="313.28 811.21 322.14 806.49 322.14 806.48 313.28 801.76 313.28 801.76 313.28 811.21 313.28 811.21"/></g></g></svg>