<svg xmlns="http://www.w3.org/2000/svg" xmlns:xlink="http://www.w3.org/1999/xlink" viewBox="0 0 784.84 434.78"><defs><style>.cls-1{fill:url(#Dégradé_sans_nom_3);}.cls-2{isolation:isolate;}.cls-3{fill:#f18700;}.cls-4{mix-blend-mode:multiply;opacity:0.5;}.cls-5{fill:#8c8c8c;}.cls-6{clip-path:url(#clip-path);}.cls-7{fill:url(#linear-gradient);}.cls-8{fill:url(#linear-gradient-2);}.cls-9{fill:url(#linear-gradient-3);}.cls-10{fill:url(#linear-gradient-4);}.cls-11{opacity:0.2;}.cls-12{fill:url(#linear-gradient-5);}.cls-13{fill:url(#linear-gradient-6);}.cls-14{fill:url(#linear-gradient-7);}.cls-15{fill:url(#linear-gradient-8);}.cls-16{fill:url(#linear-gradient-9);}.cls-17{fill:url(#linear-gradient-10);}.cls-18{fill:url(#linear-gradient-11);}.cls-19{fill:url(#linear-gradient-12);}.cls-20{fill:url(#linear-gradient-13);}.cls-21{fill:url(#linear-gradient-14);}.cls-22{fill:url(#linear-gradient-15);}.cls-23{opacity:0.3;}.cls-24{fill:url(#linear-gradient-16);}.cls-25{opacity:0.1;}.cls-26{fill:url(#linear-gradient-17);}.cls-27{fill:url(#linear-gradient-18);}.cls-28,.cls-30{mix-blend-mode:color-burn;}.cls-28{fill:url(#linear-gradient-19);}.cls-29{mix-blend-mode:color-dodge;fill:url(#linear-gradient-20);}.cls-30{fill:url(#linear-gradient-21);}.cls-31,.cls-32,.cls-33{mix-blend-mode:screen;}.cls-31{fill:url(#linear-gradient-22);}.cls-32{fill:url(#linear-gradient-23);}.cls-33{fill:url(#linear-gradient-24);}.cls-34{fill:#518bb9;}.cls-35{fill:none;stroke:#518bb9;stroke-miterlimit:10;}</style><linearGradient id="Dégradé_sans_nom_3" x1="2" y1="96.62" x2="333.29" y2="96.62" gradientUnits="userSpaceOnUse"><stop offset="0.28" stop-color="#d6d7d7"/><stop offset="1" stop-color="#fff"/></linearGradient><clipPath id="clip-path" transform="translate(91.15 95.51)"><rect class="cls-1" x="2" y="1.97" width="331.29" height="189.31" rx="20.77"/></clipPath><linearGradient id="linear-gradient" x1="45.69" y1="374.92" x2="502.53" y2="94.9" xlink:href="#Dégradé_sans_nom_3"/><linearGradient id="linear-gradient-2" x1="1172.63" y1="242.27" x2="1398.57" y2="-161.72" gradientTransform="matrix(1, 0, -0.3, 1, -1131.76, 95.51)" xlink:href="#Dégradé_sans_nom_3"/><linearGradient id="linear-gradient-3" x1="-3482.18" y1="136.2" x2="-3383.45" y2="136.2" gradientTransform="matrix(-1, 0, 0, 1, -3297.17, 95.51)" xlink:href="#Dégradé_sans_nom_3"/><linearGradient id="linear-gradient-4" x1="1304.21" y1="12.77" x2="1392.77" y2="-145.57" gradientTransform="matrix(1, 0, -0.3, 1, -1131.76, 95.51)" xlink:href="#Dégradé_sans_nom_3"/><linearGradient id="linear-gradient-5" x1="1070.1" y1="438.4" x2="1542.11" y2="-405.55" gradientTransform="matrix(1, 0, -0.3, 1, -1131.76, 95.51)" xlink:href="#Dégradé_sans_nom_3"/><linearGradient id="linear-gradient-6" x1="-3555.22" y1="144.3" x2="-3422.23" y2="144.3" gradientTransform="matrix(-1, 0, 0, 1, -3297.17, 95.51)" xlink:href="#Dégradé_sans_nom_3"/><linearGradient id="linear-gradient-7" x1="1230.83" y1="262.11" x2="1506.25" y2="-230.35" gradientTransform="matrix(1, 0, -0.3, 1, -1131.76, 95.51)" xlink:href="#Dégradé_sans_nom_3"/><linearGradient id="linear-gradient-8" x1="-3898.14" y1="56.24" x2="-3960.2" y2="-8.81" gradientTransform="matrix(-1, 0, 0, 1, -3297.17, 95.51)" xlink:href="#Dégradé_sans_nom_3"/><linearGradient id="linear-gradient-9" x1="-3893.64" y1="159.17" x2="-3787.7" y2="159.17" gradientTransform="matrix(-1, 0, 0, 1, -3297.17, 95.51)" xlink:href="#Dégradé_sans_nom_3"/><linearGradient id="linear-gradient-10" x1="563.41" y1="228.27" x2="243.54" y2="280.93" xlink:href="#Dégradé_sans_nom_3"/><linearGradient id="linear-gradient-11" x1="679.25" y1="278.1" x2="846.69" y2="-21.27" gradientTransform="matrix(1, 0, -0.3, 1, -465.92, 95.51)" xlink:href="#Dégradé_sans_nom_3"/><linearGradient id="linear-gradient-12" x1="217.47" y1="295" x2="290.63" y2="295" xlink:href="#Dégradé_sans_nom_3"/><linearGradient id="linear-gradient-13" x1="776.76" y1="108.03" x2="842.38" y2="-9.3" gradientTransform="matrix(1, 0, -0.3, 1, -465.92, 95.51)" xlink:href="#Dégradé_sans_nom_3"/><linearGradient id="linear-gradient-14" x1="620.85" y1="411.8" x2="970.62" y2="-213.59" gradientTransform="matrix(1, 0, -0.3, 1, -465.92, 95.51)" xlink:href="#Dégradé_sans_nom_3"/><linearGradient id="linear-gradient-15" x1="1065.08" y1="310.72" x2="1240.18" y2="-2.37" gradientTransform="matrix(1, 0, -0.3, 1, -465.92, 95.51)" xlink:href="#Dégradé_sans_nom_3"/><linearGradient id="linear-gradient-16" x1="935.61" y1="489.61" x2="1291.48" y2="-146.68" gradientTransform="matrix(1, 0, -0.3, 1, -465.92, 95.51)" xlink:href="#Dégradé_sans_nom_3"/><linearGradient id="linear-gradient-17" x1="964.41" y1="528.29" x2="1382.5" y2="-219.25" gradientTransform="matrix(1, 0, -0.3, 1, -465.92, 95.51)" xlink:href="#Dégradé_sans_nom_3"/><linearGradient id="linear-gradient-18" x1="532.92" y1="312.02" x2="611.42" y2="312.02" xlink:href="#Dégradé_sans_nom_3"/><linearGradient id="linear-gradient-19" x1="430.22" y1="224.98" x2="309.81" y2="306.98" xlink:href="#Dégradé_sans_nom_3"/><linearGradient id="linear-gradient-20" x1="244.39" y1="284.71" x2="85.97" y2="150.62" gradientUnits="userSpaceOnUse"><stop offset="0.28" stop-color="#010101"/><stop offset="1" stop-color="#171717"/></linearGradient><linearGradient id="linear-gradient-21" x1="495.99" y1="222.17" x2="375.58" y2="304.17" xlink:href="#Dégradé_sans_nom_3"/><linearGradient id="linear-gradient-22" x1="233.47" y1="303.78" x2="332.01" y2="303.78" xlink:href="#Dégradé_sans_nom_3"/><linearGradient id="linear-gradient-23" x1="478.59" y1="101.41" x2="346.61" y2="234.73" xlink:href="#Dégradé_sans_nom_3"/><linearGradient id="linear-gradient-24" x1="285.14" y1="135.51" x2="186.54" y2="326.79" gradientUnits="userSpaceOnUse"><stop offset="0.28" stop-color="#010101"/><stop offset="1" stop-color="#fff"/></linearGradient></defs><g class="cls-2"><g id="Calque_1" data-name="Calque 1"><path class="cls-3" d="M443.82,91.74" transform="translate(91.15 95.51)"/><path class="cls-3" d="M1005.89,91.74" transform="translate(91.15 95.51)"/><g class="cls-4"><rect class="cls-5" x="134.2" y="152.55" width="211.11" height="120.64" rx="16.36"/></g><rect class="cls-1" x="93.15" y="97.48" width="331.29" height="189.31" rx="20.77"/><g class="cls-6"><polygon class="cls-7" points="545.59 336.67 21.04 336.67 178.52 25.35 703.06 25.35 545.59 336.67"/><polygon class="cls-8" points="79.55 268.54 50.11 268.54 156.29 58.62 185.73 58.62 79.55 268.54"/><polygon class="cls-9" points="99.66 316.07 86.28 316.07 171.63 147.34 185.01 147.34 99.66 316.07"/><polygon class="cls-10" points="215.06 80.01 199 80.01 239.47 0 255.53 0 215.06 80.01"/><g class="cls-11"><polygon class="cls-12" points="61.14 343.8 233.84 2.38 172.7 2.38 0 343.8 61.14 343.8"/><polygon class="cls-13" points="152.85 343.8 258.05 135.83 230.26 135.83 125.06 343.8 152.85 343.8"/><polygon class="cls-14" points="151.09 275.25 123.3 275.25 254.79 15.29 282.58 15.29 151.09 275.25"/></g><polygon class="cls-15" points="540.16 251.79 569.6 251.79 680.99 31.57 651.56 31.57 540.16 251.79"/><polygon class="cls-16" points="587.11 159.22 596.47 159.22 499.9 350.14 490.54 350.14 587.11 159.22"/><polygon class="cls-17" points="576.11 363.92 187.41 363.92 304.1 133.22 692.8 133.22 576.11 363.92"/><polygon class="cls-18" points="212.48 322.3 190.67 322.3 269.35 166.74 291.17 166.74 212.48 322.3"/><polygon class="cls-19" points="227.39 357.52 217.47 357.52 280.72 232.49 290.63 232.49 227.39 357.52"/><polygon class="cls-20" points="312.9 182.59 301 182.59 330.99 123.3 342.89 123.3 312.9 182.59"/><g class="cls-11"><polygon class="cls-21" points="219.9 366.43 347.87 113.43 302.56 113.43 174.59 366.43 219.9 366.43"/></g><polygon class="cls-22" points="569.88 352.82 591.69 352.82 674.24 189.63 652.42 189.63 569.88 352.82"/><g class="cls-23"><polygon class="cls-24" points="561.03 380.41 676.24 152.65 632.3 152.65 517.09 380.41 561.03 380.41"/></g><g class="cls-25"><polygon class="cls-26" points="669.64 363.39 784.85 135.63 653.8 135.63 538.59 363.39 669.64 363.39"/></g><polygon class="cls-27" points="604.48 241.29 611.42 241.29 539.86 382.76 532.92 382.76 604.48 241.29"/><polygon class="cls-28" points="301.18 434.78 466.41 108.13 422.76 108.13 257.53 434.78 301.18 434.78"/><polygon class="cls-29" points="113.19 388.44 278.42 61.79 234.77 61.79 69.54 388.44 113.19 388.44"/><polygon class="cls-30" points="366.95 431.98 532.18 105.32 488.53 105.32 323.3 431.98 366.95 431.98"/><polygon class="cls-31" points="254.06 380.83 332.01 226.72 311.42 226.72 233.47 380.83 254.06 380.83"/><polygon class="cls-32" points="339.39 300.46 434.12 113.17 409.1 113.17 314.36 300.46 339.39 300.46"/><rect class="cls-33" x="68.91" y="87.1" width="376.65" height="205.08"/></g><path class="cls-34" d="M111.39,97.48h294.8a18.25,18.25,0,0,1,18.25,18.25v36.82a0,0,0,0,1,0,0H93.54a.4.4,0,0,1-.4-.4V115.73A18.25,18.25,0,0,1,111.39,97.48Z"/><rect class="cls-35" x="93.15" y="97.48" width="331.29" height="190.61" rx="23.91"/></g></g></svg>